{"glyphs":{"0":{"ha":772,"x_min":29,"x_max":743,"o":"m 226 490 q 227 551 226 515 q 232 624 228 586 q 246 698 236 661 q 273 764 256 735 q 317 811 290 793 q 385 829 344 829 q 453 811 425 829 q 499 764 481 793 q 526 698 517 735 q 540 624 535 661 q 545 551 544 586 q 546 490 546 515 q 543 390 546 449 q 526 276 540 331 q 478 182 511 221 q 385 143 446 143 q 293 182 325 143 q 247 276 261 221 q 229 390 232 331 q 226 490 226 449 m 29 490 q 58 247 29 344 q 135 90 86 149 q 248 7 183 32 q 385 -18 313 -18 q 523 7 458 -18 q 637 90 588 32 q 715 247 686 149 q 743 490 743 344 q 715 728 743 632 q 637 883 686 825 q 523 967 588 942 q 385 992 458 992 q 248 967 313 992 q 135 883 183 942 q 58 728 86 825 q 29 490 29 632 z "},"1":{"ha":772,"x_min":103,"x_max":544,"o":"m 544 0 l 544 972 l 388 972 q 353 879 379 917 q 288 819 326 842 q 202 787 250 796 q 103 779 154 778 l 103 631 l 347 631 l 347 0 l 544 0 z "},"2":{"ha":772,"x_min":29,"x_max":743,"o":"m 51 599 l 240 599 q 248 677 240 638 q 274 749 256 717 q 322 802 292 782 q 394 822 351 822 q 499 783 458 822 q 540 672 540 743 q 520 593 540 628 q 470 531 500 558 q 404 480 440 503 q 336 435 368 457 q 217 350 274 392 q 119 259 161 308 q 53 147 78 210 q 29 0 29 85 l 743 0 l 743 169 l 283 169 q 367 257 319 219 q 464 327 414 294 q 563 393 514 360 q 651 467 613 426 q 714 561 690 508 q 738 688 738 614 q 710 815 738 758 q 638 911 683 872 q 531 971 592 950 q 404 992 471 992 q 249 962 317 992 q 138 878 182 932 q 71 753 93 825 q 51 599 49 682 z "},"3":{"ha":772,"x_min":25,"x_max":747,"o":"m 317 579 l 317 440 q 392 438 353 440 q 465 423 432 436 q 520 381 499 410 q 542 296 542 351 q 496 184 542 225 q 383 143 450 143 q 309 158 340 143 q 257 199 278 174 q 225 260 236 225 q 213 335 214 296 l 25 335 q 49 185 24 250 q 122 74 75 119 q 237 6 169 29 q 386 -18 304 -18 q 522 3 457 -18 q 638 64 588 24 q 717 164 688 104 q 747 300 747 224 q 701 443 747 383 q 575 521 656 503 l 575 524 q 677 597 643 543 q 711 722 711 651 q 682 838 711 788 q 606 922 653 888 q 501 974 560 957 q 385 992 443 992 q 249 967 310 992 q 144 899 188 943 q 76 792 100 854 q 49 656 51 731 l 236 656 q 273 780 235 731 q 386 829 311 829 q 482 796 440 829 q 524 700 524 763 q 503 633 524 658 q 452 595 483 608 q 385 579 421 582 q 317 579 349 576 z "},"4":{"ha":772,"x_min":22,"x_max":750,"o":"m 433 725 l 433 388 l 178 388 l 429 725 l 433 725 m 433 225 l 433 0 l 621 0 l 621 225 l 750 225 l 750 388 l 621 388 l 621 972 l 444 972 l 22 406 l 22 225 l 433 225 z "},"5":{"ha":772,"x_min":25,"x_max":747,"o":"m 694 810 l 694 972 l 151 972 l 56 435 l 233 435 q 296 494 263 475 q 382 513 329 513 q 453 499 422 513 q 506 460 483 485 q 539 401 528 435 q 550 331 550 368 q 538 260 550 294 q 505 201 526 226 q 452 159 483 175 q 382 143 421 143 q 272 183 315 143 q 222 289 229 222 l 25 289 q 56 155 26 213 q 136 58 86 97 q 251 1 186 19 q 386 -18 315 -18 q 525 6 460 -19 q 640 79 590 32 q 718 191 689 126 q 747 331 747 256 q 727 459 747 399 q 669 564 707 519 q 575 635 631 608 q 447 661 519 661 q 343 644 389 661 q 257 586 297 626 l 254 589 l 293 810 l 694 810 z "},"6":{"ha":772,"x_min":29,"x_max":743,"o":"m 397 504 q 463 488 435 504 q 510 447 492 472 q 537 388 528 421 q 546 321 546 356 q 536 256 546 288 q 507 199 526 224 q 460 158 488 174 q 397 143 433 143 q 331 158 360 143 q 281 199 301 174 q 251 258 261 225 q 240 324 240 290 q 250 392 240 360 q 279 450 260 425 q 328 490 299 475 q 397 504 358 504 m 539 722 l 726 722 q 692 838 718 788 q 624 922 665 888 q 528 974 582 956 q 411 992 474 992 q 235 946 307 992 q 117 827 163 900 q 50 664 71 754 q 29 483 29 574 q 46 301 29 390 q 106 140 63 211 q 221 26 149 69 q 403 -18 293 -18 q 542 9 479 -18 q 649 84 604 36 q 719 197 694 132 q 743 336 743 261 q 725 451 743 394 q 668 553 707 508 q 567 626 626 599 q 444 653 507 653 q 319 628 374 653 q 225 544 265 603 l 222 547 q 233 639 224 588 q 264 735 243 690 q 320 812 285 781 q 408 843 356 843 q 494 807 460 843 q 539 722 529 771 z "},"7":{"ha":772,"x_min":54,"x_max":718,"o":"m 718 803 l 718 972 l 54 972 l 54 789 l 515 789 q 291 419 376 621 q 189 0 206 218 l 400 0 q 423 210 401 97 q 484 432 444 322 q 583 639 524 542 q 718 803 642 736 z "},"8":{"ha":772,"x_min":19,"x_max":753,"o":"m 239 708 q 251 767 239 742 q 283 808 263 792 q 331 834 304 825 q 388 843 358 843 q 462 829 433 843 q 506 794 490 815 q 528 751 522 774 q 533 708 533 728 q 492 613 533 646 q 388 581 450 581 q 283 613 328 581 q 239 708 239 646 m 60 726 q 96 600 60 654 q 203 526 132 546 l 203 524 q 67 440 115 503 q 19 285 19 378 q 51 149 19 206 q 134 54 82 92 q 252 -1 186 17 q 389 -18 318 -18 q 522 1 457 -18 q 639 57 588 19 q 722 151 690 94 q 753 286 753 208 q 706 441 753 378 q 571 524 658 504 l 571 526 q 677 604 642 550 q 713 731 713 658 q 696 812 713 767 q 641 897 679 857 q 540 964 603 936 q 388 992 478 992 q 269 975 328 992 q 165 925 211 958 q 89 842 118 892 q 60 726 60 792 m 217 294 q 267 409 217 369 q 389 449 317 449 q 453 438 424 449 q 506 406 483 426 q 542 356 529 385 q 556 293 556 328 q 543 226 556 257 q 508 174 531 196 q 455 141 485 153 q 389 129 425 129 q 322 141 354 129 q 267 174 290 153 q 231 226 244 196 q 217 294 217 257 z "},"9":{"ha":772,"x_min":29,"x_max":743,"o":"m 375 468 q 309 484 338 468 q 263 526 281 500 q 235 584 244 551 q 226 651 226 617 q 236 717 226 685 q 265 774 246 749 q 313 814 285 799 q 375 829 340 829 q 442 814 413 829 q 491 773 471 799 q 522 715 511 747 q 532 649 532 682 q 522 580 532 613 q 493 522 513 547 q 444 483 474 497 q 375 468 415 468 m 233 250 l 46 250 q 81 136 54 186 q 149 51 107 86 q 244 -1 190 17 q 361 -18 299 -18 q 538 27 465 -18 q 656 145 610 72 q 722 308 701 218 q 743 489 743 399 q 726 671 743 581 q 667 833 710 761 q 552 948 624 904 q 369 992 481 992 q 231 964 293 992 q 123 888 168 936 q 53 776 78 840 q 29 636 29 711 q 47 521 29 578 q 104 419 65 464 q 206 347 146 374 q 328 319 265 319 q 453 344 399 319 q 547 428 507 369 l 550 425 q 538 333 547 385 q 508 237 529 282 q 453 160 488 192 q 364 129 418 129 q 278 165 313 129 q 233 250 243 201 z "},"\b":{"ha":0,"x_min":0,"x_max":0,"o":""},"\t":{"ha":386,"x_min":0,"x_max":0,"o":""},"\r":{"ha":386,"x_min":0,"x_max":0,"o":""},"\u001d":{"ha":0,"x_min":0,"x_max":0,"o":""}," ":{"ha":386,"x_min":0,"x_max":0,"o":""},"!":{"ha":386,"x_min":85,"x_max":303,"o":"m 85 214 l 85 0 l 303 0 l 303 214 l 85 214 m 296 725 l 296 992 l 90 992 l 90 725 l 143 297 l 242 297 l 296 725 z "},"\"":{"ha":643,"x_min":118,"x_max":525,"o":"m 118 992 l 118 546 l 267 546 l 267 992 l 118 992 m 376 992 l 376 546 l 525 546 l 525 992 l 376 992 z "},"#":{"ha":772,"x_min":46,"x_max":726,"o":"m 338 572 l 471 572 l 447 400 l 313 400 l 338 572 m 161 275 l 122 0 l 257 0 l 296 275 l 429 275 l 392 0 l 526 0 l 564 275 l 685 275 l 685 400 l 582 400 l 606 572 l 726 572 l 726 697 l 624 697 l 661 972 l 526 972 l 489 697 l 354 697 l 393 972 l 258 972 l 219 697 l 88 697 l 88 572 l 203 572 l 178 400 l 46 400 l 46 275 l 161 275 z "},"$":{"ha":772,"x_min":0,"x_max":774,"o":"m 196 322 l 0 322 q 101 74 14 158 q 344 -22 189 -11 l 344 -140 l 426 -140 l 426 -22 q 597 19 531 -15 q 703 99 664 54 q 758 190 743 143 q 774 267 774 236 q 769 346 774 301 q 738 435 764 390 q 656 520 711 479 q 497 589 600 561 q 460 599 478 594 q 426 607 443 603 l 426 853 q 507 814 474 853 q 542 719 540 775 l 739 719 q 708 844 735 792 q 640 933 682 897 q 544 988 599 968 q 426 1015 489 1008 l 426 1122 l 344 1122 l 344 1015 q 224 991 282 1011 q 121 934 165 971 q 49 843 76 897 q 22 718 22 789 q 46 602 22 649 q 109 524 69 556 q 199 474 149 493 q 300 442 249 456 q 326 435 314 439 q 344 429 338 432 l 344 139 q 238 197 281 151 q 196 322 194 243 m 426 139 l 426 406 q 542 356 508 383 q 576 275 576 329 q 563 217 576 242 q 527 176 549 193 q 478 151 506 160 q 426 139 451 142 m 344 853 l 344 626 q 249 667 278 642 q 219 738 219 692 q 230 788 219 767 q 258 824 240 810 q 299 846 276 839 q 344 853 321 853 z "},"%":{"ha":1389,"x_min":104,"x_max":1285,"o":"m 963 253 q 965 306 963 276 q 976 360 967 335 q 1005 401 986 385 q 1057 418 1024 418 q 1105 399 1088 418 q 1131 355 1122 381 q 1141 301 1139 329 q 1143 251 1143 272 q 1141 201 1143 229 q 1130 147 1139 172 q 1102 103 1121 121 q 1051 85 1083 85 q 1000 103 1018 85 q 974 147 982 121 q 964 201 965 172 q 963 253 963 231 m 821 254 q 833 147 821 197 q 872 60 844 97 q 942 3 899 24 q 1050 -18 986 -18 q 1156 2 1111 -18 q 1228 58 1200 22 q 1271 143 1257 94 q 1285 249 1285 192 q 1274 356 1285 306 q 1235 442 1263 406 q 1165 501 1208 479 q 1057 522 1122 522 q 951 501 996 522 q 878 444 907 481 q 835 360 849 408 q 821 254 821 311 m 928 1003 l 353 -29 l 474 -29 l 1046 1003 l 928 1003 m 246 714 q 248 768 246 738 q 260 825 250 799 q 288 869 269 851 q 340 888 307 888 q 388 868 371 888 q 414 821 406 849 q 424 763 422 793 q 426 713 426 733 q 424 663 426 690 q 413 612 422 636 q 385 571 404 588 q 335 554 367 554 q 283 571 301 554 q 257 612 265 588 q 247 664 249 636 q 246 714 246 692 m 104 717 q 116 610 104 660 q 155 526 128 561 q 226 470 182 490 q 333 450 269 450 q 439 469 394 450 q 512 524 483 489 q 554 606 540 558 q 568 711 568 654 q 557 819 568 768 q 519 909 546 871 q 449 969 492 947 q 340 992 406 992 q 235 970 279 992 q 161 911 190 949 q 118 824 132 874 q 104 717 104 774 z "},"&":{"ha":951,"x_min":44,"x_max":967,"o":"m 644 99 l 725 0 l 967 0 l 765 235 q 831 350 807 288 q 861 479 854 413 l 690 479 q 678 419 686 449 q 654 361 669 389 l 526 518 q 652 618 601 558 q 703 765 703 678 q 681 868 703 824 q 623 942 660 913 q 537 988 586 972 q 431 1003 488 1003 q 334 987 381 1003 q 251 941 288 971 q 194 869 215 911 q 172 776 172 828 q 199 663 172 711 q 267 565 226 614 q 183 517 224 544 q 112 453 143 489 q 63 374 81 418 q 44 278 44 331 q 69 152 44 207 q 138 59 94 97 q 240 1 181 21 q 365 -18 299 -18 q 517 11 450 -18 q 644 99 585 40 m 371 438 l 540 231 q 466 167 506 192 q 374 143 426 143 q 320 153 346 143 q 275 181 294 164 q 244 223 256 199 q 232 274 232 247 q 244 329 232 304 q 275 375 256 354 q 319 411 294 396 q 371 438 344 426 m 531 776 q 501 692 531 722 q 429 635 471 661 q 376 703 401 669 q 351 783 351 736 q 378 847 351 822 q 440 871 404 871 q 503 843 476 871 q 531 776 531 815 z "},"'":{"ha":386,"x_min":119,"x_max":268,"o":"m 119 992 l 119 546 l 268 546 l 268 992 l 119 992 z "},"(":{"ha":411,"x_min":72,"x_max":421,"o":"m 421 1015 l 256 1015 q 176 869 210 949 q 119 706 142 790 q 84 535 96 621 q 72 372 72 450 q 120 50 72 208 q 256 -251 168 -108 l 419 -251 q 305 60 340 -100 q 269 386 269 219 q 306 709 269 550 q 421 1015 342 868 z "},")":{"ha":411,"x_min":-8,"x_max":339,"o":"m -8 -251 l 156 -251 q 236 -107 201 -186 q 294 56 271 -28 q 328 226 317 140 q 339 389 339 311 q 291 713 339 553 q 156 1015 243 872 l -7 1015 q 106 703 69 864 q 142 375 142 542 q 105 53 142 211 q -8 -251 68 -104 z "},"*":{"ha":565,"x_min":31,"x_max":535,"o":"m 336 818 l 336 992 l 225 992 l 225 818 l 68 879 l 31 772 l 192 718 l 89 582 l 182 514 l 279 657 l 382 514 l 474 582 l 371 718 l 535 772 l 497 879 l 336 818 z "},"+":{"ha":833,"x_min":67,"x_max":768,"o":"m 492 425 l 492 701 l 343 701 l 343 425 l 67 425 l 67 276 l 343 276 l 343 0 l 492 0 l 492 276 l 768 276 l 768 425 l 492 425 z "},",":{"ha":386,"x_min":85,"x_max":303,"o":"m 85 214 l 85 0 l 185 0 q 179 -44 186 -22 q 158 -83 172 -65 q 126 -112 144 -100 q 86 -129 107 -125 l 86 -229 q 170 -203 131 -222 q 239 -156 210 -185 q 285 -87 268 -126 q 303 0 303 -47 l 303 214 l 85 214 z "},"-":{"ha":565,"x_min":74,"x_max":492,"o":"m 74 464 l 74 294 l 492 294 l 492 464 l 74 464 z "},".":{"ha":386,"x_min":83,"x_max":301,"o":"m 83 214 l 83 0 l 301 0 l 301 214 l 83 214 z "},"/":{"ha":515,"x_min":-14,"x_max":531,"o":"m 372 1015 l -14 -22 l 143 -22 l 531 1015 l 372 1015 z "},":":{"ha":386,"x_min":85,"x_max":303,"o":"m 303 492 l 303 706 l 85 706 l 85 492 l 303 492 m 85 214 l 85 0 l 303 0 l 303 214 l 85 214 z "},";":{"ha":386,"x_min":85,"x_max":303,"o":"m 303 492 l 303 706 l 85 706 l 85 492 l 303 492 m 85 214 l 85 0 l 185 0 q 179 -44 186 -22 q 158 -83 172 -65 q 126 -112 144 -100 q 86 -129 107 -125 l 86 -229 q 170 -203 131 -222 q 239 -156 210 -185 q 285 -87 268 -126 q 303 0 303 -47 l 303 214 l 85 214 z "},"<":{"ha":833,"x_min":64,"x_max":769,"o":"m 769 554 l 769 714 l 64 433 l 64 269 l 769 -10 l 769 149 l 260 351 l 769 554 z "},"=":{"ha":833,"x_min":67,"x_max":768,"o":"m 768 128 l 768 276 l 67 276 l 67 128 l 768 128 m 768 425 l 768 574 l 67 574 l 67 425 l 768 425 z "},">":{"ha":833,"x_min":64,"x_max":769,"o":"m 64 149 l 64 -10 l 769 269 l 769 433 l 64 714 l 64 554 l 574 351 l 64 149 z "},"?":{"ha":772,"x_min":44,"x_max":728,"o":"m 268 214 l 268 0 l 486 0 l 486 214 l 268 214 m 44 672 l 249 672 q 257 742 249 710 q 283 799 265 775 q 327 838 300 824 q 392 853 354 853 q 478 822 447 853 q 510 728 510 792 q 497 665 511 690 q 458 619 482 640 q 407 578 435 599 q 354 528 379 557 q 310 460 329 500 q 288 360 292 419 l 288 297 l 475 297 l 475 350 q 502 419 481 392 q 551 469 524 447 q 610 512 579 490 q 667 564 642 533 q 710 638 693 594 q 728 747 728 681 q 710 834 728 788 q 653 921 693 881 q 547 988 613 961 q 382 1015 481 1015 q 244 990 306 1015 q 138 918 182 964 q 70 810 94 872 q 44 672 46 747 z "},"@":{"ha":1111,"x_min":50,"x_max":1061,"o":"m 776 399 l 864 757 l 750 757 l 728 682 q 657 758 704 736 q 565 779 610 779 q 441 749 497 779 q 345 668 385 718 q 284 554 306 618 q 263 425 263 490 q 280 333 263 376 q 327 258 297 290 q 397 206 357 225 q 481 188 436 188 q 565 207 525 188 q 631 268 606 226 l 633 268 q 663 211 636 233 q 735 189 690 189 q 823 212 768 189 q 931 283 878 235 q 1023 408 985 332 q 1061 592 1061 485 q 1021 766 1061 688 q 914 899 981 844 q 760 985 847 954 q 578 1015 672 1015 q 374 975 469 1015 q 206 865 278 935 q 92 701 133 796 q 50 496 50 606 q 92 290 50 385 q 206 125 133 194 q 376 17 279 56 q 585 -22 474 -22 q 826 35 715 -22 q 1008 201 938 93 l 892 201 q 759 117 838 147 q 593 88 681 88 q 428 117 504 88 q 299 199 353 146 q 214 327 244 253 q 183 493 183 401 q 211 656 183 581 q 290 787 239 732 q 415 873 342 842 q 576 904 488 904 q 724 882 656 904 q 844 816 793 860 q 924 709 894 772 q 953 563 953 646 q 938 460 953 507 q 901 378 924 413 q 848 326 878 344 q 789 307 818 307 q 771 316 776 307 q 765 339 765 325 q 769 369 765 353 q 776 399 772 385 m 404 443 q 417 514 404 478 q 452 580 429 550 q 507 628 475 610 q 576 647 539 647 q 652 614 621 647 q 683 529 683 581 q 671 456 683 493 q 635 388 658 418 q 581 339 613 358 q 513 319 550 319 q 434 353 464 319 q 404 443 404 388 z "},"A":{"ha":951,"x_min":-8,"x_max":961,"o":"m 346 383 l 475 747 l 478 747 l 603 383 l 346 383 m 367 992 l -8 0 l 211 0 l 289 221 l 660 221 l 735 0 l 961 0 l 590 992 l 367 992 z "},"B":{"ha":978,"x_min":96,"x_max":926,"o":"m 314 590 l 314 822 l 518 822 q 574 817 547 822 q 622 800 601 813 q 656 765 643 788 q 668 708 668 743 q 631 618 668 646 q 535 590 593 590 l 314 590 m 96 992 l 96 0 l 576 0 q 706 17 643 0 q 819 68 769 33 q 897 158 868 103 q 926 288 926 213 q 881 447 926 381 q 744 539 836 513 q 845 621 811 571 q 879 746 879 671 q 856 863 879 815 q 792 938 833 910 q 692 979 750 967 q 563 992 633 992 l 96 992 m 314 169 l 314 442 l 551 442 q 665 409 622 442 q 708 300 708 376 q 695 236 708 261 q 660 197 682 211 q 608 176 638 182 q 547 169 579 169 l 314 169 z "},"C":{"ha":1029,"x_min":53,"x_max":976,"o":"m 757 658 l 968 658 q 921 811 958 744 q 826 923 883 878 q 695 992 768 968 q 540 1015 622 1015 q 335 975 426 1015 q 182 864 244 935 q 86 698 119 793 q 53 492 53 603 q 86 290 53 383 q 182 126 119 196 q 335 17 244 57 q 540 -22 426 -22 q 708 6 632 -22 q 842 86 785 33 q 933 214 899 139 q 976 382 968 289 l 765 382 q 697 221 753 282 q 540 160 640 160 q 415 188 467 160 q 332 264 364 217 q 285 370 300 311 q 271 492 271 429 q 285 618 271 557 q 332 727 300 679 q 415 803 364 775 q 540 832 467 832 q 617 819 581 832 q 683 782 654 806 q 732 727 713 758 q 757 658 751 696 z "},"D":{"ha":1029,"x_min":96,"x_max":974,"o":"m 314 183 l 314 808 l 469 808 q 605 785 550 808 q 693 719 660 763 q 741 616 726 676 q 756 481 756 556 q 735 342 756 399 q 679 249 714 285 q 600 199 644 214 q 508 183 556 183 l 314 183 m 96 992 l 96 0 l 524 0 q 722 38 638 0 q 862 143 806 76 q 946 301 918 210 q 974 501 974 393 q 940 717 974 625 q 845 869 906 808 q 702 961 785 931 q 524 992 619 992 l 96 992 z "},"E":{"ha":900,"x_min":96,"x_max":849,"o":"m 96 992 l 96 0 l 849 0 l 849 183 l 314 183 l 314 426 l 794 426 l 794 596 l 314 596 l 314 808 l 838 808 l 838 992 l 96 992 z "},"F":{"ha":824,"x_min":96,"x_max":793,"o":"m 96 992 l 96 0 l 314 0 l 314 410 l 729 410 l 729 579 l 314 579 l 314 808 l 793 808 l 793 992 l 96 992 z "},"G":{"ha":1054,"x_min":53,"x_max":974,"o":"m 813 113 l 835 0 l 974 0 l 974 536 l 557 536 l 557 374 l 776 374 q 708 215 767 269 q 540 160 649 160 q 415 188 467 160 q 332 264 364 217 q 285 370 300 311 q 271 492 271 429 q 285 618 271 557 q 332 727 300 679 q 415 803 364 775 q 540 832 467 832 q 675 790 619 832 q 750 665 731 749 l 958 665 q 913 815 950 750 q 817 925 875 881 q 688 992 760 969 q 540 1015 617 1015 q 335 975 426 1015 q 182 864 244 935 q 86 698 119 793 q 53 492 53 603 q 86 290 53 383 q 182 126 119 196 q 335 17 244 57 q 540 -22 426 -22 q 683 8 613 -22 q 813 113 754 38 z "},"H":{"ha":1029,"x_min":96,"x_max":933,"o":"m 96 992 l 96 0 l 314 0 l 314 428 l 715 428 l 715 0 l 933 0 l 933 992 l 715 992 l 715 611 l 314 611 l 314 992 l 96 992 z "},"I":{"ha":410,"x_min":96,"x_max":314,"o":"m 96 992 l 96 0 l 314 0 l 314 992 l 96 992 z "},"J":{"ha":772,"x_min":19,"x_max":676,"o":"m 676 313 l 676 992 l 458 992 l 458 322 q 456 267 458 296 q 444 215 454 239 q 410 175 433 190 q 343 160 386 160 q 280 172 304 160 q 242 206 256 185 q 222 258 228 228 q 217 325 217 289 l 217 369 l 19 369 l 19 283 q 47 144 19 201 q 121 49 75 86 q 225 -5 167 13 q 346 -22 283 -22 q 522 12 457 -22 q 622 97 588 46 q 667 206 657 147 q 676 313 676 264 z "},"K":{"ha":1003,"x_min":96,"x_max":1011,"o":"m 96 992 l 96 0 l 314 0 l 314 319 l 439 446 l 738 0 l 1011 0 l 586 600 l 974 992 l 701 992 l 314 581 l 314 992 l 96 992 z "},"L":{"ha":824,"x_min":96,"x_max":797,"o":"m 96 992 l 96 0 l 797 0 l 797 183 l 314 183 l 314 992 l 96 992 z "},"M":{"ha":1260,"x_min":96,"x_max":1164,"o":"m 96 992 l 96 0 l 300 0 l 300 696 l 303 696 l 546 0 l 714 0 l 957 703 l 960 703 l 960 0 l 1164 0 l 1164 992 l 857 992 l 638 310 l 635 310 l 403 992 l 96 992 z "},"N":{"ha":1029,"x_min":96,"x_max":933,"o":"m 96 992 l 96 0 l 300 0 l 300 664 l 303 664 l 715 0 l 933 0 l 933 992 l 729 992 l 729 326 l 726 326 l 313 992 l 96 992 z "},"O":{"ha":1081,"x_min":53,"x_max":1028,"o":"m 271 492 q 285 618 271 557 q 332 727 300 679 q 415 803 364 775 q 540 832 467 832 q 665 803 614 832 q 749 727 717 775 q 795 618 781 679 q 810 492 810 557 q 795 370 810 429 q 749 264 781 311 q 665 188 717 217 q 540 160 614 160 q 415 188 467 160 q 332 264 364 217 q 285 370 300 311 q 271 492 271 429 m 53 492 q 86 290 53 383 q 182 126 119 196 q 335 17 244 57 q 540 -22 426 -22 q 746 17 656 -22 q 899 126 836 57 q 994 290 961 196 q 1028 492 1028 383 q 994 698 1028 603 q 899 864 961 793 q 746 975 836 935 q 540 1015 656 1015 q 335 975 426 1015 q 182 864 244 935 q 86 698 119 793 q 53 492 53 603 z "},"P":{"ha":926,"x_min":96,"x_max":886,"o":"m 314 525 l 314 822 l 483 822 q 556 817 521 822 q 617 795 590 811 q 659 750 643 779 q 675 674 675 721 q 659 597 675 626 q 617 552 643 568 q 556 531 590 536 q 483 525 521 525 l 314 525 m 96 992 l 96 0 l 314 0 l 314 356 l 543 356 q 701 383 636 356 q 808 454 767 410 q 867 556 849 499 q 886 674 886 614 q 867 792 886 735 q 808 893 849 849 q 701 965 767 938 q 543 992 636 992 l 96 992 z "},"Q":{"ha":1081,"x_min":53,"x_max":1028,"o":"m 636 367 l 535 258 l 628 174 q 590 161 617 163 q 540 160 564 160 q 415 188 467 160 q 332 264 364 217 q 285 370 300 311 q 271 492 271 429 q 285 618 271 557 q 332 727 300 679 q 415 803 364 775 q 540 832 467 832 q 665 803 614 832 q 749 727 717 775 q 795 618 781 679 q 810 492 810 557 q 793 357 810 413 q 749 264 776 301 l 636 367 m 921 -92 l 1022 14 l 899 126 q 994 290 961 197 q 1028 492 1028 383 q 994 698 1028 603 q 899 864 961 793 q 746 975 836 935 q 540 1015 656 1015 q 335 975 426 1015 q 182 864 244 935 q 86 698 119 793 q 53 492 53 603 q 86 290 53 383 q 182 126 119 196 q 335 17 244 57 q 540 -22 426 -22 q 781 35 682 -22 l 921 -92 z "},"R":{"ha":1003,"x_min":96,"x_max":950,"o":"m 314 543 l 314 822 l 553 822 q 665 790 628 822 q 703 685 703 757 q 665 576 703 610 q 553 543 628 543 l 314 543 m 96 992 l 96 0 l 314 0 l 314 388 l 532 388 q 650 351 614 388 q 697 238 686 315 q 710 113 706 178 q 732 0 714 47 l 950 0 q 927 51 935 21 q 916 114 919 81 q 911 179 913 147 q 908 235 910 211 q 898 310 906 272 q 874 378 890 347 q 831 433 857 410 q 764 467 804 456 l 764 469 q 884 567 847 503 q 921 718 921 631 q 901 824 921 775 q 842 911 881 874 q 751 970 804 949 q 631 992 697 992 l 96 992 z "},"S":{"ha":901,"x_min":33,"x_max":868,"o":"m 244 329 l 33 329 q 67 171 32 238 q 160 61 101 104 q 297 -2 219 18 q 456 -22 374 -22 q 634 1 557 -22 q 763 67 711 25 q 842 168 815 110 q 868 294 868 226 q 833 431 868 378 q 749 517 797 485 q 651 563 700 549 q 574 583 601 578 q 423 622 481 607 q 333 653 365 638 q 289 686 300 668 q 278 733 278 704 q 292 786 278 765 q 327 821 306 807 q 375 840 349 835 q 428 846 401 846 q 502 839 468 846 q 563 815 536 832 q 605 769 589 799 q 624 696 621 740 l 835 696 q 802 842 835 782 q 714 942 769 903 q 587 998 658 981 q 438 1015 515 1015 q 304 997 371 1015 q 185 942 238 979 q 99 848 132 904 q 67 715 67 792 q 92 599 67 647 q 160 519 118 551 q 254 467 201 488 q 363 433 307 447 q 469 406 417 418 q 564 376 522 393 q 631 335 606 360 q 657 269 657 310 q 638 208 657 232 q 589 169 618 183 q 526 151 560 156 q 464 146 493 146 q 381 156 421 146 q 310 188 340 167 q 263 244 281 210 q 244 329 244 279 z "},"T":{"ha":849,"x_min":18,"x_max":831,"o":"m 315 808 l 315 0 l 533 0 l 533 808 l 831 808 l 831 992 l 18 992 l 18 808 l 315 808 z "},"U":{"ha":1029,"x_min":92,"x_max":938,"o":"m 938 375 l 938 992 l 719 992 l 719 375 q 675 212 719 264 q 514 160 631 160 q 408 178 447 160 q 346 227 368 197 q 317 296 324 257 q 310 375 310 335 l 310 992 l 92 992 l 92 375 q 202 75 92 172 q 514 -22 313 -22 q 825 76 713 -22 q 938 375 938 174 z "},"V":{"ha":875,"x_min":-10,"x_max":886,"o":"m 557 0 l 886 992 l 661 992 l 438 294 l 435 294 l 214 992 l -10 992 l 311 0 l 557 0 z "},"W":{"ha":1311,"x_min":4,"x_max":1307,"o":"m 1040 0 l 1307 992 l 1093 992 l 931 308 l 928 308 l 758 992 l 554 992 l 382 317 l 379 317 l 222 992 l 4 992 l 267 0 l 488 0 l 653 675 l 656 675 l 824 0 l 1040 0 z "},"X":{"ha":926,"x_min":-7,"x_max":935,"o":"m 339 519 l -7 0 l 238 0 l 458 343 l 675 0 l 935 0 l 589 518 l 907 992 l 668 992 l 467 675 l 272 992 l 19 992 l 339 519 z "},"Y":{"ha":926,"x_min":-11,"x_max":939,"o":"m 353 386 l 353 0 l 571 0 l 571 381 l 939 992 l 696 992 l 465 600 l 233 992 l -11 992 l 353 386 z "},"Z":{"ha":900,"x_min":32,"x_max":868,"o":"m 32 172 l 32 0 l 868 0 l 868 183 l 322 183 l 854 819 l 854 992 l 74 992 l 74 808 l 564 808 l 32 172 z "},"[":{"ha":463,"x_min":94,"x_max":461,"o":"m 94 1015 l 94 -251 l 461 -251 l 461 -96 l 292 -96 l 292 860 l 461 860 l 461 1015 l 94 1015 z "},"\\":{"ha":515,"x_min":-14,"x_max":531,"o":"m 531 -22 l 143 1015 l -14 1015 l 372 -22 l 531 -22 z "},"]":{"ha":463,"x_min":1,"x_max":368,"o":"m 368 -251 l 368 1015 l 1 1015 l 1 860 l 171 860 l 171 -96 l 1 -96 l 1 -251 l 368 -251 z "},"^":{"ha":833,"x_min":85,"x_max":749,"o":"m 324 972 l 85 438 l 247 438 l 417 819 l 586 438 l 749 438 l 510 972 l 324 972 z "},"_":{"ha":694,"x_min":0,"x_max":694,"o":"m 0 -103 l 0 -172 l 694 -172 l 694 -103 l 0 -103 z "},"`":{"ha":360,"x_min":-65,"x_max":285,"o":"m 151 1004 l 285 807 l 147 807 l -65 1004 l 151 1004 z "},"a":{"ha":797,"x_min":44,"x_max":744,"o":"m 67 497 l 264 497 q 303 581 269 556 q 394 606 336 606 q 444 602 421 606 q 484 588 467 599 q 512 559 501 578 q 522 508 522 540 q 504 462 524 478 q 451 438 485 446 q 375 425 418 429 q 288 414 332 421 q 199 395 243 407 q 122 360 156 383 q 66 297 88 336 q 44 196 44 257 q 63 100 44 140 q 115 33 82 60 q 193 -6 149 7 q 289 -18 238 -18 q 419 1 356 -18 q 531 69 483 21 q 535 34 532 51 q 544 0 539 17 l 744 0 q 725 67 731 22 q 719 160 719 111 l 719 533 q 690 638 719 599 q 615 700 661 678 q 514 730 569 722 q 404 738 458 738 q 285 726 344 738 q 179 686 226 714 q 101 613 132 658 q 67 497 71 567 m 522 351 l 522 278 q 519 233 522 261 q 500 178 515 206 q 453 132 485 151 q 363 113 421 113 q 317 117 339 113 q 278 131 294 121 q 251 160 261 142 q 242 204 242 178 q 251 250 242 232 q 277 280 261 268 q 315 299 293 292 q 358 310 336 306 q 406 317 382 314 q 451 324 429 319 q 491 334 472 328 q 522 351 510 340 z "},"b":{"ha":849,"x_min":75,"x_max":799,"o":"m 601 358 q 592 272 601 314 q 561 199 582 231 q 509 148 540 167 q 433 129 478 129 q 358 148 390 129 q 306 199 326 167 q 275 272 285 231 q 265 358 265 314 q 275 446 265 404 q 306 519 285 488 q 358 570 326 551 q 433 589 390 589 q 509 570 478 589 q 561 519 540 551 q 592 446 582 488 q 601 358 601 404 m 75 992 l 75 0 l 263 0 l 263 92 l 265 92 q 360 7 297 32 q 501 -18 422 -18 q 608 4 556 -18 q 703 72 661 26 q 772 190 746 118 q 799 360 799 261 q 772 530 799 458 q 703 647 746 601 q 608 715 661 693 q 501 738 556 738 q 373 712 435 738 q 275 631 311 686 l 272 631 l 272 992 l 75 992 z "},"c":{"ha":797,"x_min":53,"x_max":761,"o":"m 564 465 l 757 465 q 724 585 753 535 q 648 670 694 636 q 542 721 601 704 q 419 738 483 738 q 264 708 332 738 q 149 627 196 679 q 77 503 101 575 q 53 349 53 432 q 79 201 53 268 q 153 85 106 133 q 267 9 200 36 q 415 -18 335 -18 q 650 57 558 -18 q 761 275 742 132 l 571 275 q 523 169 561 208 q 414 129 485 129 q 336 150 368 129 q 285 203 304 171 q 258 276 267 236 q 250 356 250 317 q 258 437 250 396 q 287 512 267 478 q 339 567 307 546 q 418 589 371 589 q 564 465 544 589 z "},"d":{"ha":849,"x_min":44,"x_max":775,"o":"m 585 361 q 576 275 585 317 q 549 201 568 233 q 497 149 529 168 q 415 129 464 129 q 337 149 369 129 q 283 202 304 169 q 251 276 261 235 q 242 360 242 318 q 251 445 242 404 q 280 518 260 486 q 333 569 300 550 q 415 589 367 589 q 496 569 464 589 q 548 519 528 550 q 576 447 568 488 q 585 361 585 406 m 588 92 l 588 0 l 775 0 l 775 992 l 578 992 l 578 631 l 575 631 q 484 710 542 683 q 363 738 426 738 q 224 706 283 738 q 124 624 164 675 q 65 505 85 572 q 44 365 44 438 q 65 221 44 290 q 124 98 85 151 q 225 13 164 44 q 367 -18 286 -18 q 494 8 438 -18 q 585 92 550 33 l 588 92 z "},"e":{"ha":797,"x_min":40,"x_max":756,"o":"m 558 436 l 238 436 q 247 483 239 457 q 273 533 254 510 q 323 573 292 557 q 401 589 354 589 q 509 550 474 589 q 558 436 544 511 m 238 311 l 756 311 q 742 471 761 394 q 678 607 722 547 q 567 702 635 667 q 407 738 499 738 q 258 708 325 738 q 142 628 190 679 q 67 508 93 578 q 40 358 40 439 q 66 206 40 275 q 139 86 92 136 q 254 9 186 36 q 407 -18 322 -18 q 615 38 529 -18 q 743 222 701 93 l 569 222 q 517 159 560 189 q 414 129 474 129 q 286 172 331 129 q 238 311 242 215 z "},"f":{"ha":463,"x_min":0,"x_max":463,"o":"m 118 586 l 118 0 l 315 0 l 315 586 l 451 586 l 451 718 l 315 718 l 315 761 q 333 824 315 806 q 390 843 350 843 q 463 839 428 843 l 463 986 q 411 990 438 988 q 358 992 385 992 q 178 931 238 992 q 118 774 118 869 l 118 718 l 0 718 l 0 586 l 118 586 z "},"g":{"ha":849,"x_min":53,"x_max":765,"o":"m 410 169 q 333 189 364 169 q 284 239 303 208 q 258 308 265 269 q 250 385 250 346 q 259 462 250 425 q 288 527 268 499 q 338 572 308 556 q 410 589 368 589 q 490 571 458 589 q 542 522 522 553 q 569 452 561 492 q 578 368 578 413 q 567 294 578 329 q 536 231 557 258 q 483 186 515 203 q 410 169 451 169 m 765 46 l 765 718 l 578 718 l 578 622 l 575 622 q 485 711 539 685 q 361 738 432 738 q 228 708 286 738 q 132 630 171 679 q 73 516 93 581 q 53 382 53 451 q 70 242 53 308 q 125 127 88 176 q 221 49 163 78 q 360 21 279 21 q 484 48 425 21 q 575 132 543 75 l 578 132 l 578 38 q 541 -89 579 -39 q 419 -139 503 -139 q 326 -117 367 -139 q 272 -40 286 -96 l 76 -40 q 110 -145 81 -101 q 185 -217 140 -189 q 285 -258 231 -244 q 393 -271 340 -271 q 590 -237 517 -271 q 703 -156 664 -204 q 753 -53 742 -108 q 765 46 765 3 z "},"h":{"ha":824,"x_min":75,"x_max":749,"o":"m 75 992 l 75 0 l 272 0 l 272 376 q 308 534 272 486 q 425 582 344 582 q 524 538 496 582 q 551 406 551 494 l 551 0 l 749 0 l 749 442 q 737 563 749 508 q 696 656 725 618 q 616 716 667 694 q 486 738 565 738 q 372 709 431 738 q 276 618 314 681 l 272 618 l 272 992 l 75 992 z "},"i":{"ha":358,"x_min":81,"x_max":278,"o":"m 278 829 l 278 992 l 81 992 l 81 829 l 278 829 m 81 718 l 81 0 l 278 0 l 278 718 l 81 718 z "},"j":{"ha":386,"x_min":-25,"x_max":290,"o":"m 290 829 l 290 992 l 93 992 l 93 829 l 290 829 m -25 -83 l -25 -246 q 38 -251 3 -251 q 161 -238 113 -251 q 238 -198 210 -225 q 278 -131 267 -171 q 290 -35 290 -90 l 290 718 l 93 718 l 93 -25 q 70 -77 93 -65 q 17 -89 47 -89 q -25 -83 -10 -89 z "},"k":{"ha":797,"x_min":93,"x_max":803,"o":"m 93 992 l 93 0 l 290 0 l 290 247 l 367 321 l 564 0 l 803 0 l 501 454 l 772 718 l 539 718 l 290 460 l 290 992 l 93 992 z "},"l":{"ha":358,"x_min":81,"x_max":278,"o":"m 81 992 l 81 0 l 278 0 l 278 992 l 81 992 z "},"m":{"ha":1258,"x_min":81,"x_max":1178,"o":"m 81 718 l 81 0 l 278 0 l 278 417 q 293 502 278 469 q 330 552 308 535 q 374 576 351 569 q 411 582 397 582 q 483 566 458 582 q 517 524 507 550 q 529 466 528 497 q 531 403 531 435 l 531 0 l 728 0 l 728 400 q 733 466 728 433 q 752 524 738 499 q 792 566 767 550 q 860 582 818 582 q 926 568 901 582 q 963 531 950 554 q 978 475 975 507 q 981 407 981 443 l 981 0 l 1178 0 l 1178 481 q 1158 599 1178 550 q 1104 679 1139 649 q 1021 724 1069 710 q 915 738 972 738 q 785 701 840 738 q 699 618 731 665 q 613 711 669 685 q 489 738 557 738 q 363 707 418 738 q 269 621 308 676 l 267 621 l 267 718 l 81 718 z "},"n":{"ha":824,"x_min":75,"x_max":749,"o":"m 75 718 l 75 0 l 272 0 l 272 376 q 308 534 272 486 q 425 582 344 582 q 524 538 496 582 q 551 406 551 494 l 551 0 l 749 0 l 749 442 q 737 563 749 508 q 696 656 725 618 q 616 716 667 694 q 486 738 565 738 q 364 709 424 738 q 267 618 304 681 l 263 618 l 263 718 l 75 718 z "},"o":{"ha":849,"x_min":53,"x_max":796,"o":"m 250 358 q 258 443 250 401 q 287 517 267 485 q 340 569 307 549 q 424 589 374 589 q 508 569 474 589 q 562 517 542 549 q 590 443 582 485 q 599 358 599 401 q 590 274 599 315 q 562 201 582 233 q 508 149 542 168 q 424 129 474 129 q 340 149 374 129 q 287 201 307 168 q 258 274 267 233 q 250 358 250 315 m 53 358 q 79 203 53 272 q 154 84 106 133 q 271 8 203 35 q 424 -18 339 -18 q 577 8 508 -18 q 694 84 646 35 q 769 203 743 133 q 796 358 796 272 q 769 515 796 444 q 694 634 743 585 q 577 710 646 683 q 424 738 508 738 q 271 710 339 738 q 154 634 203 683 q 79 515 106 585 q 53 358 53 444 z "},"p":{"ha":849,"x_min":75,"x_max":806,"o":"m 438 129 q 357 149 390 129 q 303 199 324 168 q 274 272 283 231 q 265 357 265 314 q 274 443 265 401 q 302 517 282 485 q 355 569 322 549 q 436 589 388 589 q 516 569 483 589 q 569 516 549 549 q 599 442 590 483 q 608 357 608 400 q 600 272 608 314 q 572 199 592 231 q 519 149 551 168 q 438 129 486 129 m 75 718 l 75 -251 l 272 -251 l 272 89 l 275 89 q 367 9 311 36 q 490 -18 424 -18 q 628 13 569 -18 q 727 94 688 43 q 786 213 767 146 q 806 351 806 279 q 786 498 806 428 q 726 621 767 568 q 625 706 686 674 q 479 738 564 738 q 357 711 413 738 q 265 626 301 685 l 263 626 l 263 718 l 75 718 z "},"q":{"ha":849,"x_min":44,"x_max":775,"o":"m 242 358 q 251 444 242 403 q 281 517 260 485 q 335 569 301 550 q 417 589 368 589 q 495 568 463 589 q 547 514 528 547 q 576 439 567 481 q 585 356 585 397 q 576 270 585 311 q 547 198 567 229 q 494 148 526 167 q 413 129 461 129 q 331 149 364 129 q 278 201 299 168 q 250 274 258 233 q 242 358 242 315 m 775 -251 l 775 718 l 588 718 l 588 626 l 585 626 q 492 712 551 686 q 367 738 433 738 q 224 706 285 738 q 124 620 164 674 q 64 497 83 567 q 44 354 44 428 q 74 178 44 250 q 147 63 103 107 q 245 1 192 19 q 349 -18 299 -18 q 478 7 415 -18 q 575 90 540 32 l 578 90 l 578 -251 l 775 -251 z "},"r":{"ha":540,"x_min":75,"x_max":538,"o":"m 75 718 l 75 0 l 272 0 l 272 324 q 282 414 272 372 q 315 487 292 456 q 375 536 338 518 q 467 554 413 554 q 504 552 485 554 q 538 547 524 550 l 538 731 q 494 738 514 738 q 422 726 457 738 q 357 695 388 715 q 303 647 326 675 q 265 585 279 618 l 263 585 l 263 718 l 75 718 z "},"s":{"ha":746,"x_min":40,"x_max":706,"o":"m 228 233 l 40 233 q 73 113 43 161 q 149 36 103 65 q 256 -6 196 7 q 378 -18 315 -18 q 498 -6 439 -18 q 603 35 557 6 q 677 112 649 64 q 706 231 706 160 q 686 315 706 281 q 635 372 667 349 q 562 408 603 394 q 478 432 521 422 q 396 450 436 442 q 324 469 356 458 q 274 496 293 479 q 254 539 254 513 q 265 574 254 561 q 292 594 276 588 q 328 603 308 601 q 364 606 347 606 q 456 585 417 606 q 499 508 494 565 l 686 508 q 652 619 681 575 q 581 689 624 663 q 483 726 538 715 q 369 738 428 738 q 256 727 311 738 q 156 691 200 717 q 84 621 111 665 q 57 507 57 576 q 76 427 57 460 q 128 373 96 394 q 201 338 160 351 q 285 315 242 325 q 449 271 390 293 q 508 204 508 249 q 496 160 508 178 q 465 133 483 143 q 423 117 446 122 q 379 113 400 113 q 323 119 350 113 q 275 141 296 126 q 241 178 254 156 q 228 233 228 201 z "},"t":{"ha":489,"x_min":8,"x_max":469,"o":"m 325 718 l 325 933 l 128 933 l 128 718 l 8 718 l 8 586 l 128 586 l 128 163 q 146 75 128 108 q 195 24 164 42 q 267 -1 226 6 q 354 -7 308 -7 q 414 -6 383 -7 q 469 0 444 -4 l 469 153 q 440 149 456 150 q 408 147 425 147 q 342 164 358 147 q 325 231 325 181 l 325 586 l 469 586 l 469 718 l 325 718 z "},"u":{"ha":824,"x_min":75,"x_max":749,"o":"m 749 0 l 749 718 l 551 718 l 551 342 q 515 184 551 232 q 399 136 479 136 q 300 180 328 136 q 272 313 272 224 l 272 718 l 75 718 l 75 276 q 87 155 75 210 q 128 62 99 100 q 208 3 157 24 q 338 -18 258 -18 q 460 10 400 -18 q 557 100 519 38 l 561 100 l 561 0 l 749 0 z "},"v":{"ha":722,"x_min":7,"x_max":715,"o":"m 472 0 l 715 718 l 519 718 l 368 228 l 365 228 l 214 718 l 7 718 l 253 0 l 472 0 z "},"w":{"ha":1131,"x_min":8,"x_max":1122,"o":"m 896 0 l 1122 718 l 919 718 l 788 232 l 785 232 l 663 718 l 471 718 l 351 231 l 349 231 l 217 718 l 8 718 l 236 0 l 440 0 l 563 482 l 565 482 l 693 0 l 896 0 z "},"x":{"ha":746,"x_min":0,"x_max":746,"o":"m 258 378 l 0 0 l 221 0 l 371 226 l 521 0 l 746 0 l 481 382 l 717 718 l 499 718 l 374 531 l 247 718 l 22 718 l 258 378 z "},"y":{"ha":721,"x_min":-7,"x_max":729,"o":"m 429 -89 l 729 718 l 525 718 l 368 226 l 365 226 l 203 718 l -7 718 l 244 44 q 253 0 253 24 q 234 -58 253 -32 q 176 -89 215 -85 q 118 -87 147 -90 q 61 -82 89 -85 l 61 -244 q 122 -249 92 -247 q 182 -251 151 -251 q 340 -214 283 -251 q 429 -89 397 -176 z "},"z":{"ha":721,"x_min":31,"x_max":690,"o":"m 31 149 l 31 0 l 690 0 l 690 149 l 290 149 l 664 569 l 664 718 l 58 718 l 58 569 l 404 569 l 31 149 z "},"{":{"ha":463,"x_min":-11,"x_max":463,"o":"m 463 860 l 463 1015 l 286 1015 q 233 1003 263 1015 q 177 969 203 992 q 133 910 151 946 q 115 828 115 875 l 115 567 q 101 508 115 532 q 68 469 88 483 q 26 448 49 454 q -11 442 4 442 l -11 321 q 26 315 4 321 q 68 295 49 308 q 101 260 88 282 q 115 206 115 238 l 115 -64 q 133 -147 115 -111 q 177 -205 151 -182 q 233 -240 203 -228 q 286 -251 263 -251 l 463 -251 l 463 -96 l 388 -96 q 348 -86 363 -96 q 325 -62 333 -76 q 315 -29 317 -47 q 313 4 313 -11 l 313 226 q 297 299 313 271 q 259 345 281 328 q 214 370 238 363 q 175 379 190 378 l 175 383 q 214 392 190 385 q 259 416 238 399 q 297 465 281 433 q 313 547 313 496 l 313 758 q 315 793 313 775 q 325 826 317 811 q 348 850 333 840 q 388 860 363 860 l 463 860 z "},"|":{"ha":310,"x_min":81,"x_max":229,"o":"m 81 1092 l 81 -296 l 229 -296 l 229 1092 l 81 1092 z "},"}":{"ha":463,"x_min":0,"x_max":475,"o":"m 0 -96 l 0 -251 l 176 -251 q 230 -240 200 -251 q 285 -205 260 -228 q 329 -147 311 -182 q 347 -64 347 -111 l 347 206 q 361 260 347 238 q 394 295 375 282 q 436 315 414 308 q 475 321 458 321 l 475 442 q 436 448 458 442 q 394 469 414 454 q 361 508 375 483 q 347 567 347 532 l 347 828 q 329 910 347 875 q 285 969 311 946 q 230 1003 260 992 q 176 1015 200 1015 l 0 1015 l 0 860 l 75 860 q 115 850 100 860 q 138 826 129 840 q 148 793 146 811 q 150 758 150 775 l 150 547 q 166 465 150 496 q 203 416 182 433 q 249 392 225 399 q 288 383 272 385 l 288 379 q 249 370 272 378 q 203 345 225 363 q 166 299 182 328 q 150 226 150 271 l 150 4 q 148 -29 150 -11 q 138 -62 146 -47 q 115 -86 129 -76 q 75 -96 100 -96 l 0 -96 z "},"~":{"ha":833,"x_min":93,"x_max":740,"o":"m 740 349 l 685 478 q 660 442 672 460 q 633 410 647 424 q 601 387 618 396 q 563 378 583 378 q 497 394 535 378 q 421 428 460 411 q 342 459 381 446 q 267 472 303 472 q 205 462 232 472 q 156 435 178 451 q 119 397 135 418 q 93 353 104 375 l 149 224 q 167 260 157 242 q 192 292 178 278 q 225 315 207 306 q 265 324 243 324 q 353 309 314 324 q 425 275 392 294 q 494 242 460 256 q 567 229 528 229 q 624 240 599 229 q 671 267 650 250 q 708 305 692 283 q 740 349 725 326 z "}," ":{"ha":386,"x_min":0,"x_max":0,"o":""},"¡":{"ha":386,"x_min":85,"x_max":303,"o":"m 90 13 l 90 -253 l 296 -253 l 296 13 l 243 440 l 144 440 l 90 13 m 303 524 l 303 738 l 85 738 l 85 524 l 303 524 z "},"¢":{"ha":772,"x_min":29,"x_max":757,"o":"m 361 -18 l 361 -158 l 443 -158 l 443 -18 q 562 10 507 -12 q 658 70 617 32 q 726 162 700 108 q 757 282 751 215 l 564 282 q 554 230 564 256 q 528 183 544 204 q 490 148 513 163 q 443 129 468 133 l 443 589 q 524 549 490 585 q 561 464 557 514 l 754 464 q 724 577 751 526 q 653 663 697 628 q 555 718 610 699 q 443 738 500 738 l 443 856 l 361 856 l 361 738 q 219 699 281 731 q 115 615 157 667 q 51 494 72 563 q 29 347 29 426 q 53 209 29 274 q 120 95 76 144 q 225 16 164 46 q 361 -18 286 -14 m 361 588 l 361 129 q 297 166 322 142 q 256 223 271 190 q 233 292 240 256 q 226 367 226 329 q 233 438 226 403 q 256 503 240 474 q 298 556 272 533 q 361 588 324 578 z "},"£":{"ha":772,"x_min":29,"x_max":788,"o":"m 36 106 l 122 -22 q 203 19 163 8 q 282 29 244 29 q 358 21 328 29 q 419 1 389 13 q 483 -15 449 -8 q 571 -22 518 -22 q 681 -3 624 -22 q 788 65 738 17 l 704 206 q 638 156 667 165 q 582 146 610 146 q 528 151 554 146 q 474 163 501 156 q 419 173 446 168 q 364 178 392 178 q 324 172 344 178 q 269 146 303 167 l 267 149 q 347 231 313 185 q 381 343 381 278 q 378 388 381 367 q 369 429 376 408 l 515 429 l 515 547 l 331 547 q 298 611 310 585 q 281 658 286 638 q 275 693 276 678 q 274 725 274 708 q 310 818 274 783 q 410 853 347 853 q 492 831 463 853 q 537 781 522 810 q 556 720 551 751 q 561 668 560 689 l 749 668 q 660 926 749 838 q 411 1015 571 1015 q 257 993 324 1015 q 146 933 190 971 q 78 844 101 894 q 56 739 56 794 q 76 625 56 676 q 118 547 97 574 l 29 547 l 29 429 l 167 429 q 185 383 178 406 q 193 336 193 360 q 179 265 193 299 q 144 201 165 231 q 94 148 122 172 q 36 106 65 124 z "},"¤":{"ha":772,"x_min":28,"x_max":744,"o":"m 389 682 q 463 665 431 682 q 515 622 494 649 q 547 559 536 594 q 557 488 557 524 q 547 415 557 450 q 515 351 536 379 q 463 307 494 324 q 388 290 431 290 q 312 306 344 290 q 257 349 279 322 q 224 412 235 376 q 213 485 213 447 q 224 559 213 524 q 257 622 235 594 q 313 665 279 649 q 389 682 346 682 m 107 288 l 28 207 l 106 129 l 183 210 q 272 159 219 176 q 388 142 325 142 q 499 160 446 142 q 586 211 551 178 l 665 131 l 742 207 l 665 285 q 713 376 697 324 q 729 488 729 429 q 713 599 729 546 q 667 686 697 653 l 744 763 l 660 847 l 579 768 q 496 813 547 796 q 389 831 444 831 q 276 813 331 831 q 186 767 221 796 l 107 844 l 28 765 l 107 685 q 56 597 72 650 q 40 485 40 543 q 107 288 40 365 z "},"¥":{"ha":772,"x_min":-11,"x_max":801,"o":"m 288 0 l 499 0 l 499 192 l 718 192 l 718 324 l 499 324 l 499 388 l 519 428 l 718 428 l 718 560 l 586 560 l 801 992 l 576 992 l 397 560 l 214 992 l -11 992 l 201 560 l 69 560 l 69 428 l 268 428 l 288 388 l 288 324 l 69 324 l 69 192 l 288 192 l 288 0 z "},"¦":{"ha":310,"x_min":81,"x_max":229,"o":"m 229 571 l 229 918 l 81 918 l 81 571 l 229 571 m 81 224 l 81 -122 l 229 -122 l 229 224 l 81 224 z "},"§":{"ha":772,"x_min":14,"x_max":758,"o":"m 514 747 l 686 747 q 663 862 686 813 q 601 946 640 911 q 508 998 561 981 q 393 1015 454 1015 q 288 1000 340 1015 q 195 954 236 985 q 128 878 154 924 q 103 775 103 833 q 118 699 103 731 q 163 635 133 667 q 53 558 92 610 q 14 432 14 507 q 50 315 14 364 q 140 231 86 267 q 257 167 194 194 q 372 114 319 140 q 460 58 425 88 q 493 -11 494 29 q 463 -80 493 -57 q 390 -103 433 -103 q 292 -73 328 -103 q 254 17 257 -43 l 82 17 q 106 -103 82 -53 q 172 -187 129 -154 q 271 -235 214 -219 q 394 -251 328 -251 q 500 -237 447 -251 q 595 -193 553 -222 q 664 -120 638 -164 q 690 -18 690 -76 q 672 72 690 31 q 614 144 654 114 q 719 222 681 168 q 758 347 758 276 q 724 459 758 413 q 639 541 690 506 q 526 603 588 576 q 413 656 465 629 q 326 710 361 682 q 290 778 292 739 q 324 843 290 819 q 396 867 358 867 q 483 833 451 867 q 514 747 514 799 m 294 528 l 524 399 q 567 364 549 385 q 586 311 586 343 q 581 287 586 300 q 568 262 576 274 q 548 242 560 250 q 522 235 536 235 q 499 238 510 235 q 481 244 488 242 l 231 381 q 197 411 207 393 q 186 449 186 429 q 192 480 186 464 q 206 509 197 496 q 228 531 215 522 q 257 542 242 540 q 277 538 268 543 q 294 528 286 532 z "},"¨":{"ha":360,"x_min":-56,"x_max":417,"o":"m 131 992 l 131 829 l -56 829 l -56 992 l 131 992 m 417 992 l 417 829 l 229 829 l 229 992 l 417 992 z "},"©":{"ha":1111,"x_min":22,"x_max":1089,"o":"m 828 410 l 715 410 q 671 331 708 360 q 575 301 633 301 q 507 317 538 301 q 455 360 476 333 q 422 424 433 388 q 410 501 410 461 q 451 644 410 589 q 572 699 493 699 q 665 671 626 699 q 715 594 704 643 l 824 594 q 794 688 817 647 q 739 755 772 728 q 663 796 706 782 q 572 810 621 810 q 448 786 503 810 q 355 721 393 763 q 297 622 317 679 q 276 499 276 565 q 298 377 276 433 q 358 279 319 321 q 452 214 397 238 q 575 190 507 190 q 663 205 621 190 q 740 248 706 219 q 797 317 774 276 q 828 410 819 358 m 164 496 q 194 660 164 585 q 278 789 225 735 q 402 874 331 843 q 556 904 474 904 q 708 874 636 904 q 832 789 779 843 q 916 660 885 735 q 947 496 947 585 q 916 332 947 407 q 832 203 885 257 q 708 118 779 149 q 556 88 636 88 q 402 118 474 88 q 278 203 331 149 q 194 332 225 257 q 164 496 164 407 m 22 496 q 66 282 22 378 q 183 118 110 186 q 353 14 257 50 q 556 -22 450 -22 q 758 14 661 -22 q 928 118 854 50 q 1045 282 1001 186 q 1089 496 1089 378 q 1045 711 1089 615 q 928 874 1001 807 q 758 978 854 942 q 556 1015 661 1015 q 353 978 450 1015 q 183 874 257 942 q 66 711 110 807 q 22 496 22 615 z "},"ª":{"ha":478,"x_min":14,"x_max":469,"o":"m 28 840 l 169 840 q 193 887 172 872 q 238 901 214 901 q 297 892 272 901 q 321 847 321 883 q 309 822 321 831 q 278 808 297 813 q 231 801 258 803 q 172 794 204 799 q 115 783 143 790 q 64 762 86 776 q 28 723 42 747 q 14 660 14 699 q 59 553 14 586 q 169 521 104 521 q 248 533 207 521 q 319 576 289 544 q 324 555 321 565 q 329 533 326 544 l 469 533 q 453 638 453 565 l 453 868 q 434 931 453 907 q 385 969 415 956 q 318 987 356 982 q 244 992 281 992 q 169 985 206 992 q 104 961 133 978 q 55 915 75 944 q 28 840 35 886 m 319 743 l 319 715 q 317 681 319 699 q 303 647 314 663 q 273 622 293 632 q 218 611 253 611 q 177 622 199 611 q 156 663 156 632 q 176 700 156 689 q 226 718 197 711 q 276 726 247 722 q 319 743 304 729 z "},"«":{"ha":617,"x_min":58,"x_max":558,"o":"m 58 285 l 276 111 l 276 278 l 151 378 l 276 476 l 276 643 l 58 472 l 58 285 m 340 285 l 558 111 l 558 278 l 433 378 l 558 476 l 558 643 l 340 472 l 340 285 z "},"¬":{"ha":833,"x_min":67,"x_max":767,"o":"m 767 138 l 767 564 l 67 564 l 67 415 l 618 415 l 618 138 l 767 138 z "},"®":{"ha":1111,"x_min":22,"x_max":1089,"o":"m 464 546 l 464 699 l 561 699 q 602 696 581 699 q 641 685 624 693 q 669 664 658 678 q 681 626 681 650 q 649 560 681 574 q 567 546 617 546 l 464 546 m 349 789 l 349 207 l 464 207 l 464 456 l 536 456 l 678 207 l 799 207 l 643 461 q 703 474 675 464 q 751 501 731 483 q 784 548 772 519 q 796 617 796 576 q 737 750 796 711 q 568 789 678 789 l 349 789 m 164 497 q 194 660 164 586 q 278 789 225 735 q 402 874 331 843 q 556 904 474 904 q 708 874 636 904 q 832 789 779 843 q 916 660 885 735 q 947 497 947 586 q 916 333 947 408 q 832 203 885 258 q 708 118 779 149 q 556 88 636 88 q 402 118 474 88 q 278 203 331 149 q 194 333 225 258 q 164 497 164 408 m 22 497 q 66 282 22 378 q 183 118 110 186 q 353 14 257 50 q 556 -22 450 -22 q 758 14 661 -22 q 928 118 854 50 q 1045 282 1001 186 q 1089 497 1089 378 q 1045 711 1089 615 q 928 874 1001 807 q 758 978 854 942 q 556 1015 661 1015 q 353 978 450 1015 q 183 874 257 942 q 66 711 110 807 q 22 497 22 615 z "},"¯":{"ha":360,"x_min":-78,"x_max":439,"o":"m 439 960 l 439 856 l -78 856 l -78 960 l 439 960 z "},"°":{"ha":556,"x_min":72,"x_max":483,"o":"m 163 786 q 172 833 163 811 q 198 872 182 856 q 235 899 214 889 q 278 908 256 908 q 321 899 300 908 q 358 872 342 889 q 383 833 374 856 q 393 786 393 811 q 383 739 393 761 q 358 700 374 717 q 321 674 342 683 q 278 664 300 664 q 235 674 256 664 q 198 700 214 683 q 172 739 182 717 q 163 786 163 761 m 72 786 q 88 706 72 743 q 132 640 104 668 q 197 597 160 613 q 278 581 235 581 q 358 597 321 581 q 424 640 396 613 q 467 706 451 668 q 483 786 483 743 q 467 867 483 829 q 424 932 451 904 q 358 976 396 960 q 278 992 321 992 q 197 976 235 992 q 132 932 160 960 q 88 867 104 904 q 72 786 72 829 z "},"±":{"ha":833,"x_min":67,"x_max":768,"o":"m 67 149 l 67 0 l 768 0 l 768 149 l 67 149 m 492 521 l 492 703 l 343 703 l 343 521 l 67 521 l 67 372 l 343 372 l 343 190 l 492 190 l 492 372 l 768 372 l 768 521 l 492 521 z "},"²":{"ha":544,"x_min":38,"x_max":507,"o":"m 39 750 l 181 750 q 184 794 179 771 q 201 836 189 817 q 232 868 213 856 q 281 881 251 881 q 342 856 319 881 q 365 794 365 831 q 352 747 365 768 q 319 710 339 726 q 276 679 299 693 q 232 651 253 665 q 156 601 192 626 q 94 545 121 576 q 53 474 68 514 q 38 379 38 435 l 501 379 l 501 490 l 211 490 q 297 567 247 538 q 394 628 347 597 q 474 698 442 658 q 507 804 507 738 q 490 885 507 850 q 442 944 472 921 q 374 980 413 968 q 290 992 335 992 q 100 924 163 992 q 39 750 38 857 z "},"³":{"ha":544,"x_min":31,"x_max":514,"o":"m 228 742 l 228 644 q 276 643 251 644 q 323 635 301 642 q 358 611 344 628 q 372 565 372 594 q 342 502 372 526 q 271 478 313 478 q 192 511 218 478 q 164 589 167 544 l 31 589 q 94 424 28 481 q 274 367 161 367 q 366 379 322 367 q 442 417 410 392 q 494 481 475 443 q 514 568 514 518 q 484 653 514 617 q 401 699 454 689 l 401 701 q 470 746 447 713 q 493 821 493 779 q 474 896 493 864 q 424 949 456 928 q 353 981 393 971 q 272 992 314 992 q 109 935 168 992 q 47 781 50 878 l 181 781 q 204 851 179 822 q 274 881 229 881 q 333 861 307 881 q 360 807 360 842 q 347 769 360 782 q 313 749 333 756 q 270 742 293 743 q 228 742 247 742 z "},"´":{"ha":360,"x_min":75,"x_max":426,"o":"m 75 807 l 208 1004 l 426 1004 l 213 807 l 75 807 z "},"µ":{"ha":824,"x_min":75,"x_max":749,"o":"m 749 0 l 749 718 l 551 718 l 551 342 q 515 184 551 232 q 399 136 479 136 q 300 180 328 136 q 272 313 272 224 l 272 718 l 75 718 l 75 -251 l 272 -251 l 272 14 q 310 -9 285 0 q 376 -18 335 -18 q 416 -11 393 -18 q 464 10 439 -4 q 513 47 489 25 q 557 100 538 69 l 561 100 l 561 0 l 749 0 z "},"¶":{"ha":861,"x_min":3,"x_max":743,"o":"m 307 496 l 307 -229 l 449 -229 l 449 881 l 601 881 l 601 -229 l 743 -229 l 743 992 l 336 992 q 203 979 264 992 q 97 938 142 967 q 28 860 53 908 q 3 739 3 811 q 81 561 3 626 q 307 496 160 496 z "},"·":{"ha":386,"x_min":76,"x_max":311,"o":"m 76 399 q 86 353 76 375 q 112 316 96 332 q 149 291 128 300 q 196 282 171 282 q 240 292 219 282 q 276 318 261 301 q 301 356 292 335 q 311 399 311 376 q 301 445 311 424 q 276 483 292 467 q 239 508 260 499 q 194 517 218 517 q 112 483 147 517 q 76 399 76 449 z "},"¸":{"ha":360,"x_min":17,"x_max":351,"o":"m 46 -204 l 17 -271 q 53 -283 36 -278 q 90 -293 71 -289 q 132 -299 108 -297 q 189 -301 156 -301 q 249 -295 219 -301 q 301 -273 278 -289 q 338 -230 324 -257 q 351 -162 351 -203 q 340 -119 351 -137 q 311 -88 329 -100 q 270 -71 293 -76 q 224 -65 247 -65 q 176 -72 193 -65 l 174 -72 l 228 3 l 160 3 l 78 -114 l 107 -147 q 163 -137 132 -137 q 202 -147 186 -137 q 218 -182 218 -156 q 203 -218 218 -207 q 163 -229 188 -229 q 97 -222 126 -229 q 46 -204 68 -214 z "},"¹":{"ha":544,"x_min":107,"x_max":401,"o":"m 401 379 l 401 979 l 285 979 q 265 923 281 946 q 224 887 249 900 q 170 868 200 874 q 107 864 140 863 l 107 760 l 260 760 l 260 379 l 401 379 z "},"º":{"ha":510,"x_min":17,"x_max":493,"o":"m 165 756 q 170 803 165 779 q 186 845 175 826 q 214 876 197 864 q 254 888 231 888 q 295 876 278 888 q 324 845 313 864 q 340 803 335 826 q 344 756 344 779 q 340 710 344 733 q 324 667 335 686 q 295 637 313 649 q 254 625 278 625 q 214 637 231 625 q 186 667 197 649 q 170 710 175 686 q 165 756 165 733 m 17 756 q 81 583 17 646 q 254 521 146 521 q 428 583 363 521 q 493 756 493 646 q 428 928 493 865 q 254 992 363 992 q 81 928 146 992 q 17 756 17 865 z "},"»":{"ha":617,"x_min":58,"x_max":558,"o":"m 276 472 l 58 643 l 58 476 l 183 378 l 58 278 l 58 111 l 276 285 l 276 472 m 558 472 l 340 643 l 340 476 l 465 378 l 340 278 l 340 111 l 558 285 l 558 472 z "},"¼":{"ha":1239,"x_min":33,"x_max":1169,"o":"m 957 435 l 957 235 l 796 235 l 954 435 l 957 435 m 957 124 l 957 0 l 1090 0 l 1090 124 l 1169 124 l 1169 235 l 1090 235 l 1090 583 l 951 583 l 690 253 l 690 124 l 957 124 m 328 379 l 328 979 l 211 979 q 191 923 207 946 q 151 887 175 900 q 97 868 126 874 q 33 864 67 863 l 33 760 l 186 760 l 186 379 l 328 379 m 786 1003 l 211 -29 l 332 -29 l 904 1003 l 786 1003 z "},"½":{"ha":1235,"x_min":33,"x_max":1175,"o":"m 707 371 l 849 371 q 852 415 847 392 q 869 457 857 438 q 900 489 881 476 q 949 501 919 501 q 1010 476 988 501 q 1033 415 1033 451 q 1020 368 1033 389 q 987 331 1007 347 q 944 300 967 314 q 900 272 921 286 q 824 222 860 247 q 763 166 789 197 q 721 95 736 135 q 706 0 706 56 l 1169 0 l 1169 111 l 879 111 q 965 188 915 158 q 1063 249 1015 218 q 1142 319 1110 279 q 1175 425 1175 358 q 1158 506 1175 471 q 1110 565 1140 542 q 1042 601 1081 589 q 958 613 1003 613 q 768 545 831 613 q 707 371 706 478 m 328 379 l 328 979 l 211 979 q 191 923 207 946 q 151 887 175 900 q 97 868 126 874 q 33 864 67 863 l 33 760 l 186 760 l 186 379 l 328 379 m 786 1003 l 211 -29 l 332 -29 l 904 1003 l 786 1003 z "},"¾":{"ha":1235,"x_min":54,"x_max":1197,"o":"m 985 435 l 985 235 l 824 235 l 982 435 l 985 435 m 985 124 l 985 0 l 1118 0 l 1118 124 l 1197 124 l 1197 235 l 1118 235 l 1118 583 l 979 583 l 718 253 l 718 124 l 985 124 m 251 742 l 251 644 q 300 643 275 644 q 347 635 325 642 q 382 611 368 628 q 396 565 396 594 q 366 502 396 526 q 294 478 336 478 q 216 511 242 478 q 188 589 190 544 l 54 589 q 118 424 51 481 q 297 367 185 367 q 390 379 346 367 q 466 417 433 392 q 518 481 499 443 q 538 568 538 518 q 508 653 538 617 q 425 699 478 689 l 425 701 q 494 746 471 713 q 517 821 517 779 q 498 896 517 864 q 448 949 479 928 q 377 981 417 971 q 296 992 338 992 q 133 935 192 992 q 71 781 74 878 l 204 781 q 228 851 203 822 q 297 881 253 881 q 357 861 331 881 q 383 807 383 842 q 370 769 383 782 q 337 749 357 756 q 294 742 317 743 q 251 742 271 742 m 907 1003 l 332 -29 l 453 -29 l 1025 1003 l 907 1003 z "},"¿":{"ha":772,"x_min":44,"x_max":725,"o":"m 504 524 l 504 738 l 286 738 l 286 524 l 504 524 m 725 71 l 521 71 q 513 2 521 35 q 487 -55 504 -31 q 443 -94 469 -79 q 381 -108 417 -108 q 294 -78 325 -108 q 263 15 263 -47 q 276 78 261 53 q 314 124 290 103 q 365 165 338 144 q 418 215 393 186 q 462 283 443 243 q 485 383 481 324 l 485 446 l 297 446 l 297 393 q 271 324 292 351 q 222 274 250 296 q 163 231 193 251 q 106 179 132 210 q 62 106 79 149 q 44 -3 44 63 q 62 -90 44 -43 q 119 -176 79 -136 q 226 -244 160 -217 q 390 -271 293 -271 q 526 -245 465 -271 q 631 -174 588 -219 q 699 -65 675 -128 q 725 71 724 -3 z "},"À":{"ha":951,"x_min":-8,"x_max":961,"o":"m 229 1278 l 443 1081 l 581 1081 l 447 1278 l 229 1278 m 346 383 l 475 747 l 478 747 l 603 383 l 346 383 m 367 992 l -8 0 l 211 0 l 289 221 l 660 221 l 735 0 l 961 0 l 590 992 l 367 992 z "},"Á":{"ha":951,"x_min":-8,"x_max":961,"o":"m 508 1081 l 722 1278 l 504 1278 l 371 1081 l 508 1081 m 346 383 l 475 747 l 478 747 l 603 383 l 346 383 m 367 992 l -8 0 l 211 0 l 289 221 l 660 221 l 735 0 l 961 0 l 590 992 l 367 992 z "},"Â":{"ha":951,"x_min":-8,"x_max":961,"o":"m 386 1278 l 232 1081 l 382 1081 l 471 1193 l 557 1081 l 719 1081 l 567 1278 l 386 1278 m 346 383 l 475 747 l 478 747 l 603 383 l 346 383 m 367 992 l -8 0 l 211 0 l 289 221 l 660 221 l 735 0 l 961 0 l 590 992 l 367 992 z "},"Ã":{"ha":951,"x_min":-8,"x_max":961,"o":"m 731 1265 l 635 1265 q 622 1231 636 1246 q 576 1217 608 1217 q 530 1224 553 1217 q 485 1242 507 1232 q 441 1258 463 1250 q 396 1265 419 1265 q 319 1250 350 1265 q 269 1210 289 1235 q 239 1156 250 1186 q 221 1096 228 1126 l 306 1096 q 324 1138 313 1122 q 364 1154 336 1154 q 411 1147 388 1154 q 461 1131 435 1140 q 515 1115 488 1122 q 575 1107 543 1107 q 644 1123 617 1107 q 688 1163 671 1139 q 715 1214 706 1186 q 731 1265 724 1242 m 346 383 l 475 747 l 478 747 l 603 383 l 346 383 m 367 992 l -8 0 l 211 0 l 289 221 l 660 221 l 735 0 l 961 0 l 590 992 l 367 992 z "},"Ä":{"ha":951,"x_min":-8,"x_max":961,"o":"m 239 1265 l 239 1103 l 426 1103 l 426 1265 l 239 1265 m 525 1265 l 525 1103 l 713 1103 l 713 1265 l 525 1265 m 346 383 l 475 747 l 478 747 l 603 383 l 346 383 m 367 992 l -8 0 l 211 0 l 289 221 l 660 221 l 735 0 l 961 0 l 590 992 l 367 992 z "},"Å":{"ha":951,"x_min":-8,"x_max":961,"o":"m 306 1185 q 319 1119 306 1150 q 355 1065 332 1088 q 409 1028 378 1042 q 475 1015 440 1015 q 542 1028 511 1015 q 596 1065 572 1042 q 633 1119 619 1088 q 646 1185 646 1150 q 633 1251 646 1221 q 596 1305 619 1282 q 542 1341 572 1328 q 475 1354 511 1354 q 409 1341 440 1354 q 355 1305 378 1328 q 319 1251 332 1282 q 306 1185 306 1221 m 388 1185 q 411 1253 388 1225 q 475 1282 435 1282 q 540 1253 515 1282 q 564 1185 564 1225 q 540 1116 564 1144 q 475 1088 515 1088 q 411 1116 435 1088 q 388 1185 388 1144 m 346 383 l 475 747 l 478 747 l 603 383 l 346 383 m 367 992 l -8 0 l 211 0 l 289 221 l 660 221 l 735 0 l 961 0 l 590 992 l 367 992 z "},"Æ":{"ha":1363,"x_min":-14,"x_max":1311,"o":"m 458 992 l -14 0 l 217 0 l 317 221 l 628 221 l 628 0 l 1311 0 l 1311 183 l 839 183 l 839 426 l 1272 426 l 1272 596 l 839 596 l 839 808 l 1300 808 l 1300 992 l 458 992 m 389 383 l 581 808 l 628 808 l 628 383 l 389 383 z "},"Ç":{"ha":1029,"x_min":53,"x_max":976,"o":"m 757 658 l 968 658 q 921 811 958 744 q 826 923 883 878 q 695 992 768 968 q 540 1015 622 1015 q 335 975 426 1015 q 182 864 244 935 q 86 698 119 793 q 53 492 53 603 q 81 303 53 392 q 165 147 110 215 q 299 35 219 79 q 479 -18 378 -8 l 413 -114 l 442 -147 q 497 -137 467 -137 q 537 -147 521 -137 q 553 -182 553 -156 q 538 -218 553 -207 q 497 -229 522 -229 q 432 -222 461 -229 q 381 -204 403 -214 l 351 -271 q 388 -283 371 -278 q 424 -293 406 -289 q 467 -299 443 -297 q 524 -301 490 -301 q 583 -295 554 -301 q 635 -273 613 -289 q 672 -230 658 -257 q 686 -162 686 -203 q 675 -119 686 -137 q 646 -88 664 -100 q 605 -71 628 -76 q 558 -65 582 -65 q 511 -72 528 -65 l 508 -72 l 544 -22 q 710 8 635 -21 q 842 88 786 36 q 933 215 899 140 q 976 382 968 289 l 765 382 q 697 221 753 282 q 540 160 640 160 q 415 188 467 160 q 332 264 364 217 q 285 370 300 311 q 271 492 271 429 q 285 618 271 557 q 332 727 300 679 q 415 803 364 775 q 540 832 467 832 q 617 819 581 832 q 683 782 654 806 q 732 727 713 758 q 757 658 751 696 z "},"È":{"ha":900,"x_min":96,"x_max":849,"o":"m 204 1278 l 418 1081 l 556 1081 l 422 1278 l 204 1278 m 96 992 l 96 0 l 849 0 l 849 183 l 314 183 l 314 426 l 794 426 l 794 596 l 314 596 l 314 808 l 838 808 l 838 992 l 96 992 z "},"É":{"ha":900,"x_min":96,"x_max":849,"o":"m 483 1081 l 697 1278 l 479 1278 l 346 1081 l 483 1081 m 96 992 l 96 0 l 849 0 l 849 183 l 314 183 l 314 426 l 794 426 l 794 596 l 314 596 l 314 808 l 838 808 l 838 992 l 96 992 z "},"Ê":{"ha":900,"x_min":96,"x_max":849,"o":"m 361 1278 l 207 1081 l 357 1081 l 446 1193 l 532 1081 l 694 1081 l 542 1278 l 361 1278 m 96 992 l 96 0 l 849 0 l 849 183 l 314 183 l 314 426 l 794 426 l 794 596 l 314 596 l 314 808 l 838 808 l 838 992 l 96 992 z "},"Ë":{"ha":900,"x_min":96,"x_max":849,"o":"m 214 1265 l 214 1103 l 401 1103 l 401 1265 l 214 1265 m 500 1265 l 500 1103 l 688 1103 l 688 1265 l 500 1265 m 96 992 l 96 0 l 849 0 l 849 183 l 314 183 l 314 426 l 794 426 l 794 596 l 314 596 l 314 808 l 838 808 l 838 992 l 96 992 z "},"Ì":{"ha":410,"x_min":-40,"x_max":314,"o":"m -40 1278 l 172 1081 l 310 1081 l 176 1278 l -40 1278 m 96 992 l 96 0 l 314 0 l 314 992 l 96 992 z "},"Í":{"ha":410,"x_min":96,"x_max":451,"o":"m 238 1081 l 451 1278 l 233 1278 l 100 1081 l 238 1081 m 96 992 l 96 0 l 314 0 l 314 992 l 96 992 z "},"Î":{"ha":410,"x_min":-37,"x_max":449,"o":"m 115 1278 l -37 1081 l 111 1081 l 200 1193 l 286 1081 l 449 1081 l 296 1278 l 115 1278 m 96 992 l 96 0 l 314 0 l 314 992 l 96 992 z "},"Ï":{"ha":410,"x_min":-31,"x_max":442,"o":"m -31 1265 l -31 1103 l 156 1103 l 156 1265 l -31 1265 m 254 1265 l 254 1103 l 442 1103 l 442 1265 l 254 1265 m 96 992 l 96 0 l 314 0 l 314 992 l 96 992 z "},"Ð":{"ha":1029,"x_min":4,"x_max":974,"o":"m 314 593 l 314 808 l 469 808 q 605 785 550 808 q 693 719 660 763 q 741 616 726 676 q 756 481 756 556 q 735 342 756 399 q 679 249 714 285 q 600 199 644 214 q 508 183 556 183 l 314 183 l 314 431 l 536 431 l 536 593 l 314 593 m 96 432 l 96 0 l 524 0 q 722 38 638 0 q 862 143 806 76 q 946 301 918 210 q 974 501 974 393 q 940 717 974 625 q 845 869 906 808 q 702 961 785 931 q 524 992 619 992 l 96 992 l 96 593 l 4 593 l 4 432 l 96 432 z "},"Ñ":{"ha":1029,"x_min":96,"x_max":933,"o":"m 769 1265 l 674 1265 q 661 1231 675 1246 q 615 1217 647 1217 q 569 1224 592 1217 q 524 1242 546 1232 q 480 1258 501 1250 q 435 1265 458 1265 q 358 1250 389 1265 q 308 1210 328 1235 q 278 1156 289 1186 q 260 1096 267 1126 l 344 1096 q 363 1138 351 1122 q 403 1154 375 1154 q 450 1147 426 1154 q 500 1131 474 1140 q 554 1115 526 1122 q 614 1107 582 1107 q 683 1123 656 1107 q 727 1163 710 1139 q 753 1214 744 1186 q 769 1265 763 1242 m 96 992 l 96 0 l 300 0 l 300 664 l 303 664 l 715 0 l 933 0 l 933 992 l 729 992 l 729 326 l 726 326 l 313 992 l 96 992 z "},"Ò":{"ha":1081,"x_min":53,"x_max":1028,"o":"m 294 1278 l 508 1081 l 646 1081 l 513 1278 l 294 1278 m 271 492 q 285 618 271 557 q 332 727 300 679 q 415 803 364 775 q 540 832 467 832 q 665 803 614 832 q 749 727 717 775 q 795 618 781 679 q 810 492 810 557 q 795 370 810 429 q 749 264 781 311 q 665 188 717 217 q 540 160 614 160 q 415 188 467 160 q 332 264 364 217 q 285 370 300 311 q 271 492 271 429 m 53 492 q 86 290 53 383 q 182 126 119 196 q 335 17 244 57 q 540 -22 426 -22 q 746 17 656 -22 q 899 126 836 57 q 994 290 961 196 q 1028 492 1028 383 q 994 698 1028 603 q 899 864 961 793 q 746 975 836 935 q 540 1015 656 1015 q 335 975 426 1015 q 182 864 244 935 q 86 698 119 793 q 53 492 53 603 z "},"Ó":{"ha":1081,"x_min":53,"x_max":1028,"o":"m 574 1081 l 788 1278 l 569 1278 l 436 1081 l 574 1081 m 271 492 q 285 618 271 557 q 332 727 300 679 q 415 803 364 775 q 540 832 467 832 q 665 803 614 832 q 749 727 717 775 q 795 618 781 679 q 810 492 810 557 q 795 370 810 429 q 749 264 781 311 q 665 188 717 217 q 540 160 614 160 q 415 188 467 160 q 332 264 364 217 q 285 370 300 311 q 271 492 271 429 m 53 492 q 86 290 53 383 q 182 126 119 196 q 335 17 244 57 q 540 -22 426 -22 q 746 17 656 -22 q 899 126 836 57 q 994 290 961 196 q 1028 492 1028 383 q 994 698 1028 603 q 899 864 961 793 q 746 975 836 935 q 540 1015 656 1015 q 335 975 426 1015 q 182 864 244 935 q 86 698 119 793 q 53 492 53 603 z "},"Ô":{"ha":1081,"x_min":53,"x_max":1028,"o":"m 451 1278 l 297 1081 l 447 1081 l 536 1193 l 622 1081 l 785 1081 l 632 1278 l 451 1278 m 271 492 q 285 618 271 557 q 332 727 300 679 q 415 803 364 775 q 540 832 467 832 q 665 803 614 832 q 749 727 717 775 q 795 618 781 679 q 810 492 810 557 q 795 370 810 429 q 749 264 781 311 q 665 188 717 217 q 540 160 614 160 q 415 188 467 160 q 332 264 364 217 q 285 370 300 311 q 271 492 271 429 m 53 492 q 86 290 53 383 q 182 126 119 196 q 335 17 244 57 q 540 -22 426 -22 q 746 17 656 -22 q 899 126 836 57 q 994 290 961 196 q 1028 492 1028 383 q 994 698 1028 603 q 899 864 961 793 q 746 975 836 935 q 540 1015 656 1015 q 335 975 426 1015 q 182 864 244 935 q 86 698 119 793 q 53 492 53 603 z "},"Õ":{"ha":1081,"x_min":53,"x_max":1028,"o":"m 796 1265 l 700 1265 q 688 1231 701 1246 q 642 1217 674 1217 q 595 1224 618 1217 q 550 1242 572 1232 q 506 1258 528 1250 q 461 1265 485 1265 q 385 1250 415 1265 q 335 1210 354 1235 q 304 1156 315 1186 q 286 1096 293 1126 l 371 1096 q 390 1138 378 1122 q 429 1154 401 1154 q 476 1147 453 1154 q 526 1131 500 1140 q 581 1115 553 1122 q 640 1107 608 1107 q 709 1123 682 1107 q 753 1163 736 1139 q 780 1214 771 1186 q 796 1265 789 1242 m 271 492 q 285 618 271 557 q 332 727 300 679 q 415 803 364 775 q 540 832 467 832 q 665 803 614 832 q 749 727 717 775 q 795 618 781 679 q 810 492 810 557 q 795 370 810 429 q 749 264 781 311 q 665 188 717 217 q 540 160 614 160 q 415 188 467 160 q 332 264 364 217 q 285 370 300 311 q 271 492 271 429 m 53 492 q 86 290 53 383 q 182 126 119 196 q 335 17 244 57 q 540 -22 426 -22 q 746 17 656 -22 q 899 126 836 57 q 994 290 961 196 q 1028 492 1028 383 q 994 698 1028 603 q 899 864 961 793 q 746 975 836 935 q 540 1015 656 1015 q 335 975 426 1015 q 182 864 244 935 q 86 698 119 793 q 53 492 53 603 z "},"Ö":{"ha":1081,"x_min":53,"x_max":1028,"o":"m 304 1265 l 304 1103 l 492 1103 l 492 1265 l 304 1265 m 590 1265 l 590 1103 l 778 1103 l 778 1265 l 590 1265 m 271 492 q 285 618 271 557 q 332 727 300 679 q 415 803 364 775 q 540 832 467 832 q 665 803 614 832 q 749 727 717 775 q 795 618 781 679 q 810 492 810 557 q 795 370 810 429 q 749 264 781 311 q 665 188 717 217 q 540 160 614 160 q 415 188 467 160 q 332 264 364 217 q 285 370 300 311 q 271 492 271 429 m 53 492 q 86 290 53 383 q 182 126 119 196 q 335 17 244 57 q 540 -22 426 -22 q 746 17 656 -22 q 899 126 836 57 q 994 290 961 196 q 1028 492 1028 383 q 994 698 1028 603 q 899 864 961 793 q 746 975 836 935 q 540 1015 656 1015 q 335 975 426 1015 q 182 864 244 935 q 86 698 119 793 q 53 492 53 603 z "},"×":{"ha":833,"x_min":89,"x_max":746,"o":"m 89 129 l 194 24 l 418 247 l 640 24 l 746 129 l 522 351 l 746 574 l 640 679 l 418 457 l 197 679 l 92 574 l 313 351 l 89 129 z "},"Ø":{"ha":1081,"x_min":47,"x_max":1033,"o":"m 363 228 l 772 681 q 801 590 792 638 q 810 492 810 542 q 795 370 810 429 q 749 264 781 311 q 665 188 717 217 q 540 160 614 160 q 438 178 482 160 q 363 228 394 196 m 721 761 l 310 304 q 280 395 289 347 q 271 492 271 443 q 285 618 271 557 q 332 727 300 679 q 415 803 364 775 q 540 832 467 832 q 644 813 600 832 q 721 761 689 793 m 167 146 l 47 14 l 115 -44 l 231 82 q 367 6 289 33 q 540 -22 444 -22 q 746 17 656 -22 q 899 126 836 57 q 994 290 961 196 q 1028 492 1028 383 q 999 683 1028 596 q 917 842 971 771 l 1033 971 l 964 1032 l 853 908 q 715 988 793 960 q 540 1015 636 1015 q 335 975 426 1015 q 182 864 244 935 q 86 698 119 793 q 53 492 53 603 q 81 304 53 392 q 167 146 108 217 z "},"Ù":{"ha":1029,"x_min":92,"x_max":938,"o":"m 268 1278 l 482 1081 l 619 1081 l 486 1278 l 268 1278 m 938 375 l 938 992 l 719 992 l 719 375 q 675 212 719 264 q 514 160 631 160 q 408 178 447 160 q 346 227 368 197 q 317 296 324 257 q 310 375 310 335 l 310 992 l 92 992 l 92 375 q 202 75 92 172 q 514 -22 313 -22 q 825 76 713 -22 q 938 375 938 174 z "},"Ú":{"ha":1029,"x_min":92,"x_max":938,"o":"m 547 1081 l 761 1278 l 543 1278 l 410 1081 l 547 1081 m 938 375 l 938 992 l 719 992 l 719 375 q 675 212 719 264 q 514 160 631 160 q 408 178 447 160 q 346 227 368 197 q 317 296 324 257 q 310 375 310 335 l 310 992 l 92 992 l 92 375 q 202 75 92 172 q 514 -22 313 -22 q 825 76 713 -22 q 938 375 938 174 z "},"Û":{"ha":1029,"x_min":92,"x_max":938,"o":"m 425 1278 l 271 1081 l 421 1081 l 510 1193 l 596 1081 l 758 1081 l 606 1278 l 425 1278 m 938 375 l 938 992 l 719 992 l 719 375 q 675 212 719 264 q 514 160 631 160 q 408 178 447 160 q 346 227 368 197 q 317 296 324 257 q 310 375 310 335 l 310 992 l 92 992 l 92 375 q 202 75 92 172 q 514 -22 313 -22 q 825 76 713 -22 q 938 375 938 174 z "},"Ü":{"ha":1029,"x_min":92,"x_max":938,"o":"m 278 1265 l 278 1103 l 465 1103 l 465 1265 l 278 1265 m 564 1265 l 564 1103 l 751 1103 l 751 1265 l 564 1265 m 938 375 l 938 992 l 719 992 l 719 375 q 675 212 719 264 q 514 160 631 160 q 408 178 447 160 q 346 227 368 197 q 317 296 324 257 q 310 375 310 335 l 310 992 l 92 992 l 92 375 q 202 75 92 172 q 514 -22 313 -22 q 825 76 713 -22 q 938 375 938 174 z "},"Ý":{"ha":926,"x_min":-11,"x_max":939,"o":"m 496 1081 l 710 1278 l 492 1278 l 358 1081 l 496 1081 m 353 386 l 353 0 l 571 0 l 571 381 l 939 992 l 696 992 l 465 600 l 233 992 l -11 992 l 353 386 z "},"Þ":{"ha":926,"x_min":96,"x_max":886,"o":"m 314 390 l 314 688 l 483 688 q 556 682 521 688 q 617 660 590 676 q 659 615 643 644 q 675 539 675 586 q 659 463 675 492 q 617 417 643 433 q 556 396 590 401 q 483 390 521 390 l 314 390 m 96 992 l 96 0 l 314 0 l 314 221 l 543 221 q 701 248 636 221 q 808 319 767 275 q 867 422 849 364 q 886 539 886 479 q 867 657 886 600 q 808 758 849 714 q 701 830 767 803 q 543 857 636 857 l 314 857 l 314 992 l 96 992 z "},"ß":{"ha":849,"x_min":78,"x_max":771,"o":"m 78 682 l 78 0 l 275 0 l 275 717 q 307 816 275 779 q 399 853 339 853 q 437 850 414 853 q 481 835 460 847 q 517 798 501 822 q 532 729 532 774 q 519 674 532 697 q 487 635 507 650 q 440 613 467 619 q 386 606 414 606 q 372 606 379 606 q 356 608 364 607 l 356 478 q 381 480 368 479 q 404 481 393 481 q 533 433 492 481 q 574 311 574 386 q 562 246 574 276 q 528 192 550 215 q 478 156 507 169 q 413 143 449 143 q 383 144 397 143 q 356 150 369 146 l 356 -10 q 469 -18 413 -18 q 591 8 536 -18 q 686 78 646 33 q 749 181 726 122 q 771 304 771 239 q 760 390 771 349 q 726 464 749 431 q 669 520 703 497 q 590 553 636 543 l 590 556 q 684 628 649 574 q 719 749 719 682 q 694 868 719 818 q 624 951 668 918 q 524 999 581 983 q 404 1015 467 1015 q 236 985 300 1015 q 137 906 172 954 q 90 799 101 858 q 78 682 78 740 z "},"à":{"ha":797,"x_min":44,"x_max":744,"o":"m 153 1004 l 367 807 l 504 807 l 371 1004 l 153 1004 m 67 497 l 264 497 q 303 581 269 556 q 394 606 336 606 q 444 602 421 606 q 484 588 467 599 q 512 559 501 578 q 522 508 522 540 q 504 462 524 478 q 451 438 485 446 q 375 425 418 429 q 288 414 332 421 q 199 395 243 407 q 122 360 156 383 q 66 297 88 336 q 44 196 44 257 q 63 100 44 140 q 115 33 82 60 q 193 -6 149 7 q 289 -18 238 -18 q 419 1 356 -18 q 531 69 483 21 q 535 34 532 51 q 544 0 539 17 l 744 0 q 725 67 731 22 q 719 160 719 111 l 719 533 q 690 638 719 599 q 615 700 661 678 q 514 730 569 722 q 404 738 458 738 q 285 726 344 738 q 179 686 226 714 q 101 613 132 658 q 67 497 71 567 m 522 351 l 522 278 q 519 233 522 261 q 500 178 515 206 q 453 132 485 151 q 363 113 421 113 q 317 117 339 113 q 278 131 294 121 q 251 160 261 142 q 242 204 242 178 q 251 250 242 232 q 277 280 261 268 q 315 299 293 292 q 358 310 336 306 q 406 317 382 314 q 451 324 429 319 q 491 334 472 328 q 522 351 510 340 z "},"á":{"ha":797,"x_min":44,"x_max":744,"o":"m 432 807 l 646 1004 l 428 1004 l 294 807 l 432 807 m 67 497 l 264 497 q 303 581 269 556 q 394 606 336 606 q 444 602 421 606 q 484 588 467 599 q 512 559 501 578 q 522 508 522 540 q 504 462 524 478 q 451 438 485 446 q 375 425 418 429 q 288 414 332 421 q 199 395 243 407 q 122 360 156 383 q 66 297 88 336 q 44 196 44 257 q 63 100 44 140 q 115 33 82 60 q 193 -6 149 7 q 289 -18 238 -18 q 419 1 356 -18 q 531 69 483 21 q 535 34 532 51 q 544 0 539 17 l 744 0 q 725 67 731 22 q 719 160 719 111 l 719 533 q 690 638 719 599 q 615 700 661 678 q 514 730 569 722 q 404 738 458 738 q 285 726 344 738 q 179 686 226 714 q 101 613 132 658 q 67 497 71 567 m 522 351 l 522 278 q 519 233 522 261 q 500 178 515 206 q 453 132 485 151 q 363 113 421 113 q 317 117 339 113 q 278 131 294 121 q 251 160 261 142 q 242 204 242 178 q 251 250 242 232 q 277 280 261 268 q 315 299 293 292 q 358 310 336 306 q 406 317 382 314 q 451 324 429 319 q 491 334 472 328 q 522 351 510 340 z "},"â":{"ha":797,"x_min":44,"x_max":744,"o":"m 310 1004 l 156 807 l 306 807 l 394 919 l 481 807 l 643 807 l 490 1004 l 310 1004 m 67 497 l 264 497 q 303 581 269 556 q 394 606 336 606 q 444 602 421 606 q 484 588 467 599 q 512 559 501 578 q 522 508 522 540 q 504 462 524 478 q 451 438 485 446 q 375 425 418 429 q 288 414 332 421 q 199 395 243 407 q 122 360 156 383 q 66 297 88 336 q 44 196 44 257 q 63 100 44 140 q 115 33 82 60 q 193 -6 149 7 q 289 -18 238 -18 q 419 1 356 -18 q 531 69 483 21 q 535 34 532 51 q 544 0 539 17 l 744 0 q 725 67 731 22 q 719 160 719 111 l 719 533 q 690 638 719 599 q 615 700 661 678 q 514 730 569 722 q 404 738 458 738 q 285 726 344 738 q 179 686 226 714 q 101 613 132 658 q 67 497 71 567 m 522 351 l 522 278 q 519 233 522 261 q 500 178 515 206 q 453 132 485 151 q 363 113 421 113 q 317 117 339 113 q 278 131 294 121 q 251 160 261 142 q 242 204 242 178 q 251 250 242 232 q 277 280 261 268 q 315 299 293 292 q 358 310 336 306 q 406 317 382 314 q 451 324 429 319 q 491 334 472 328 q 522 351 510 340 z "},"ã":{"ha":797,"x_min":44,"x_max":744,"o":"m 654 992 l 558 992 q 546 958 560 972 q 500 943 532 943 q 453 951 476 943 q 408 968 431 958 q 365 984 386 976 q 319 992 343 992 q 243 976 274 992 q 193 937 213 961 q 163 883 174 913 q 144 822 151 853 l 229 822 q 248 865 236 849 q 288 881 260 881 q 335 874 311 881 q 385 857 358 867 q 439 841 411 849 q 499 833 467 833 q 567 849 540 833 q 612 889 594 865 q 638 940 629 913 q 654 992 647 968 m 67 497 l 264 497 q 303 581 269 556 q 394 606 336 606 q 444 602 421 606 q 484 588 467 599 q 512 559 501 578 q 522 508 522 540 q 504 462 524 478 q 451 438 485 446 q 375 425 418 429 q 288 414 332 421 q 199 395 243 407 q 122 360 156 383 q 66 297 88 336 q 44 196 44 257 q 63 100 44 140 q 115 33 82 60 q 193 -6 149 7 q 289 -18 238 -18 q 419 1 356 -18 q 531 69 483 21 q 535 34 532 51 q 544 0 539 17 l 744 0 q 725 67 731 22 q 719 160 719 111 l 719 533 q 690 638 719 599 q 615 700 661 678 q 514 730 569 722 q 404 738 458 738 q 285 726 344 738 q 179 686 226 714 q 101 613 132 658 q 67 497 71 567 m 522 351 l 522 278 q 519 233 522 261 q 500 178 515 206 q 453 132 485 151 q 363 113 421 113 q 317 117 339 113 q 278 131 294 121 q 251 160 261 142 q 242 204 242 178 q 251 250 242 232 q 277 280 261 268 q 315 299 293 292 q 358 310 336 306 q 406 317 382 314 q 451 324 429 319 q 491 334 472 328 q 522 351 510 340 z "},"ä":{"ha":797,"x_min":44,"x_max":744,"o":"m 163 992 l 163 829 l 350 829 l 350 992 l 163 992 m 449 992 l 449 829 l 636 829 l 636 992 l 449 992 m 67 497 l 264 497 q 303 581 269 556 q 394 606 336 606 q 444 602 421 606 q 484 588 467 599 q 512 559 501 578 q 522 508 522 540 q 504 462 524 478 q 451 438 485 446 q 375 425 418 429 q 288 414 332 421 q 199 395 243 407 q 122 360 156 383 q 66 297 88 336 q 44 196 44 257 q 63 100 44 140 q 115 33 82 60 q 193 -6 149 7 q 289 -18 238 -18 q 419 1 356 -18 q 531 69 483 21 q 535 34 532 51 q 544 0 539 17 l 744 0 q 725 67 731 22 q 719 160 719 111 l 719 533 q 690 638 719 599 q 615 700 661 678 q 514 730 569 722 q 404 738 458 738 q 285 726 344 738 q 179 686 226 714 q 101 613 132 658 q 67 497 71 567 m 522 351 l 522 278 q 519 233 522 261 q 500 178 515 206 q 453 132 485 151 q 363 113 421 113 q 317 117 339 113 q 278 131 294 121 q 251 160 261 142 q 242 204 242 178 q 251 250 242 232 q 277 280 261 268 q 315 299 293 292 q 358 310 336 306 q 406 317 382 314 q 451 324 429 319 q 491 334 472 328 q 522 351 510 340 z "},"å":{"ha":797,"x_min":44,"x_max":744,"o":"m 229 911 q 242 845 229 876 q 278 791 256 814 q 333 755 301 768 q 399 742 364 742 q 465 755 435 742 q 519 791 496 768 q 556 845 543 814 q 569 911 569 876 q 556 978 569 947 q 519 1031 543 1008 q 465 1067 496 1054 q 399 1081 435 1081 q 333 1067 364 1081 q 278 1031 301 1054 q 242 978 256 1008 q 229 911 229 947 m 311 911 q 335 980 311 951 q 399 1008 358 1008 q 463 980 439 1008 q 488 911 488 951 q 463 842 488 871 q 399 814 439 814 q 335 842 358 814 q 311 911 311 871 m 67 497 l 264 497 q 303 581 269 556 q 394 606 336 606 q 444 602 421 606 q 484 588 467 599 q 512 559 501 578 q 522 508 522 540 q 504 462 524 478 q 451 438 485 446 q 375 425 418 429 q 288 414 332 421 q 199 395 243 407 q 122 360 156 383 q 66 297 88 336 q 44 196 44 257 q 63 100 44 140 q 115 33 82 60 q 193 -6 149 7 q 289 -18 238 -18 q 419 1 356 -18 q 531 69 483 21 q 535 34 532 51 q 544 0 539 17 l 744 0 q 725 67 731 22 q 719 160 719 111 l 719 533 q 690 638 719 599 q 615 700 661 678 q 514 730 569 722 q 404 738 458 738 q 285 726 344 738 q 179 686 226 714 q 101 613 132 658 q 67 497 71 567 m 522 351 l 522 278 q 519 233 522 261 q 500 178 515 206 q 453 132 485 151 q 363 113 421 113 q 317 117 339 113 q 278 131 294 121 q 251 160 261 142 q 242 204 242 178 q 251 250 242 232 q 277 280 261 268 q 315 299 293 292 q 358 310 336 306 q 406 317 382 314 q 451 324 429 319 q 491 334 472 328 q 522 351 510 340 z "},"æ":{"ha":1260,"x_min":53,"x_max":1219,"o":"m 1022 436 l 707 436 q 718 500 707 469 q 750 554 729 531 q 801 592 771 578 q 868 606 831 606 q 934 592 906 606 q 983 554 963 578 q 1013 500 1003 531 q 1022 436 1022 469 m 707 311 l 1219 311 q 1201 472 1219 394 q 1144 608 1183 549 q 1042 702 1104 667 q 889 738 979 738 q 746 713 801 738 q 649 640 690 689 q 601 687 629 668 q 542 717 574 706 q 476 733 510 728 q 411 738 443 738 q 288 725 349 738 q 181 684 228 713 q 105 609 135 656 q 72 494 75 563 l 269 494 q 310 581 272 557 q 407 606 349 606 q 453 602 431 606 q 494 588 476 599 q 524 560 513 578 q 535 514 535 542 q 521 471 535 486 q 477 447 507 456 q 401 431 447 438 q 293 414 356 424 q 206 395 249 407 q 128 359 163 383 q 74 295 94 335 q 53 194 53 256 q 76 94 53 135 q 136 28 99 53 q 222 -8 174 3 q 321 -18 269 -18 q 403 -12 361 -18 q 483 9 444 -6 q 555 47 521 24 q 614 103 589 69 q 732 10 660 38 q 882 -18 804 -18 q 994 -2 940 -18 q 1090 45 1047 14 q 1165 122 1133 76 q 1213 225 1197 167 l 1021 225 q 978 142 1011 172 q 878 113 944 113 q 804 131 836 113 q 750 176 772 149 q 717 240 728 204 q 707 311 706 276 m 535 350 l 535 261 q 519 194 535 222 q 481 147 504 165 q 428 121 457 129 q 372 113 400 113 q 328 117 350 113 q 288 132 306 121 q 260 161 271 143 q 250 206 250 179 q 266 260 250 240 q 308 290 282 279 q 365 306 333 301 q 428 316 397 311 q 488 328 460 321 q 535 350 517 335 z "},"ç":{"ha":797,"x_min":53,"x_max":761,"o":"m 564 465 l 757 465 q 724 585 753 535 q 648 670 694 636 q 542 721 601 704 q 419 738 483 738 q 264 708 332 738 q 149 627 196 679 q 77 503 101 575 q 53 349 53 432 q 75 210 53 274 q 139 99 97 147 q 238 22 181 51 q 367 -14 296 -7 l 297 -114 l 326 -147 q 382 -137 351 -137 q 422 -147 406 -137 q 438 -182 438 -156 q 422 -218 438 -207 q 382 -229 407 -229 q 317 -222 346 -229 q 265 -204 288 -214 l 236 -271 q 273 -283 256 -278 q 309 -293 290 -289 q 351 -299 328 -297 q 408 -301 375 -301 q 468 -295 439 -301 q 520 -273 497 -289 q 557 -230 543 -257 q 571 -162 571 -203 q 560 -119 571 -137 q 531 -88 549 -100 q 490 -71 513 -76 q 443 -65 467 -65 q 396 -72 413 -65 l 393 -72 l 432 -17 q 656 62 569 -12 q 761 275 743 136 l 571 275 q 523 169 561 208 q 414 129 485 129 q 336 150 368 129 q 285 203 304 171 q 258 276 267 236 q 250 356 250 317 q 258 437 250 396 q 287 512 267 478 q 339 567 307 546 q 418 589 371 589 q 564 465 544 589 z "},"è":{"ha":797,"x_min":40,"x_max":756,"o":"m 153 1004 l 367 807 l 504 807 l 371 1004 l 153 1004 m 558 436 l 238 436 q 247 483 239 457 q 273 533 254 510 q 323 573 292 557 q 401 589 354 589 q 509 550 474 589 q 558 436 544 511 m 238 311 l 756 311 q 742 471 761 394 q 678 607 722 547 q 567 702 635 667 q 407 738 499 738 q 258 708 325 738 q 142 628 190 679 q 67 508 93 578 q 40 358 40 439 q 66 206 40 275 q 139 86 92 136 q 254 9 186 36 q 407 -18 322 -18 q 615 38 529 -18 q 743 222 701 93 l 569 222 q 517 159 560 189 q 414 129 474 129 q 286 172 331 129 q 238 311 242 215 z "},"é":{"ha":797,"x_min":40,"x_max":756,"o":"m 432 807 l 646 1004 l 428 1004 l 294 807 l 432 807 m 558 436 l 238 436 q 247 483 239 457 q 273 533 254 510 q 323 573 292 557 q 401 589 354 589 q 509 550 474 589 q 558 436 544 511 m 238 311 l 756 311 q 742 471 761 394 q 678 607 722 547 q 567 702 635 667 q 407 738 499 738 q 258 708 325 738 q 142 628 190 679 q 67 508 93 578 q 40 358 40 439 q 66 206 40 275 q 139 86 92 136 q 254 9 186 36 q 407 -18 322 -18 q 615 38 529 -18 q 743 222 701 93 l 569 222 q 517 159 560 189 q 414 129 474 129 q 286 172 331 129 q 238 311 242 215 z "},"ê":{"ha":797,"x_min":40,"x_max":756,"o":"m 310 1004 l 156 807 l 306 807 l 394 919 l 481 807 l 643 807 l 490 1004 l 310 1004 m 558 436 l 238 436 q 247 483 239 457 q 273 533 254 510 q 323 573 292 557 q 401 589 354 589 q 509 550 474 589 q 558 436 544 511 m 238 311 l 756 311 q 742 471 761 394 q 678 607 722 547 q 567 702 635 667 q 407 738 499 738 q 258 708 325 738 q 142 628 190 679 q 67 508 93 578 q 40 358 40 439 q 66 206 40 275 q 139 86 92 136 q 254 9 186 36 q 407 -18 322 -18 q 615 38 529 -18 q 743 222 701 93 l 569 222 q 517 159 560 189 q 414 129 474 129 q 286 172 331 129 q 238 311 242 215 z "},"ë":{"ha":797,"x_min":40,"x_max":756,"o":"m 163 992 l 163 829 l 350 829 l 350 992 l 163 992 m 449 992 l 449 829 l 636 829 l 636 992 l 449 992 m 558 436 l 238 436 q 247 483 239 457 q 273 533 254 510 q 323 573 292 557 q 401 589 354 589 q 509 550 474 589 q 558 436 544 511 m 238 311 l 756 311 q 742 471 761 394 q 678 607 722 547 q 567 702 635 667 q 407 738 499 738 q 258 708 325 738 q 142 628 190 679 q 67 508 93 578 q 40 358 40 439 q 66 206 40 275 q 139 86 92 136 q 254 9 186 36 q 407 -18 322 -18 q 615 38 529 -18 q 743 222 701 93 l 569 222 q 517 159 560 189 q 414 129 474 129 q 286 172 331 129 q 238 311 242 215 z "},"ì":{"ha":358,"x_min":-65,"x_max":285,"o":"m -65 1004 l 147 807 l 285 807 l 151 1004 l -65 1004 m 81 718 l 81 0 l 278 0 l 278 718 l 81 718 z "},"í":{"ha":358,"x_min":75,"x_max":426,"o":"m 213 807 l 426 1004 l 208 1004 l 75 807 l 213 807 m 81 718 l 81 0 l 278 0 l 278 718 l 81 718 z "},"î":{"ha":358,"x_min":-62,"x_max":424,"o":"m 90 1004 l -62 807 l 86 807 l 175 919 l 261 807 l 424 807 l 271 1004 l 90 1004 m 81 718 l 81 0 l 278 0 l 278 718 l 81 718 z "},"ï":{"ha":358,"x_min":-56,"x_max":417,"o":"m -56 992 l -56 829 l 131 829 l 131 992 l -56 992 m 229 992 l 229 829 l 417 829 l 417 992 l 229 992 m 81 718 l 81 0 l 278 0 l 278 718 l 81 718 z "},"ð":{"ha":849,"x_min":53,"x_max":796,"o":"m 333 899 l 185 824 l 265 746 l 421 824 q 497 749 456 793 q 563 647 538 706 l 560 647 q 462 692 511 681 q 372 703 413 703 q 228 671 289 703 q 129 588 168 639 q 72 472 90 536 q 53 343 53 408 q 79 197 53 264 q 154 83 106 131 q 271 8 203 35 q 424 -18 339 -18 q 577 12 508 -18 q 694 94 646 42 q 769 220 743 147 q 796 379 796 293 q 739 665 799 542 q 567 897 679 789 l 725 976 l 653 1058 l 482 972 q 344 1064 419 1022 l 217 968 q 274 938 244 954 q 333 899 303 921 m 424 129 q 340 149 374 129 q 287 201 307 168 q 258 274 267 233 q 250 358 250 315 q 259 434 250 396 q 288 503 268 472 q 342 552 308 533 q 422 571 375 571 q 504 552 471 571 q 558 503 538 533 q 589 435 579 474 q 599 358 599 397 q 590 274 599 315 q 562 201 582 233 q 508 149 542 168 q 424 129 474 129 z "},"ñ":{"ha":824,"x_min":75,"x_max":749,"o":"m 667 992 l 571 992 q 558 958 572 972 q 513 943 544 943 q 466 951 489 943 q 421 968 443 958 q 377 984 399 976 q 332 992 356 992 q 256 976 286 992 q 206 937 225 961 q 175 883 186 913 q 157 822 164 853 l 242 822 q 260 865 249 849 q 300 881 272 881 q 347 874 324 881 q 397 857 371 867 q 451 841 424 849 q 511 833 479 833 q 580 849 553 833 q 624 889 607 865 q 651 940 642 913 q 667 992 660 968 m 75 718 l 75 0 l 272 0 l 272 376 q 308 534 272 486 q 425 582 344 582 q 524 538 496 582 q 551 406 551 494 l 551 0 l 749 0 l 749 442 q 737 563 749 508 q 696 656 725 618 q 616 716 667 694 q 486 738 565 738 q 364 709 424 738 q 267 618 304 681 l 263 618 l 263 718 l 75 718 z "},"ò":{"ha":849,"x_min":53,"x_max":796,"o":"m 178 1004 l 392 807 l 529 807 l 396 1004 l 178 1004 m 250 358 q 258 443 250 401 q 287 517 267 485 q 340 569 307 549 q 424 589 374 589 q 508 569 474 589 q 562 517 542 549 q 590 443 582 485 q 599 358 599 401 q 590 274 599 315 q 562 201 582 233 q 508 149 542 168 q 424 129 474 129 q 340 149 374 129 q 287 201 307 168 q 258 274 267 233 q 250 358 250 315 m 53 358 q 79 203 53 272 q 154 84 106 133 q 271 8 203 35 q 424 -18 339 -18 q 577 8 508 -18 q 694 84 646 35 q 769 203 743 133 q 796 358 796 272 q 769 515 796 444 q 694 634 743 585 q 577 710 646 683 q 424 738 508 738 q 271 710 339 738 q 154 634 203 683 q 79 515 106 585 q 53 358 53 444 z "},"ó":{"ha":849,"x_min":53,"x_max":796,"o":"m 457 807 l 671 1004 l 453 1004 l 319 807 l 457 807 m 250 358 q 258 443 250 401 q 287 517 267 485 q 340 569 307 549 q 424 589 374 589 q 508 569 474 589 q 562 517 542 549 q 590 443 582 485 q 599 358 599 401 q 590 274 599 315 q 562 201 582 233 q 508 149 542 168 q 424 129 474 129 q 340 149 374 129 q 287 201 307 168 q 258 274 267 233 q 250 358 250 315 m 53 358 q 79 203 53 272 q 154 84 106 133 q 271 8 203 35 q 424 -18 339 -18 q 577 8 508 -18 q 694 84 646 35 q 769 203 743 133 q 796 358 796 272 q 769 515 796 444 q 694 634 743 585 q 577 710 646 683 q 424 738 508 738 q 271 710 339 738 q 154 634 203 683 q 79 515 106 585 q 53 358 53 444 z "},"ô":{"ha":849,"x_min":53,"x_max":796,"o":"m 335 1004 l 181 807 l 331 807 l 419 919 l 506 807 l 668 807 l 515 1004 l 335 1004 m 250 358 q 258 443 250 401 q 287 517 267 485 q 340 569 307 549 q 424 589 374 589 q 508 569 474 589 q 562 517 542 549 q 590 443 582 485 q 599 358 599 401 q 590 274 599 315 q 562 201 582 233 q 508 149 542 168 q 424 129 474 129 q 340 149 374 129 q 287 201 307 168 q 258 274 267 233 q 250 358 250 315 m 53 358 q 79 203 53 272 q 154 84 106 133 q 271 8 203 35 q 424 -18 339 -18 q 577 8 508 -18 q 694 84 646 35 q 769 203 743 133 q 796 358 796 272 q 769 515 796 444 q 694 634 743 585 q 577 710 646 683 q 424 738 508 738 q 271 710 339 738 q 154 634 203 683 q 79 515 106 585 q 53 358 53 444 z "},"õ":{"ha":849,"x_min":53,"x_max":796,"o":"m 679 992 l 583 992 q 571 958 585 972 q 525 943 557 943 q 478 951 501 943 q 433 968 456 958 q 390 984 411 976 q 344 992 368 992 q 268 976 299 992 q 218 937 238 961 q 188 883 199 913 q 169 822 176 853 l 254 822 q 273 865 261 849 q 313 881 285 881 q 360 874 336 881 q 410 857 383 867 q 464 841 436 849 q 524 833 492 833 q 592 849 565 833 q 637 889 619 865 q 663 940 654 913 q 679 992 672 968 m 250 358 q 258 443 250 401 q 287 517 267 485 q 340 569 307 549 q 424 589 374 589 q 508 569 474 589 q 562 517 542 549 q 590 443 582 485 q 599 358 599 401 q 590 274 599 315 q 562 201 582 233 q 508 149 542 168 q 424 129 474 129 q 340 149 374 129 q 287 201 307 168 q 258 274 267 233 q 250 358 250 315 m 53 358 q 79 203 53 272 q 154 84 106 133 q 271 8 203 35 q 424 -18 339 -18 q 577 8 508 -18 q 694 84 646 35 q 769 203 743 133 q 796 358 796 272 q 769 515 796 444 q 694 634 743 585 q 577 710 646 683 q 424 738 508 738 q 271 710 339 738 q 154 634 203 683 q 79 515 106 585 q 53 358 53 444 z "},"ö":{"ha":849,"x_min":53,"x_max":796,"o":"m 188 992 l 188 829 l 375 829 l 375 992 l 188 992 m 474 992 l 474 829 l 661 829 l 661 992 l 474 992 m 250 358 q 258 443 250 401 q 287 517 267 485 q 340 569 307 549 q 424 589 374 589 q 508 569 474 589 q 562 517 542 549 q 590 443 582 485 q 599 358 599 401 q 590 274 599 315 q 562 201 582 233 q 508 149 542 168 q 424 129 474 129 q 340 149 374 129 q 287 201 307 168 q 258 274 267 233 q 250 358 250 315 m 53 358 q 79 203 53 272 q 154 84 106 133 q 271 8 203 35 q 424 -18 339 -18 q 577 8 508 -18 q 694 84 646 35 q 769 203 743 133 q 796 358 796 272 q 769 515 796 444 q 694 634 743 585 q 577 710 646 683 q 424 738 508 738 q 271 710 339 738 q 154 634 203 683 q 79 515 106 585 q 53 358 53 444 z "},"÷":{"ha":833,"x_min":67,"x_max":768,"o":"m 300 63 q 310 19 300 40 q 335 -19 319 -3 q 373 -44 351 -35 q 419 -54 394 -54 q 464 -44 443 -54 q 500 -17 485 -33 q 525 21 515 0 q 535 63 535 42 q 525 108 535 88 q 499 145 515 129 q 463 170 483 161 q 418 179 442 179 q 373 170 394 179 q 335 145 351 161 q 310 108 319 129 q 300 63 300 88 m 300 639 q 310 594 300 615 q 335 556 319 572 q 373 531 351 540 q 419 522 394 522 q 464 532 443 522 q 500 558 485 542 q 525 596 515 575 q 535 639 535 617 q 525 685 535 664 q 499 723 515 707 q 463 748 483 739 q 418 757 442 757 q 335 723 371 757 q 300 639 300 689 m 67 425 l 67 276 l 768 276 l 768 425 l 67 425 z "},"ø":{"ha":849,"x_min":53,"x_max":796,"o":"m 144 96 l 61 1 l 113 -42 l 194 50 q 424 -18 288 -18 q 577 8 508 -18 q 694 84 646 35 q 769 203 743 133 q 796 358 796 272 q 771 510 796 442 q 700 626 746 578 l 775 711 l 724 756 l 650 671 q 424 738 557 738 q 271 710 339 738 q 154 634 203 683 q 79 515 106 585 q 53 358 53 444 q 144 96 53 196 m 306 176 l 576 485 q 593 424 588 457 q 599 358 599 392 q 590 274 599 315 q 562 201 582 233 q 508 149 542 168 q 424 129 474 129 q 354 142 383 129 q 306 176 325 154 m 539 544 l 271 239 q 255 296 260 265 q 250 358 250 326 q 258 443 250 401 q 287 517 267 485 q 340 569 307 549 q 424 589 374 589 q 539 544 497 589 z "},"ù":{"ha":824,"x_min":75,"x_max":749,"o":"m 165 1004 l 379 807 l 517 807 l 383 1004 l 165 1004 m 749 0 l 749 718 l 551 718 l 551 342 q 515 184 551 232 q 399 136 479 136 q 300 180 328 136 q 272 313 272 224 l 272 718 l 75 718 l 75 276 q 87 155 75 210 q 128 62 99 100 q 208 3 157 24 q 338 -18 258 -18 q 460 10 400 -18 q 557 100 519 38 l 561 100 l 561 0 l 749 0 z "},"ú":{"ha":824,"x_min":75,"x_max":749,"o":"m 444 807 l 658 1004 l 440 1004 l 307 807 l 444 807 m 749 0 l 749 718 l 551 718 l 551 342 q 515 184 551 232 q 399 136 479 136 q 300 180 328 136 q 272 313 272 224 l 272 718 l 75 718 l 75 276 q 87 155 75 210 q 128 62 99 100 q 208 3 157 24 q 338 -18 258 -18 q 460 10 400 -18 q 557 100 519 38 l 561 100 l 561 0 l 749 0 z "},"û":{"ha":824,"x_min":75,"x_max":749,"o":"m 322 1004 l 168 807 l 318 807 l 407 919 l 493 807 l 656 807 l 503 1004 l 322 1004 m 749 0 l 749 718 l 551 718 l 551 342 q 515 184 551 232 q 399 136 479 136 q 300 180 328 136 q 272 313 272 224 l 272 718 l 75 718 l 75 276 q 87 155 75 210 q 128 62 99 100 q 208 3 157 24 q 338 -18 258 -18 q 460 10 400 -18 q 557 100 519 38 l 561 100 l 561 0 l 749 0 z "},"ü":{"ha":824,"x_min":75,"x_max":749,"o":"m 175 992 l 175 829 l 363 829 l 363 992 l 175 992 m 461 992 l 461 829 l 649 829 l 649 992 l 461 992 m 749 0 l 749 718 l 551 718 l 551 342 q 515 184 551 232 q 399 136 479 136 q 300 180 328 136 q 272 313 272 224 l 272 718 l 75 718 l 75 276 q 87 155 75 210 q 128 62 99 100 q 208 3 157 24 q 338 -18 258 -18 q 460 10 400 -18 q 557 100 519 38 l 561 100 l 561 0 l 749 0 z "},"ý":{"ha":721,"x_min":-7,"x_max":729,"o":"m 393 807 l 607 1004 l 389 1004 l 256 807 l 393 807 m 429 -89 l 729 718 l 525 718 l 368 226 l 365 226 l 203 718 l -7 718 l 244 44 q 253 0 253 24 q 234 -58 253 -32 q 176 -89 215 -85 q 118 -87 147 -90 q 61 -82 89 -85 l 61 -244 q 122 -249 92 -247 q 182 -251 151 -251 q 340 -214 283 -251 q 429 -89 397 -176 z "},"þ":{"ha":849,"x_min":75,"x_max":806,"o":"m 608 357 q 600 272 608 314 q 572 199 592 231 q 519 149 551 168 q 438 129 486 129 q 357 149 390 129 q 303 199 324 168 q 274 272 283 231 q 265 357 265 314 q 274 443 265 401 q 302 517 282 485 q 355 569 322 549 q 436 589 388 589 q 516 569 483 589 q 569 516 549 549 q 599 442 590 483 q 608 357 608 400 m 75 992 l 75 -251 l 272 -251 l 272 89 l 275 89 q 367 9 311 36 q 490 -18 424 -18 q 628 13 569 -18 q 727 94 688 43 q 786 213 767 146 q 806 351 806 279 q 786 498 806 428 q 726 621 767 568 q 625 706 686 674 q 479 738 564 738 q 365 711 419 738 q 275 626 311 685 l 272 626 l 272 992 l 75 992 z "},"ÿ":{"ha":721,"x_min":-7,"x_max":729,"o":"m 124 992 l 124 829 l 311 829 l 311 992 l 124 992 m 410 992 l 410 829 l 597 829 l 597 992 l 410 992 m 429 -89 l 729 718 l 525 718 l 368 226 l 365 226 l 203 718 l -7 718 l 244 44 q 253 0 253 24 q 234 -58 253 -32 q 176 -89 215 -85 q 118 -87 147 -90 q 61 -82 89 -85 l 61 -244 q 122 -249 92 -247 q 182 -251 151 -251 q 340 -214 283 -251 q 429 -89 397 -176 z "},"Ą":{"ha":951,"x_min":-8,"x_max":961,"o":"m 775 -301 q 738 -299 763 -301 q 688 -283 713 -296 q 644 -246 663 -271 q 626 -176 626 -221 q 629 -150 626 -167 q 647 -110 632 -133 q 694 -58 663 -87 q 776 0 724 -31 l 735 0 l 660 221 l 289 221 l 211 0 l -8 0 l 367 992 l 590 992 l 961 0 l 869 0 q 783 -94 807 -57 q 760 -171 760 -135 q 776 -205 760 -192 q 814 -218 793 -218 q 856 -210 836 -218 q 894 -176 875 -203 l 961 -207 q 871 -281 919 -260 q 775 -301 822 -301 m 603 383 l 478 747 l 475 747 l 346 383 l 603 383 z "},"ą":{"ha":797,"x_min":44,"x_max":744,"o":"m 558 -301 q 521 -299 546 -301 q 471 -283 496 -296 q 428 -246 446 -271 q 410 -176 410 -221 q 413 -150 410 -167 q 431 -110 415 -133 q 478 -58 446 -87 q 560 0 507 -31 l 544 0 q 535 34 539 17 q 531 69 532 51 q 419 1 483 21 q 289 -18 356 -18 q 193 -6 238 -18 q 115 33 149 7 q 63 100 82 60 q 44 196 44 140 q 66 297 44 257 q 122 360 88 336 q 199 395 156 383 q 288 414 243 407 q 375 425 332 421 q 451 438 418 429 q 504 462 485 446 q 522 508 524 478 q 512 559 522 540 q 484 588 501 578 q 444 602 467 599 q 394 606 421 606 q 303 581 336 606 q 264 497 269 556 l 67 497 q 101 613 71 567 q 179 686 132 658 q 285 726 226 714 q 404 738 344 738 q 514 730 458 738 q 615 700 569 722 q 690 638 661 678 q 719 533 719 599 l 719 160 q 725 67 719 111 q 744 0 731 22 l 653 0 q 567 -94 590 -57 q 543 -171 543 -135 q 560 -205 543 -192 q 597 -218 576 -218 q 639 -210 619 -218 q 678 -176 658 -203 l 744 -207 q 654 -281 703 -260 q 558 -301 606 -301 m 363 113 q 453 132 421 113 q 500 178 485 151 q 519 233 515 206 q 522 278 522 261 l 522 351 q 491 334 510 340 q 451 324 472 328 q 406 317 429 319 q 358 310 382 314 q 315 299 336 306 q 277 280 293 292 q 251 250 261 268 q 242 204 242 232 q 251 160 242 178 q 278 131 261 142 q 317 117 294 121 q 363 113 339 113 z "},"Ć":{"ha":1029,"x_min":53,"x_max":976,"o":"m 757 658 q 732 727 751 696 q 683 782 713 758 q 617 819 654 806 q 540 832 581 832 q 415 803 467 832 q 332 727 364 775 q 285 618 300 679 q 271 492 271 557 q 285 370 271 429 q 332 264 300 311 q 415 188 364 217 q 540 160 467 160 q 697 221 640 160 q 765 382 753 282 l 976 382 q 933 214 968 289 q 842 86 899 139 q 708 6 785 33 q 540 -22 632 -22 q 335 17 426 -22 q 182 126 244 57 q 86 290 119 196 q 53 492 53 383 q 86 698 53 603 q 182 864 119 793 q 335 975 244 935 q 540 1015 426 1015 q 695 992 622 1015 q 826 923 768 968 q 921 811 883 878 q 968 658 958 744 l 757 658 l 757 658 m 422 1081 l 556 1278 l 774 1278 l 560 1081 l 422 1081 z "},"ć":{"ha":797,"x_min":53,"x_max":761,"o":"m 564 465 q 418 589 544 589 q 339 567 371 589 q 287 512 307 546 q 258 437 267 478 q 250 356 250 396 q 258 276 250 317 q 285 203 267 236 q 336 150 304 171 q 414 129 368 129 q 523 169 485 129 q 571 275 561 208 l 761 275 q 650 57 742 132 q 415 -18 558 -18 q 267 9 335 -18 q 153 85 200 36 q 79 201 106 133 q 53 349 53 268 q 77 503 53 432 q 149 627 101 575 q 264 708 196 679 q 419 738 332 738 q 542 721 483 738 q 648 670 601 704 q 724 585 694 636 q 757 465 753 535 l 564 465 l 564 465 m 306 807 l 439 1004 l 657 1004 l 443 807 l 306 807 z "},"Ę":{"ha":900,"x_min":96,"x_max":849,"o":"m 663 -301 q 625 -299 650 -301 q 575 -283 600 -296 q 532 -246 550 -271 q 514 -176 514 -221 q 517 -150 514 -167 q 535 -110 519 -133 q 582 -58 550 -87 q 664 0 611 -31 l 96 0 l 96 992 l 838 992 l 838 808 l 314 808 l 314 596 l 794 596 l 794 426 l 314 426 l 314 183 l 849 183 l 849 0 l 757 0 q 671 -94 694 -57 q 647 -171 647 -135 q 664 -205 647 -192 q 701 -218 681 -218 q 743 -210 724 -218 q 782 -176 763 -203 l 849 -207 q 758 -281 807 -260 q 663 -301 710 -301 z "},"ę":{"ha":797,"x_min":40,"x_max":756,"o":"m 385 -301 q 347 -299 372 -301 q 297 -283 322 -296 q 254 -246 272 -271 q 236 -176 236 -221 q 239 -150 236 -167 q 257 -110 242 -133 q 304 -58 272 -87 q 360 -15 326 -37 q 254 8 303 -10 q 139 86 186 36 q 66 206 92 136 q 40 358 40 275 q 67 508 40 439 q 142 628 93 578 q 258 708 190 679 q 407 738 325 738 q 567 702 499 738 q 678 607 635 667 q 742 471 722 547 q 756 311 761 394 l 238 311 q 286 172 242 215 q 414 129 331 129 q 517 159 474 129 q 569 222 560 189 l 743 222 q 615 38 701 93 q 464 -14 550 -4 q 393 -94 414 -61 q 369 -171 369 -135 q 386 -205 369 -192 q 424 -218 403 -218 q 465 -210 446 -218 q 504 -176 485 -203 l 571 -207 q 481 -281 529 -260 q 385 -301 432 -301 m 558 436 q 509 550 544 511 q 401 589 474 589 q 323 573 354 589 q 273 533 292 557 q 247 483 254 510 q 238 436 239 457 l 558 436 z "},"ı":{"ha":358,"x_min":81,"x_max":278,"o":"m 81 718 l 81 0 l 278 0 l 278 718 l 81 718 z "},"Ł":{"ha":824,"x_min":-14,"x_max":797,"o":"m 96 297 l 96 0 l 797 0 l 797 183 l 314 183 l 314 450 l 607 656 l 607 811 l 314 606 l 314 992 l 96 992 l 96 453 l -14 375 l -14 219 l 96 297 z "},"ł":{"ha":358,"x_min":-11,"x_max":371,"o":"m 81 397 l 81 0 l 278 0 l 278 553 l 371 626 l 371 768 l 278 694 l 278 992 l 81 992 l 81 539 l -11 465 l -11 324 l 81 397 z "},"Ń":{"ha":1029,"x_min":96,"x_max":933,"o":"m 313 992 l 726 326 l 729 326 l 729 992 l 933 992 l 933 0 l 715 0 l 303 664 l 300 664 l 300 0 l 96 0 l 96 992 l 313 992 m 422 1081 l 556 1278 l 774 1278 l 560 1081 l 422 1081 z "},"ń":{"ha":824,"x_min":75,"x_max":749,"o":"m 263 718 l 263 618 l 267 618 q 364 709 304 681 q 486 738 424 738 q 616 716 565 738 q 696 656 667 694 q 737 563 725 618 q 749 442 749 508 l 749 0 l 551 0 l 551 406 q 524 538 551 494 q 425 582 496 582 q 308 534 344 582 q 272 376 272 486 l 272 0 l 75 0 l 75 718 l 263 718 m 292 807 l 425 1004 l 643 1004 l 429 807 l 292 807 z "},"Œ":{"ha":1518,"x_min":53,"x_max":1460,"o":"m 747 622 l 747 386 q 688 222 747 285 q 529 160 629 160 q 410 189 460 160 q 330 265 361 218 q 285 372 299 313 q 271 493 271 432 q 285 616 271 556 q 330 724 299 676 q 411 802 361 772 q 533 832 461 832 q 619 817 579 832 q 687 774 658 801 q 731 708 715 746 q 747 622 747 669 m 756 75 l 756 0 l 1460 0 l 1460 183 l 958 183 l 958 426 l 1408 426 l 1408 596 l 958 596 l 958 808 l 1450 808 l 1450 992 l 756 992 l 756 921 l 753 921 q 647 994 711 974 q 518 1015 583 1015 q 322 972 408 1015 q 175 856 235 929 q 84 688 115 783 q 53 490 53 593 q 83 294 53 388 q 173 131 114 201 q 318 19 232 61 q 514 -22 404 -22 q 644 2 581 -22 q 753 75 708 26 l 756 75 z "},"œ":{"ha":1286,"x_min":53,"x_max":1246,"o":"m 733 311 l 1246 311 q 1226 474 1246 397 q 1165 610 1207 551 q 1056 703 1122 668 q 893 738 989 738 q 826 730 861 738 q 759 708 792 722 q 699 672 726 693 q 653 624 671 651 q 544 712 613 686 q 406 738 476 738 q 260 708 325 738 q 149 629 194 679 q 78 510 103 579 q 53 363 53 442 q 74 217 53 286 q 138 95 96 147 q 244 13 181 43 q 390 -18 307 -18 q 463 -12 426 -18 q 534 9 500 -6 q 597 47 568 24 q 644 103 625 69 q 758 9 686 36 q 904 -18 829 -18 q 1116 46 1026 -18 q 1240 228 1206 110 l 1049 228 q 994 154 1029 179 q 904 129 958 129 q 776 181 818 129 q 733 311 733 233 m 403 129 q 329 151 358 129 q 282 206 300 172 q 257 278 264 239 q 250 356 250 318 q 258 439 250 397 q 283 514 265 481 q 331 568 301 547 q 407 589 361 589 q 487 567 457 589 q 533 511 517 544 q 556 438 550 478 q 561 361 561 397 q 555 281 561 322 q 531 206 549 240 q 483 151 514 172 q 403 129 453 129 m 1049 436 l 733 436 q 775 544 736 500 q 889 589 814 589 q 1007 548 968 589 q 1049 436 1046 507 z "},"Ś":{"ha":901,"x_min":33,"x_max":868,"o":"m 244 329 q 263 244 244 279 q 310 188 281 210 q 381 156 340 167 q 464 146 421 146 q 526 151 493 146 q 589 169 560 156 q 638 208 618 183 q 657 269 657 232 q 631 335 657 310 q 564 376 606 360 q 469 406 522 393 q 363 433 417 418 q 254 467 307 447 q 160 519 201 488 q 92 599 118 551 q 67 715 67 647 q 99 848 67 792 q 185 942 132 904 q 304 997 238 979 q 438 1015 371 1015 q 587 998 515 1015 q 714 942 658 981 q 802 842 769 903 q 835 696 835 782 l 624 696 q 605 769 621 740 q 563 815 589 799 q 502 839 536 832 q 428 846 468 846 q 375 840 401 846 q 327 821 349 835 q 292 786 306 807 q 278 733 278 765 q 289 686 278 704 q 333 653 300 668 q 423 622 365 638 q 574 583 481 607 q 651 563 601 578 q 749 517 700 549 q 833 431 797 485 q 868 294 868 378 q 842 168 868 226 q 763 67 815 110 q 634 1 711 25 q 456 -22 557 -22 q 297 -2 374 -22 q 160 61 219 18 q 67 171 101 104 q 33 329 32 238 l 244 329 l 244 329 m 344 1081 l 478 1278 l 696 1278 l 482 1081 l 344 1081 z "},"ś":{"ha":746,"x_min":40,"x_max":706,"o":"m 228 233 q 241 178 228 201 q 275 141 254 156 q 323 119 296 126 q 379 113 350 113 q 423 117 400 113 q 465 133 446 122 q 496 160 483 143 q 508 204 508 178 q 449 271 508 249 q 285 315 390 293 q 201 338 242 325 q 128 373 160 351 q 76 427 96 394 q 57 507 57 460 q 84 621 57 576 q 156 691 111 665 q 256 727 200 717 q 369 738 311 738 q 483 726 428 738 q 581 689 538 715 q 652 619 624 663 q 686 508 681 575 l 499 508 q 456 585 494 565 q 364 606 417 606 q 328 603 347 606 q 292 594 308 601 q 265 574 276 588 q 254 539 254 561 q 274 496 254 513 q 324 469 293 479 q 396 450 356 458 q 478 432 436 442 q 562 408 521 422 q 635 372 603 394 q 686 315 667 349 q 706 231 706 281 q 677 112 706 160 q 603 35 649 64 q 498 -6 557 6 q 378 -18 439 -18 q 256 -6 315 -18 q 149 36 196 7 q 73 113 103 65 q 40 233 43 161 l 228 233 l 228 233 m 281 807 l 414 1004 l 632 1004 l 418 807 l 281 807 z "},"Š":{"ha":901,"x_min":33,"x_max":868,"o":"m 542 1081 l 694 1278 l 542 1278 l 451 1165 l 363 1278 l 207 1278 l 361 1081 l 542 1081 m 244 329 l 33 329 q 67 171 32 238 q 160 61 101 104 q 297 -2 219 18 q 456 -22 374 -22 q 634 1 557 -22 q 763 67 711 25 q 842 168 815 110 q 868 294 868 226 q 833 431 868 378 q 749 517 797 485 q 651 563 700 549 q 574 583 601 578 q 423 622 481 607 q 333 653 365 638 q 289 686 300 668 q 278 733 278 704 q 292 786 278 765 q 327 821 306 807 q 375 840 349 835 q 428 846 401 846 q 502 839 468 846 q 563 815 536 832 q 605 769 589 799 q 624 696 621 740 l 835 696 q 802 842 835 782 q 714 942 769 903 q 587 998 658 981 q 438 1015 515 1015 q 304 997 371 1015 q 185 942 238 979 q 99 848 132 904 q 67 715 67 792 q 92 599 67 647 q 160 519 118 551 q 254 467 201 488 q 363 433 307 447 q 469 406 417 418 q 564 376 522 393 q 631 335 606 360 q 657 269 657 310 q 638 208 657 232 q 589 169 618 183 q 526 151 560 156 q 464 146 493 146 q 381 156 421 146 q 310 188 340 167 q 263 244 281 210 q 244 329 244 279 z "},"š":{"ha":746,"x_min":40,"x_max":706,"o":"m 464 807 l 617 1004 l 464 1004 l 374 892 l 285 1004 l 129 1004 l 283 807 l 464 807 m 228 233 l 40 233 q 73 113 43 161 q 149 36 103 65 q 256 -6 196 7 q 378 -18 315 -18 q 498 -6 439 -18 q 603 35 557 6 q 677 112 649 64 q 706 231 706 160 q 686 315 706 281 q 635 372 667 349 q 562 408 603 394 q 478 432 521 422 q 396 450 436 442 q 324 469 356 458 q 274 496 293 479 q 254 539 254 513 q 265 574 254 561 q 292 594 276 588 q 328 603 308 601 q 364 606 347 606 q 456 585 417 606 q 499 508 494 565 l 686 508 q 652 619 681 575 q 581 689 624 663 q 483 726 538 715 q 369 738 428 738 q 256 727 311 738 q 156 691 200 717 q 84 621 111 665 q 57 507 57 576 q 76 427 57 460 q 128 373 96 394 q 201 338 160 351 q 285 315 242 325 q 449 271 390 293 q 508 204 508 249 q 496 160 508 178 q 465 133 483 143 q 423 117 446 122 q 379 113 400 113 q 323 119 350 113 q 275 141 296 126 q 241 178 254 156 q 228 233 228 201 z "},"Ÿ":{"ha":926,"x_min":-11,"x_max":939,"o":"m 226 1265 l 226 1103 l 414 1103 l 414 1265 l 226 1265 m 513 1265 l 513 1103 l 700 1103 l 700 1265 l 513 1265 m 353 386 l 353 0 l 571 0 l 571 381 l 939 992 l 696 992 l 465 600 l 233 992 l -11 992 l 353 386 z "},"Ź":{"ha":900,"x_min":32,"x_max":868,"o":"m 564 808 l 74 808 l 74 992 l 854 992 l 854 819 l 322 183 l 868 183 l 868 0 l 32 0 l 32 172 l 564 808 m 343 1081 l 476 1278 l 694 1278 l 481 1081 l 343 1081 z "},"ź":{"ha":721,"x_min":31,"x_max":690,"o":"m 404 569 l 58 569 l 58 718 l 664 718 l 664 569 l 290 149 l 690 149 l 690 0 l 31 0 l 31 149 l 404 569 m 254 807 l 388 1004 l 606 1004 l 392 807 l 254 807 z "},"Ż":{"ha":900,"x_min":32,"x_max":868,"o":"m 564 808 l 74 808 l 74 992 l 854 992 l 854 819 l 322 183 l 868 183 l 868 0 l 32 0 l 32 172 l 564 808 m 543 1265 l 543 1103 l 356 1103 l 356 1265 l 543 1265 z "},"ż":{"ha":721,"x_min":31,"x_max":690,"o":"m 404 569 l 58 569 l 58 718 l 664 718 l 664 569 l 290 149 l 690 149 l 690 0 l 31 0 l 31 149 l 404 569 m 454 992 l 454 829 l 267 829 l 267 992 l 454 992 z "},"Ž":{"ha":900,"x_min":32,"x_max":868,"o":"m 542 1081 l 694 1278 l 542 1278 l 451 1165 l 363 1278 l 207 1278 l 361 1081 l 542 1081 m 32 172 l 32 0 l 868 0 l 868 183 l 322 183 l 854 819 l 854 992 l 74 992 l 74 808 l 564 808 l 32 172 z "},"ž":{"ha":721,"x_min":31,"x_max":690,"o":"m 451 807 l 604 1004 l 451 1004 l 361 892 l 272 1004 l 117 1004 l 271 807 l 451 807 m 31 149 l 31 0 l 690 0 l 690 149 l 290 149 l 664 569 l 664 718 l 58 718 l 58 569 l 404 569 l 31 149 z "},"Ə":{"ha":1039,"x_min":53,"x_max":986,"o":"m 522 -22 q 315 17 403 -22 q 168 126 226 57 q 81 290 110 196 q 53 492 53 383 q 53 524 53 501 q 56 556 54 546 l 768 556 q 681 760 753 686 q 504 835 610 835 q 359 795 421 835 q 278 681 297 756 l 71 681 q 117 814 81 753 q 209 920 153 875 q 340 990 265 965 q 500 1015 414 1015 q 704 975 614 1015 q 857 865 794 935 q 953 700 919 794 q 986 497 986 606 q 952 285 986 381 q 857 121 918 189 q 710 15 796 53 q 522 -22 625 -22 m 521 158 q 675 215 613 158 q 761 386 738 272 l 281 386 q 306 296 288 338 q 353 224 324 254 q 425 176 383 193 q 521 158 467 158 z "},"ƒ":{"ha":772,"x_min":-6,"x_max":710,"o":"m 19 -82 l -6 -231 q 46 -234 22 -233 q 96 -235 69 -235 q 224 -218 174 -235 q 306 -167 274 -201 q 356 -83 338 -133 q 386 38 374 -32 l 464 468 l 603 468 l 625 600 l 489 600 l 524 781 q 553 846 532 825 q 629 867 575 867 q 656 865 643 867 q 685 857 669 864 l 710 1006 q 606 1015 665 1015 q 489 1003 538 1015 q 407 962 440 990 q 353 888 374 933 q 319 776 332 842 l 286 600 l 160 600 l 135 468 l 263 468 l 175 11 q 147 -62 167 -36 q 75 -86 128 -87 q 19 -82 47 -86 z "},"Ƣ":{"ha":1281,"x_min":53,"x_max":1185,"o":"m 967 808 l 842 808 l 842 74 q 707 3 782 29 q 540 -22 632 -22 q 335 17 425 -22 q 182 126 244 57 q 86 290 119 196 q 53 492 53 383 q 86 697 53 601 q 182 864 119 793 q 335 975 244 935 q 540 1015 425 1015 q 700 992 625 1015 l 1185 992 l 1185 -251 l 967 -251 l 967 808 m 540 160 q 624 171 583 160 l 624 821 q 540 832 583 832 q 415 803 467 832 q 332 727 364 775 q 285 618 300 679 q 271 492 271 557 q 285 370 271 429 q 332 264 300 311 q 415 188 364 217 q 540 160 467 160 z "},"ƣ":{"ha":1061,"x_min":53,"x_max":986,"o":"m 789 569 l 694 569 l 694 85 q 578 9 646 36 q 424 -18 510 -18 q 271 8 339 -18 q 154 84 203 35 q 79 203 106 133 q 53 358 53 272 q 79 515 53 444 q 154 634 106 585 q 271 710 203 683 q 424 738 339 738 q 554 718 493 738 l 986 718 l 986 -251 l 789 -251 l 789 569 m 424 129 q 497 143 463 129 l 497 575 q 463 585 478 582 q 424 589 447 589 q 340 569 374 589 q 287 517 307 549 q 258 443 267 485 q 250 358 250 401 q 258 274 250 315 q 287 201 267 233 q 340 149 307 168 q 424 129 374 129 z "},"Ƶ":{"ha":900,"x_min":32,"x_max":868,"o":"m 32 172 l 250 426 l 126 426 l 126 596 l 394 596 l 578 808 l 74 808 l 74 992 l 854 992 l 854 819 l 663 596 l 789 596 l 789 426 l 517 426 l 308 183 l 868 183 l 868 0 l 32 0 l 32 172 z "},"ƶ":{"ha":721,"x_min":31,"x_max":690,"o":"m 31 149 l 176 307 l 106 307 l 106 433 l 293 433 l 418 569 l 58 569 l 58 718 l 664 718 l 664 569 l 539 433 l 619 433 l 619 307 l 422 307 l 276 149 l 690 149 l 690 0 l 31 0 l 31 149 z "},"ə":{"ha":797,"x_min":42,"x_max":757,"o":"m 390 -18 q 231 17 299 -18 q 119 113 163 53 q 56 249 75 172 q 42 408 36 325 l 560 408 q 511 547 556 504 q 383 590 467 590 q 281 560 324 590 q 228 497 238 531 l 54 497 q 182 682 96 626 q 390 738 268 738 q 543 710 475 738 q 658 633 611 683 q 731 514 706 583 q 757 361 757 444 q 731 211 757 281 q 656 91 704 142 q 540 11 607 40 q 390 -18 472 -18 m 396 131 q 474 147 443 131 q 524 186 506 163 q 551 236 543 210 q 560 283 558 263 l 239 283 q 288 169 253 208 q 396 131 324 131 z "},"ˆ":{"ha":360,"x_min":-62,"x_max":424,"o":"m 90 1004 l -62 807 l 86 807 l 175 919 l 261 807 l 424 807 l 271 1004 l 90 1004 z "},"ˇ":{"ha":360,"x_min":-62,"x_max":424,"o":"m 271 807 l 424 1004 l 271 1004 l 181 892 l 92 1004 l -62 1004 l 90 807 l 271 807 z "},"˘":{"ha":360,"x_min":-53,"x_max":414,"o":"m 36 1010 l -53 1010 q 167 807 -36 807 q 335 854 271 807 q 414 1010 400 901 l 326 1010 q 275 934 314 957 q 174 911 236 911 q 131 916 153 911 q 88 933 108 921 q 54 963 68 944 q 36 1010 40 982 z "},"˙":{"ha":360,"x_min":86,"x_max":274,"o":"m 86 992 l 86 829 l 274 829 l 274 992 l 86 992 z "},"˚":{"ha":360,"x_min":10,"x_max":350,"o":"m 10 911 q 23 845 10 876 q 59 791 36 814 q 113 755 82 768 q 179 742 144 742 q 246 755 215 742 q 300 791 276 768 q 337 845 324 814 q 350 911 350 876 q 337 978 350 947 q 300 1031 324 1008 q 246 1067 276 1054 q 179 1081 215 1081 q 113 1067 144 1081 q 59 1031 82 1054 q 23 978 36 1008 q 10 911 10 947 m 92 911 q 115 980 92 951 q 179 1008 139 1008 q 244 980 219 1008 q 268 911 268 951 q 244 842 268 871 q 179 814 219 814 q 115 842 139 814 q 92 911 92 871 z "},"˛":{"ha":360,"x_min":13,"x_max":347,"o":"m 347 -207 l 281 -176 q 242 -210 261 -203 q 200 -218 222 -218 q 163 -205 179 -218 q 146 -171 146 -192 q 170 -95 146 -135 q 261 4 194 -56 l 171 4 q 81 -58 113 -29 q 33 -110 49 -87 q 15 -150 18 -133 q 13 -176 13 -167 q 31 -246 13 -221 q 74 -283 49 -271 q 124 -299 99 -296 q 161 -301 149 -301 q 257 -281 208 -301 q 347 -207 306 -260 z "},"˜":{"ha":360,"x_min":-74,"x_max":435,"o":"m 435 992 l 339 992 q 326 958 340 972 q 281 943 313 943 q 234 951 257 943 q 189 968 211 958 q 145 984 167 976 q 100 992 124 992 q 24 976 54 992 q -25 937 -6 961 q -56 883 -44 913 q -74 822 -67 853 l 10 822 q 28 865 17 849 q 68 881 40 881 q 115 874 92 881 q 165 857 139 867 q 219 841 192 849 q 279 833 247 833 q 348 849 321 833 q 392 889 375 865 q 419 940 410 913 q 435 992 428 968 z "},"˝":{"ha":360,"x_min":-76,"x_max":554,"o":"m 210 807 l 336 1004 l 554 1004 l 347 807 l 210 807 m -76 807 l 49 1004 l 267 1004 l 60 807 l -76 807 z "},"̀":{"ha":0,"x_min":-422,"x_max":-72,"o":"m -206 1004 l -72 807 l -210 807 l -422 1004 l -206 1004 z "},"́":{"ha":0,"x_min":-282,"x_max":69,"o":"m -282 807 l -149 1004 l 69 1004 l -144 807 l -282 807 z "},"̂":{"ha":0,"x_min":-419,"x_max":67,"o":"m -267 1004 l -419 807 l -271 807 l -182 919 l -96 807 l 67 807 l -86 1004 l -267 1004 z "},"̃":{"ha":0,"x_min":-431,"x_max":78,"o":"m 78 992 l -18 992 q -31 958 -17 972 q -76 943 -44 943 q -123 951 -100 943 q -168 968 -146 958 q -212 984 -190 976 q -257 992 -233 992 q -333 976 -303 992 q -382 937 -362 961 q -412 883 -401 913 q -431 822 -424 853 l -347 822 q -328 865 -340 849 q -289 881 -317 881 q -242 874 -265 881 q -192 857 -218 867 q -137 841 -165 849 q -78 833 -110 833 q -9 849 -36 833 q 35 889 18 865 q 62 940 53 913 q 78 992 71 968 z "},"̄":{"ha":0,"x_min":-435,"x_max":82,"o":"m 82 960 l 82 856 l -435 856 l -435 960 l 82 960 z "},"̆":{"ha":0,"x_min":-410,"x_max":57,"o":"m -321 1010 l -410 1010 q -190 807 -393 807 q -22 854 -86 807 q 57 1010 43 901 l -31 1010 q -82 934 -43 957 q -183 911 -121 911 q -226 916 -204 911 q -269 933 -249 921 q -303 963 -289 944 q -321 1010 -317 982 z "},"̇":{"ha":0,"x_min":-271,"x_max":-83,"o":"m -271 992 l -271 829 l -83 829 l -83 992 l -271 992 z "},"̈":{"ha":0,"x_min":-412,"x_max":60,"o":"m -226 992 l -226 829 l -412 829 l -412 992 l -226 992 m 60 992 l 60 829 l -128 829 l -128 992 l 60 992 z "},"̊":{"ha":0,"x_min":-347,"x_max":-7,"o":"m -347 911 q -334 845 -347 876 q -298 791 -321 814 q -244 755 -275 768 q -178 742 -212 742 q -111 755 -142 742 q -57 791 -81 768 q -20 845 -33 814 q -7 911 -7 876 q -20 978 -7 947 q -57 1031 -33 1008 q -111 1067 -81 1054 q -178 1081 -142 1081 q -244 1067 -212 1081 q -298 1031 -275 1054 q -334 978 -321 1008 q -347 911 -347 947 m -265 911 q -242 980 -265 951 q -178 1008 -218 1008 q -113 980 -137 1008 q -89 911 -89 951 q -113 842 -89 871 q -178 814 -137 814 q -242 842 -218 814 q -265 911 -265 871 z "},"̋":{"ha":0,"x_min":-433,"x_max":197,"o":"m -147 807 l -21 1004 l 197 1004 l -10 807 l -147 807 m -433 807 l -308 1004 l -90 1004 l -297 807 l -433 807 z "},"̌":{"ha":0,"x_min":-419,"x_max":67,"o":"m -86 807 l 67 1004 l -86 1004 l -176 892 l -265 1004 l -419 1004 l -267 807 l -86 807 z "},"̧":{"ha":0,"x_min":-340,"x_max":-6,"o":"m -311 -204 l -340 -271 q -303 -283 -321 -278 q -267 -293 -286 -289 q -225 -299 -249 -297 q -168 -301 -201 -301 q -108 -295 -137 -301 q -56 -273 -79 -289 q -19 -230 -33 -257 q -6 -162 -6 -203 q -17 -119 -6 -137 q -46 -88 -28 -100 q -87 -71 -64 -76 q -133 -65 -110 -65 q -181 -72 -164 -65 l -183 -72 l -129 3 l -197 3 l -279 -114 l -250 -147 q -194 -137 -225 -137 q -155 -147 -171 -137 q -139 -182 -139 -156 q -154 -218 -139 -207 q -194 -229 -169 -229 q -260 -222 -231 -229 q -311 -204 -289 -214 z "},"̨":{"ha":0,"x_min":-344,"x_max":-10,"o":"m -10 -207 l -76 -176 q -115 -210 -96 -203 q -157 -218 -135 -218 q -194 -205 -178 -218 q -211 -171 -211 -192 q -187 -95 -211 -135 q -96 4 -162 -56 l -186 4 q -276 -58 -244 -29 q -324 -110 -308 -87 q -342 -150 -339 -133 q -344 -176 -344 -167 q -326 -246 -344 -221 q -283 -283 -308 -271 q -233 -299 -258 -296 q -196 -301 -208 -301 q -100 -281 -149 -301 q -10 -207 -51 -260 z "},"̸":{"ha":0,"x_min":-526,"x_max":18,"o":"m -140 1015 l -526 -22 l -369 -22 l 18 1015 l -140 1015 z "},"Ω":{"ha":1074,"x_min":75,"x_max":999,"o":"m 79 149 l 329 149 l 329 200 q 219 253 267 218 q 140 338 172 289 q 91 444 107 386 q 75 565 75 503 q 112 743 75 663 q 212 881 149 824 q 359 970 275 939 q 538 1001 443 1001 q 716 970 632 1001 q 863 883 800 939 q 962 746 925 826 q 999 568 999 665 q 983 447 999 506 q 935 338 967 388 q 855 253 903 289 q 743 200 807 217 l 743 149 l 994 149 l 994 0 l 604 0 l 604 278 q 760 375 708 301 q 811 553 811 449 q 792 665 811 613 q 737 758 772 718 q 651 820 701 797 q 539 843 601 843 q 426 819 476 843 q 338 756 375 796 q 282 662 301 715 q 263 549 263 608 q 313 373 263 444 q 468 278 364 301 l 468 0 l 79 0 l 79 149 z "},"π":{"ha":925,"x_min":42,"x_max":883,"o":"m 739 -10 q 663 4 693 -10 q 615 42 632 18 q 590 100 597 67 q 582 171 582 133 l 582 569 l 326 569 l 326 0 l 139 0 l 139 569 l 42 569 l 42 718 l 879 718 l 879 569 l 769 569 l 769 233 q 770 203 769 218 q 776 177 771 189 q 792 158 782 165 q 822 151 803 151 q 883 165 851 151 l 883 18 q 813 -3 854 4 q 739 -10 771 -10 z "},"Ѐ":{"ha":900,"x_min":96,"x_max":849,"o":"m 96 992 l 838 992 l 838 808 l 314 808 l 314 596 l 794 596 l 794 426 l 314 426 l 314 183 l 849 183 l 849 0 l 96 0 l 96 992 m 422 1278 l 556 1081 l 418 1081 l 206 1278 l 422 1278 z "},"Ё":{"ha":900,"x_min":96,"x_max":849,"o":"m 96 992 l 838 992 l 838 808 l 314 808 l 314 596 l 794 596 l 794 426 l 314 426 l 314 183 l 849 183 l 849 0 l 96 0 l 96 992 m 428 1265 l 428 1103 l 242 1103 l 242 1265 l 428 1265 m 714 1265 l 714 1103 l 526 1103 l 526 1265 l 714 1265 z "},"Ђ":{"ha":1117,"x_min":18,"x_max":1061,"o":"m 701 -15 q 637 -11 672 -15 q 579 0 601 -7 l 579 164 q 596 159 585 161 q 618 156 607 157 q 640 154 629 154 q 656 154 650 154 q 728 163 694 154 q 788 190 763 171 q 827 240 813 208 q 842 319 842 272 q 797 435 842 394 q 672 475 751 475 q 542 417 592 475 q 492 254 492 358 l 492 0 l 274 0 l 274 808 l 18 808 l 18 992 l 817 992 l 817 808 l 492 808 l 492 535 q 592 613 528 583 q 725 643 656 643 q 859 625 797 643 q 965 568 921 607 q 1035 467 1010 529 q 1061 319 1061 406 q 1032 163 1061 226 q 953 59 1003 99 q 839 2 904 19 q 701 -15 774 -15 z "},"Ѓ":{"ha":797,"x_min":103,"x_max":792,"o":"m 103 992 l 792 992 l 792 808 l 321 808 l 321 0 l 103 0 l 103 992 m 319 1081 l 453 1278 l 671 1278 l 457 1081 l 319 1081 z "},"Є":{"ha":1022,"x_min":53,"x_max":969,"o":"m 531 -22 q 334 15 422 -22 q 183 121 246 53 q 87 285 121 189 q 53 497 53 381 q 86 700 53 606 q 182 865 119 794 q 335 975 244 935 q 539 1015 425 1015 q 699 990 625 1015 q 828 920 772 965 q 919 814 883 875 q 964 681 954 753 l 753 681 q 675 793 732 753 q 535 833 618 833 q 435 815 478 833 q 360 766 392 797 q 309 692 329 735 q 279 601 289 650 l 638 601 l 638 431 l 272 431 q 353 231 288 304 q 532 157 418 157 q 757 350 717 157 l 969 350 q 924 198 957 267 q 835 80 890 129 q 704 4 781 31 q 531 -22 628 -22 z "},"Ѕ":{"ha":901,"x_min":33,"x_max":868,"o":"m 456 -22 q 297 -2 374 -22 q 160 61 219 18 q 67 171 101 104 q 33 329 32 238 l 244 329 q 263 244 244 279 q 310 188 281 210 q 380 156 340 167 q 464 146 419 146 q 526 151 493 146 q 589 169 560 156 q 638 208 618 183 q 657 269 657 232 q 631 335 657 310 q 564 376 606 360 q 469 406 522 393 q 363 433 417 418 q 254 467 307 447 q 160 519 201 486 q 92 599 118 551 q 67 715 67 646 q 99 848 67 792 q 185 942 132 904 q 304 997 238 979 q 438 1015 371 1015 q 587 998 515 1015 q 714 942 658 981 q 802 842 769 903 q 835 696 835 782 l 624 696 q 605 769 621 740 q 563 815 589 799 q 501 839 536 832 q 428 846 467 846 q 375 840 401 846 q 327 821 349 835 q 292 785 306 807 q 278 733 278 764 q 289 686 278 704 q 333 653 300 668 q 423 622 365 638 q 574 583 481 607 q 651 563 601 578 q 749 517 700 549 q 833 431 797 485 q 868 294 868 378 q 842 167 868 225 q 763 67 815 110 q 634 1 711 25 q 456 -22 557 -22 z "},"І":{"ha":410,"x_min":96,"x_max":314,"o":"m 96 992 l 314 992 l 314 0 l 96 0 l 96 992 z "},"Ї":{"ha":410,"x_min":-32,"x_max":440,"o":"m 96 992 l 314 992 l 314 0 l 96 0 l 96 992 m 154 1265 l 154 1103 l -32 1103 l -32 1265 l 154 1265 m 440 1265 l 440 1103 l 253 1103 l 253 1265 l 440 1265 z "},"Ј":{"ha":772,"x_min":19,"x_max":676,"o":"m 346 -22 q 225 -5 283 -22 q 121 49 167 13 q 47 144 75 86 q 19 283 19 201 l 19 369 l 217 369 l 217 325 q 222 258 217 289 q 242 206 228 228 q 280 172 256 185 q 343 160 304 160 q 410 175 386 160 q 444 215 433 190 q 456 267 454 239 q 458 322 458 296 l 458 992 l 676 992 l 676 313 q 667 206 676 264 q 622 97 657 147 q 522 12 588 46 q 346 -22 457 -22 z "},"Љ":{"ha":1563,"x_min":-3,"x_max":1521,"o":"m 140 -11 q 106 -10 125 -11 q 65 -6 86 -8 q 26 -1 44 -4 q -3 6 8 1 l -3 172 q 15 168 3 169 q 39 166 26 167 q 63 165 51 165 q 81 164 75 164 q 106 167 90 164 q 139 180 122 169 q 170 211 156 190 q 193 268 185 232 q 208 373 203 310 q 217 524 214 436 q 222 728 221 613 q 222 992 222 844 l 936 992 l 936 633 l 1169 633 q 1308 615 1244 633 q 1419 557 1372 596 q 1494 458 1467 518 q 1521 318 1521 399 q 1494 176 1521 236 q 1420 77 1468 117 q 1306 19 1372 38 q 1158 0 1239 0 l 719 0 l 719 808 l 429 808 q 424 527 428 644 q 411 326 421 410 q 383 184 401 242 q 333 82 365 126 q 250 10 297 32 q 140 -11 203 -11 m 1142 178 q 1265 210 1221 178 q 1310 321 1310 242 q 1297 387 1310 360 q 1262 431 1285 414 q 1208 455 1239 447 q 1140 463 1176 463 l 936 463 l 936 178 l 1142 178 z "},"Њ":{"ha":1560,"x_min":96,"x_max":1518,"o":"m 96 992 l 314 992 l 314 619 l 715 619 l 715 992 l 933 992 l 933 619 l 1167 619 q 1306 601 1242 619 q 1417 544 1369 582 q 1491 448 1464 506 q 1518 311 1518 390 q 1492 174 1518 232 q 1417 76 1465 115 q 1303 19 1369 38 q 1156 0 1236 0 l 715 0 l 715 436 l 314 436 l 314 0 l 96 0 l 96 992 m 1139 178 q 1263 208 1218 178 q 1307 314 1307 239 q 1294 377 1307 351 q 1259 419 1282 403 q 1205 442 1236 435 q 1138 449 1174 449 l 933 449 l 933 178 l 1139 178 z "},"Ћ":{"ha":1117,"x_min":18,"x_max":1033,"o":"m 274 808 l 18 808 l 18 992 l 817 992 l 817 808 l 492 808 l 492 594 q 536 603 510 599 q 591 613 563 608 q 648 619 619 617 q 699 622 676 622 q 844 604 782 622 q 949 545 907 586 q 1013 438 992 504 q 1033 276 1033 372 l 1033 0 l 817 0 l 817 279 q 781 406 817 369 q 663 442 746 442 q 615 439 640 442 q 567 433 590 436 q 524 425 543 429 q 492 419 504 421 l 492 0 l 274 0 l 274 808 z "},"Ќ":{"ha":1003,"x_min":96,"x_max":1011,"o":"m 96 992 l 314 992 l 314 581 l 701 992 l 974 992 l 586 600 l 1011 0 l 738 0 l 439 446 l 314 319 l 314 0 l 96 0 l 96 992 m 381 1081 l 514 1278 l 732 1278 l 518 1081 l 381 1081 z "},"Ѝ":{"ha":1035,"x_min":96,"x_max":939,"o":"m 96 992 l 313 992 l 313 304 l 317 304 l 694 992 l 939 992 l 939 0 l 722 0 l 722 689 l 718 689 l 340 0 l 96 0 l 96 992 m 475 1278 l 608 1081 l 471 1081 l 258 1278 l 475 1278 z "},"Ў":{"ha":899,"x_min":-7,"x_max":908,"o":"m 246 -18 q 177 -12 210 -18 q 125 0 144 -6 l 125 176 q 229 165 165 165 q 304 191 279 165 q 329 250 329 217 q 314 316 329 282 q 283 381 299 350 l -7 992 l 233 992 l 461 475 l 676 992 l 908 992 l 575 261 q 507 133 540 186 q 435 46 474 79 q 351 -3 397 13 q 246 -18 306 -18 m 458 1076 q 294 1129 357 1076 q 232 1290 232 1182 l 310 1290 q 360 1217 319 1242 q 458 1192 400 1192 q 557 1217 517 1192 q 607 1290 597 1242 l 685 1290 q 622 1129 685 1182 q 458 1076 560 1076 z "},"Џ":{"ha":1017,"x_min":96,"x_max":921,"o":"m 403 0 l 96 0 l 96 992 l 314 992 l 314 183 l 703 183 l 703 992 l 921 992 l 921 0 l 613 0 l 613 -226 l 403 -226 l 403 0 z "},"А":{"ha":951,"x_min":-8,"x_max":961,"o":"m 367 992 l 590 992 l 961 0 l 735 0 l 660 221 l 289 221 l 211 0 l -8 0 l 367 992 m 603 383 l 478 747 l 475 747 l 346 383 l 603 383 z "},"Б":{"ha":975,"x_min":96,"x_max":924,"o":"m 96 992 l 832 992 l 832 813 l 314 813 l 314 625 l 572 625 q 711 607 647 625 q 822 551 775 589 q 897 453 869 513 q 924 314 924 394 q 897 173 924 232 q 823 75 871 114 q 708 18 775 36 q 561 0 642 0 l 96 0 l 96 992 m 544 178 q 668 208 624 178 q 713 317 713 238 q 700 382 713 356 q 665 424 688 408 q 610 447 642 440 q 543 454 579 454 l 314 454 l 314 178 l 544 178 z "},"В":{"ha":978,"x_min":96,"x_max":926,"o":"m 96 992 l 563 992 q 692 979 633 992 q 792 938 750 967 q 856 863 833 910 q 879 746 879 815 q 845 621 879 671 q 744 539 811 571 q 881 447 836 513 q 926 288 926 381 q 897 158 926 213 q 819 68 868 103 q 706 17 769 33 q 576 0 643 0 l 96 0 l 96 992 m 547 169 q 608 176 579 169 q 660 197 638 182 q 695 236 682 211 q 708 300 708 261 q 665 409 708 376 q 551 442 622 442 l 314 442 l 314 169 l 547 169 m 535 590 q 631 618 593 590 q 668 708 668 646 q 656 765 668 743 q 622 800 643 788 q 574 817 601 813 q 518 822 547 822 l 314 822 l 314 590 l 535 590 z "},"Г":{"ha":797,"x_min":103,"x_max":792,"o":"m 103 992 l 792 992 l 792 808 l 321 808 l 321 0 l 103 0 l 103 992 z "},"Д":{"ha":1072,"x_min":11,"x_max":1058,"o":"m 11 183 l 94 183 q 165 310 138 242 q 206 458 192 378 q 226 633 221 539 q 231 838 231 728 l 231 992 l 950 992 l 950 183 l 1058 183 l 1058 -226 l 849 -226 l 849 0 l 221 0 l 221 -226 l 11 -226 l 11 183 m 732 183 l 732 813 l 439 813 l 439 794 q 434 607 439 693 q 417 447 429 521 q 384 308 406 372 q 329 183 363 243 l 732 183 z "},"Е":{"ha":900,"x_min":96,"x_max":849,"o":"m 96 992 l 838 992 l 838 808 l 314 808 l 314 596 l 794 596 l 794 426 l 314 426 l 314 183 l 849 183 l 849 0 l 96 0 l 96 992 z "},"Ж":{"ha":1474,"x_min":-8,"x_max":1482,"o":"m 388 588 l 28 992 l 285 992 l 632 583 l 632 992 l 842 992 l 842 583 l 1189 992 l 1446 992 l 1086 588 l 1482 0 l 1213 0 l 949 433 l 842 313 l 842 0 l 632 0 l 632 313 l 525 433 l 260 0 l -8 0 l 388 588 z "},"З":{"ha":899,"x_min":29,"x_max":847,"o":"m 458 -22 q 143 72 254 -22 q 29 333 32 165 l 244 333 q 263 247 246 283 q 309 188 281 211 q 376 155 338 165 q 458 144 414 144 q 582 191 535 144 q 629 306 629 238 q 614 374 629 347 q 572 417 599 401 q 513 439 546 433 q 443 444 479 444 l 368 444 l 368 592 q 399 590 381 590 q 426 590 417 590 q 606 725 606 590 q 565 815 606 783 q 457 847 524 847 q 328 808 376 847 q 274 697 281 769 l 68 697 q 101 840 69 781 q 187 939 133 900 q 310 997 240 978 q 458 1015 381 1015 q 598 995 533 1015 q 709 939 663 975 q 783 852 756 903 q 810 739 810 801 q 768 610 810 664 q 660 540 726 556 q 733 514 699 533 q 793 465 768 494 q 833 394 818 435 q 847 307 847 354 q 817 174 847 235 q 735 70 788 114 q 613 2 683 26 q 458 -22 542 -22 z "},"И":{"ha":1035,"x_min":96,"x_max":939,"o":"m 96 992 l 313 992 l 313 304 l 317 304 l 694 992 l 939 992 l 939 0 l 722 0 l 722 689 l 718 689 l 340 0 l 96 0 l 96 992 z "},"Й":{"ha":1035,"x_min":96,"x_max":939,"o":"m 96 992 l 313 992 l 313 304 l 317 304 l 694 992 l 939 992 l 939 0 l 722 0 l 722 689 l 718 689 l 340 0 l 96 0 l 96 992 m 531 1076 q 367 1129 429 1076 q 304 1290 304 1182 l 382 1290 q 432 1217 392 1242 q 531 1192 472 1192 q 629 1217 589 1192 q 679 1290 669 1242 l 757 1290 q 694 1129 757 1182 q 531 1076 632 1076 z "},"К":{"ha":1003,"x_min":96,"x_max":1011,"o":"m 96 992 l 314 992 l 314 581 l 701 992 l 974 992 l 586 600 l 1011 0 l 738 0 l 439 446 l 314 319 l 314 0 l 96 0 l 96 992 z "},"Л":{"ha":1032,"x_min":-3,"x_max":936,"o":"m 140 -11 q 106 -10 125 -11 q 65 -6 86 -8 q 26 -1 44 -4 q -3 6 8 1 l -3 172 q 15 168 3 169 q 39 166 26 167 q 63 165 51 165 q 81 164 75 164 q 106 167 90 164 q 139 180 122 169 q 170 211 156 190 q 193 268 185 232 q 208 373 203 310 q 217 524 214 436 q 222 728 221 613 q 222 992 222 844 l 936 992 l 936 0 l 719 0 l 719 808 l 429 808 q 424 527 428 644 q 411 326 421 410 q 383 184 401 242 q 333 82 365 126 q 250 10 297 32 q 140 -11 203 -11 z "},"М":{"ha":1260,"x_min":96,"x_max":1164,"o":"m 96 992 l 403 992 l 635 310 l 638 310 l 857 992 l 1164 992 l 1164 0 l 960 0 l 960 703 l 957 703 l 714 0 l 546 0 l 303 696 l 300 696 l 300 0 l 96 0 l 96 992 z "},"Н":{"ha":1029,"x_min":96,"x_max":933,"o":"m 96 992 l 314 992 l 314 611 l 715 611 l 715 992 l 933 992 l 933 0 l 715 0 l 715 428 l 314 428 l 314 0 l 96 0 l 96 992 z "},"О":{"ha":1081,"x_min":53,"x_max":1028,"o":"m 540 -22 q 335 17 425 -22 q 182 126 244 57 q 86 290 119 196 q 53 492 53 383 q 86 697 53 601 q 182 864 119 793 q 335 975 244 935 q 540 1015 425 1015 q 745 975 654 1015 q 899 864 836 935 q 994 697 961 793 q 1028 492 1028 601 q 994 290 1028 383 q 899 126 961 196 q 745 17 836 57 q 540 -22 654 -22 m 540 160 q 665 188 614 160 q 749 264 717 217 q 795 370 781 311 q 810 492 810 429 q 795 618 810 557 q 749 727 781 679 q 665 803 717 775 q 540 832 614 832 q 415 803 467 832 q 332 727 364 775 q 285 618 300 679 q 271 492 271 557 q 285 370 271 429 q 332 264 300 311 q 415 188 364 217 q 540 160 467 160 z "},"П":{"ha":1017,"x_min":96,"x_max":921,"o":"m 96 992 l 921 992 l 921 0 l 703 0 l 703 808 l 314 808 l 314 0 l 96 0 l 96 992 z "},"Р":{"ha":926,"x_min":96,"x_max":886,"o":"m 96 992 l 543 992 q 701 965 636 992 q 808 893 767 938 q 867 791 849 849 q 886 674 886 733 q 867 556 886 613 q 808 454 849 499 q 701 383 767 410 q 543 356 636 356 l 314 356 l 314 0 l 96 0 l 96 992 m 483 525 q 556 531 521 525 q 617 552 590 536 q 659 597 643 568 q 675 674 675 626 q 659 750 675 721 q 617 795 643 779 q 556 817 590 811 q 483 822 521 822 l 314 822 l 314 525 l 483 525 z "},"С":{"ha":1029,"x_min":53,"x_max":976,"o":"m 540 -22 q 335 17 425 -22 q 182 126 244 57 q 86 290 119 196 q 53 492 53 383 q 86 697 53 601 q 182 864 119 793 q 335 975 244 935 q 540 1015 425 1015 q 694 992 621 1015 q 826 923 768 968 q 921 811 883 878 q 968 658 958 744 l 757 658 q 732 727 751 696 q 683 782 713 758 q 617 819 654 806 q 540 832 581 832 q 415 803 467 832 q 332 727 364 775 q 285 618 300 679 q 271 492 271 557 q 285 370 271 429 q 332 264 300 311 q 415 188 364 217 q 540 160 467 160 q 697 221 640 160 q 765 382 753 282 l 976 382 q 933 213 968 288 q 842 86 899 139 q 708 6 785 33 q 540 -22 632 -22 z "},"Т":{"ha":849,"x_min":18,"x_max":831,"o":"m 315 808 l 18 808 l 18 992 l 831 992 l 831 808 l 533 808 l 533 0 l 315 0 l 315 808 z "},"У":{"ha":899,"x_min":-7,"x_max":908,"o":"m 246 -18 q 177 -12 210 -18 q 125 0 144 -6 l 125 176 q 229 165 165 165 q 304 191 279 165 q 329 250 329 217 q 314 316 329 282 q 283 381 299 350 l -7 992 l 233 992 l 461 475 l 676 992 l 908 992 l 575 261 q 507 133 540 186 q 435 46 474 79 q 351 -3 397 13 q 246 -18 306 -18 z "},"Ф":{"ha":1199,"x_min":49,"x_max":1150,"o":"m 492 86 q 310 122 392 90 q 169 207 228 153 q 80 337 111 261 q 49 506 49 413 q 79 669 49 594 q 167 799 110 744 q 307 884 225 853 q 492 918 389 915 l 492 1015 l 707 1015 l 707 918 q 892 884 810 915 q 1031 799 974 853 q 1119 669 1089 744 q 1150 506 1150 594 q 1119 337 1150 413 q 1029 207 1088 261 q 889 122 971 153 q 707 86 807 90 l 707 -22 l 492 -22 l 492 86 m 492 761 q 394 738 438 758 q 321 684 351 718 q 274 604 290 650 q 258 506 258 558 q 275 411 258 457 q 323 330 292 365 q 397 272 354 294 q 492 249 439 250 l 492 761 m 707 249 q 802 272 758 250 q 876 330 846 294 q 924 411 907 365 q 942 506 942 457 q 925 604 942 558 q 878 684 908 650 q 805 738 849 718 q 707 761 761 758 l 707 249 l 707 249 z "},"Х":{"ha":926,"x_min":-7,"x_max":935,"o":"m 339 519 l 19 992 l 272 992 l 467 675 l 668 992 l 907 992 l 589 518 l 935 0 l 675 0 l 458 343 l 238 0 l -7 0 l 339 519 z "},"Ц":{"ha":1044,"x_min":96,"x_max":1031,"o":"m 821 0 l 96 0 l 96 992 l 314 992 l 314 183 l 703 183 l 703 992 l 921 992 l 921 183 l 1031 183 l 1031 -226 l 821 -226 l 821 0 z "},"Ч":{"ha":944,"x_min":63,"x_max":847,"o":"m 629 376 q 584 367 611 372 q 527 358 557 363 q 468 351 497 354 q 417 349 439 349 q 267 367 333 349 q 156 426 201 385 q 87 533 111 467 q 63 694 63 599 l 63 992 l 279 992 l 279 692 q 315 565 279 601 q 433 529 350 529 q 485 532 456 529 q 542 538 514 535 q 593 545 569 542 q 629 551 617 549 l 629 992 l 847 992 l 847 0 l 629 0 l 629 376 z "},"Ш":{"ha":1501,"x_min":96,"x_max":1406,"o":"m 96 992 l 314 992 l 314 183 l 642 183 l 642 992 l 860 992 l 860 183 l 1188 183 l 1188 992 l 1406 992 l 1406 0 l 96 0 l 96 992 z "},"Щ":{"ha":1529,"x_min":96,"x_max":1515,"o":"m 1306 0 l 96 0 l 96 992 l 314 992 l 314 183 l 642 183 l 642 992 l 860 992 l 860 183 l 1188 183 l 1188 992 l 1406 992 l 1406 183 l 1515 183 l 1515 -226 l 1306 -226 l 1306 0 z "},"Ъ":{"ha":1131,"x_min":18,"x_max":1089,"o":"m 286 808 l 18 808 l 18 992 l 504 992 l 504 633 l 738 633 q 876 615 813 633 q 988 557 940 596 q 1062 458 1035 518 q 1089 318 1089 399 q 1063 176 1089 236 q 988 77 1036 117 q 874 19 940 38 q 726 0 807 0 l 286 0 l 286 808 m 710 178 q 833 210 789 178 q 878 321 878 242 q 865 387 878 360 q 830 431 853 414 q 776 455 807 447 q 708 463 744 463 l 504 463 l 504 178 l 710 178 z "},"Ы":{"ha":1290,"x_min":96,"x_max":1194,"o":"m 96 992 l 314 992 l 314 633 l 519 633 q 658 615 594 633 q 769 557 722 596 q 844 458 817 518 q 871 318 871 399 q 844 176 871 236 q 770 77 818 117 q 656 19 722 38 q 508 0 589 0 l 96 0 l 96 992 m 492 178 q 615 210 571 178 q 660 321 660 242 q 647 387 660 360 q 612 431 635 414 q 558 455 589 447 q 490 463 526 463 l 314 463 l 314 178 l 492 178 m 976 992 l 1194 992 l 1194 0 l 976 0 l 976 992 z "},"Ь":{"ha":940,"x_min":96,"x_max":899,"o":"m 96 992 l 314 992 l 314 633 l 547 633 q 686 615 622 633 q 797 557 750 596 q 872 458 844 518 q 899 318 899 399 q 872 176 899 236 q 798 77 846 117 q 683 19 750 38 q 536 0 617 0 l 96 0 l 96 992 m 519 178 q 643 210 599 178 q 688 321 688 242 q 675 387 688 360 q 640 431 663 414 q 585 455 617 447 q 518 463 554 463 l 314 463 l 314 178 l 519 178 z "},"Э":{"ha":1025,"x_min":53,"x_max":972,"o":"m 494 -22 q 321 4 397 -22 q 189 80 244 31 q 99 198 133 129 q 53 350 65 267 l 263 350 q 493 158 303 158 q 672 231 604 158 q 754 431 739 304 l 388 431 l 388 601 l 747 601 q 719 691 738 649 q 669 765 700 733 q 593 816 638 797 q 490 835 549 835 q 348 794 407 835 q 268 681 289 753 l 61 681 q 106 814 71 753 q 197 920 142 875 q 326 990 253 965 q 486 1015 400 1015 q 690 975 600 1015 q 843 865 781 935 q 939 700 906 794 q 972 497 972 606 q 938 285 972 381 q 842 121 904 189 q 691 15 779 53 q 494 -22 603 -22 z "},"Ю":{"ha":1421,"x_min":96,"x_max":1368,"o":"m 921 -22 q 748 10 826 -22 q 611 103 669 43 q 517 247 553 163 q 474 435 482 331 l 314 435 l 314 0 l 96 0 l 96 992 l 314 992 l 314 611 l 479 611 q 532 778 494 704 q 626 906 569 853 q 758 987 683 958 q 922 1015 832 1015 q 1104 978 1022 1015 q 1244 872 1186 940 q 1335 707 1303 803 q 1368 494 1368 611 q 1335 284 1368 379 q 1244 121 1303 189 q 1103 15 1186 53 q 921 -22 1021 -22 m 922 160 q 1088 249 1028 160 q 1149 499 1149 339 q 1088 744 1149 657 q 919 832 1028 832 q 824 809 867 832 q 752 742 782 786 q 706 637 722 699 q 690 499 690 575 q 752 250 690 339 q 922 160 814 161 z "},"Я":{"ha":1007,"x_min":4,"x_max":911,"o":"m 304 392 q 145 492 206 417 q 85 689 85 568 q 113 825 85 768 q 187 919 140 882 q 295 974 233 957 q 425 992 357 992 l 911 992 l 911 0 l 694 0 l 694 374 l 540 374 l 276 0 l 4 0 l 304 392 m 694 536 l 694 821 l 479 821 q 412 816 444 821 q 353 797 379 811 q 313 756 328 782 q 297 688 297 731 q 313 613 297 642 q 356 566 329 583 q 417 542 382 549 q 489 536 451 536 l 694 536 z "},"а":{"ha":797,"x_min":44,"x_max":744,"o":"m 289 -18 q 193 -6 238 -18 q 115 33 149 7 q 63 100 82 60 q 44 196 44 140 q 66 297 44 257 q 122 360 88 336 q 199 395 156 383 q 288 414 243 407 q 375 425 332 421 q 451 438 418 429 q 504 462 485 446 q 522 508 524 478 q 512 558 522 539 q 484 588 501 578 q 444 602 467 599 q 394 606 421 606 q 303 581 336 606 q 264 497 269 556 l 67 497 q 101 612 71 565 q 179 686 132 658 q 285 726 226 714 q 404 738 343 738 q 514 730 458 738 q 615 700 569 722 q 690 638 661 678 q 719 533 719 597 l 719 160 q 725 67 719 111 q 744 0 731 22 l 544 0 q 535 34 539 17 q 531 69 532 51 q 419 1 483 21 q 289 -18 356 -18 m 363 113 q 453 132 421 113 q 500 178 485 151 q 519 233 515 206 q 522 278 522 261 l 522 351 q 492 334 510 340 q 451 324 474 328 q 406 317 429 319 q 358 310 382 314 q 314 299 335 306 q 277 280 293 292 q 251 250 261 268 q 242 204 242 232 q 251 159 242 176 q 278 131 261 142 q 317 117 294 121 q 363 113 339 113 z "},"б":{"ha":843,"x_min":67,"x_max":790,"o":"m 417 -18 q 244 21 313 -18 q 137 122 176 60 q 82 263 97 185 q 67 419 67 340 q 75 601 67 514 q 114 758 83 688 q 202 881 144 829 q 358 960 260 933 q 430 971 389 968 q 508 978 471 974 q 572 990 546 982 q 599 1015 597 997 l 772 1015 q 744 910 767 949 q 678 848 721 871 q 572 815 635 825 q 425 796 510 804 q 313 764 358 789 q 238 701 267 739 q 194 615 208 663 q 174 514 179 567 l 178 514 q 213 586 190 550 q 271 651 236 622 q 353 699 306 681 q 461 718 400 718 q 590 692 529 718 q 694 617 650 665 q 765 501 739 568 q 790 350 790 433 q 765 197 790 265 q 690 81 739 129 q 572 8 642 33 q 417 -18 503 -18 m 431 129 q 549 186 506 129 q 593 351 593 243 q 550 516 593 457 q 428 575 507 575 q 310 515 353 575 q 267 350 267 456 q 310 185 267 242 q 431 129 354 129 z "},"в":{"ha":807,"x_min":81,"x_max":756,"o":"m 81 718 l 493 718 q 582 708 540 718 q 655 676 624 697 q 704 619 686 654 q 722 538 722 585 q 696 447 722 485 q 625 389 669 408 q 718 331 681 374 q 756 214 756 289 q 737 122 756 161 q 685 55 718 82 q 607 14 651 28 q 513 0 563 0 l 81 0 l 81 718 m 421 128 q 469 131 446 128 q 511 144 493 135 q 540 173 529 154 q 551 222 551 192 q 540 272 551 253 q 508 301 528 292 q 464 315 489 311 q 413 318 439 318 l 275 318 l 275 128 l 421 128 m 406 429 q 449 432 428 429 q 486 444 469 435 q 513 469 503 453 q 522 513 522 485 q 513 555 522 539 q 487 579 503 571 q 449 590 471 588 q 406 593 428 593 l 275 593 l 275 429 l 406 429 z "},"г":{"ha":629,"x_min":82,"x_max":624,"o":"m 82 718 l 624 718 l 624 569 l 279 569 l 279 0 l 82 0 l 82 718 z "},"д":{"ha":867,"x_min":10,"x_max":853,"o":"m 10 149 l 96 149 q 127 225 111 179 q 156 328 143 271 q 178 451 169 385 q 186 592 186 518 l 186 718 l 760 718 l 760 149 l 853 149 l 853 -197 l 668 -197 l 668 0 l 194 0 l 194 -197 l 10 -197 l 10 149 m 563 149 l 563 571 l 369 571 l 369 553 q 362 425 369 486 q 342 312 354 364 q 315 218 329 260 q 289 149 301 176 l 563 149 z "},"е":{"ha":797,"x_min":40,"x_max":757,"o":"m 407 -18 q 254 9 322 -18 q 139 86 186 36 q 66 206 92 136 q 40 358 40 275 q 67 508 40 439 q 142 628 93 578 q 258 708 190 679 q 407 738 325 738 q 559 706 493 738 q 669 620 625 674 q 735 496 713 567 q 757 349 757 425 q 757 330 757 339 q 756 311 757 321 l 238 311 q 286 172 242 215 q 414 129 331 129 q 517 159 474 129 q 569 222 560 189 l 743 222 q 615 38 701 93 q 407 -18 529 -18 m 558 436 q 509 550 544 511 q 401 589 474 589 q 322 573 353 589 q 273 533 292 557 q 247 483 254 510 q 238 436 239 457 l 558 436 z "},"ж":{"ha":1128,"x_min":-7,"x_max":1135,"o":"m 268 442 l 21 718 l 239 718 l 471 432 l 471 718 l 657 718 l 657 432 l 889 718 l 1107 718 l 856 438 l 1135 0 l 907 0 l 731 299 l 657 215 l 657 0 l 471 0 l 471 215 l 397 299 l 221 0 l -7 0 l 268 442 z "},"з":{"ha":753,"x_min":31,"x_max":701,"o":"m 367 -18 q 238 -5 299 -18 q 132 39 178 8 q 59 117 86 69 q 31 233 32 164 l 218 233 q 263 144 224 175 q 371 114 303 114 q 468 142 438 114 q 499 210 499 169 q 470 282 499 254 q 375 310 442 310 l 299 310 l 299 433 l 350 433 q 449 453 413 433 q 486 526 486 472 q 459 583 486 558 q 374 607 432 607 q 280 587 314 607 q 238 508 246 567 l 54 508 q 88 615 60 571 q 160 685 117 658 q 260 725 204 713 q 378 738 317 738 q 599 691 521 738 q 678 544 678 644 q 666 485 678 513 q 636 438 654 458 q 594 403 618 417 q 549 386 571 390 l 549 383 q 601 372 574 381 q 650 342 628 363 q 687 291 672 322 q 701 213 701 260 q 677 111 701 154 q 609 39 653 68 q 503 -4 565 10 q 367 -18 442 -18 z "},"и":{"ha":833,"x_min":75,"x_max":758,"o":"m 75 718 l 264 718 l 264 232 l 535 718 l 758 718 l 758 0 l 569 0 l 569 486 l 299 0 l 75 0 l 75 718 z "},"й":{"ha":833,"x_min":75,"x_max":758,"o":"m 75 718 l 264 718 l 264 232 l 535 718 l 758 718 l 758 0 l 569 0 l 569 486 l 299 0 l 75 0 l 75 718 m 415 804 q 326 815 367 804 q 257 851 286 826 q 211 913 228 875 q 194 1004 194 950 l 272 1004 q 319 934 282 956 q 415 913 357 913 q 511 934 474 913 q 558 1004 549 956 l 636 1004 q 619 913 636 950 q 574 851 603 875 q 503 815 544 826 q 415 804 463 804 z "},"к":{"ha":797,"x_min":75,"x_max":807,"o":"m 75 718 l 272 718 l 272 413 l 536 718 l 768 718 l 494 432 l 807 0 l 568 0 l 367 299 l 272 199 l 272 0 l 75 0 l 75 718 z "},"л":{"ha":832,"x_min":4,"x_max":757,"o":"m 118 -11 q 91 -10 107 -11 q 58 -6 75 -8 q 27 -2 42 -4 q 4 3 13 0 l 4 154 q 33 149 15 151 q 67 147 51 147 q 135 190 113 147 q 144 218 139 199 q 155 292 150 238 q 163 447 160 346 q 167 718 167 547 l 757 718 l 757 0 l 560 0 l 560 569 l 357 569 q 354 381 357 463 q 344 241 351 300 q 326 141 338 182 q 299 75 315 100 q 232 13 275 36 q 118 -11 189 -11 z "},"м":{"ha":1025,"x_min":75,"x_max":950,"o":"m 75 718 l 361 718 l 510 196 l 515 196 l 664 718 l 950 718 l 950 0 l 764 0 l 764 546 l 760 546 l 606 0 l 419 0 l 265 546 l 261 546 l 261 0 l 75 0 l 75 718 z "},"н":{"ha":824,"x_min":75,"x_max":749,"o":"m 75 718 l 272 718 l 272 457 l 551 457 l 551 718 l 749 718 l 749 0 l 551 0 l 551 301 l 272 301 l 272 0 l 75 0 l 75 718 z "},"о":{"ha":849,"x_min":53,"x_max":796,"o":"m 424 -18 q 271 8 339 -18 q 154 84 203 35 q 79 203 106 133 q 53 358 53 272 q 79 515 53 444 q 154 634 106 585 q 271 710 203 683 q 424 738 339 738 q 577 710 508 738 q 694 634 646 683 q 769 515 743 585 q 796 358 796 444 q 769 203 796 272 q 694 84 743 133 q 577 8 646 35 q 424 -18 508 -18 m 424 129 q 508 149 474 129 q 562 201 542 168 q 590 274 582 233 q 599 358 599 315 q 590 443 599 401 q 562 517 582 485 q 508 569 542 549 q 424 589 474 589 q 340 569 374 589 q 287 517 307 549 q 258 443 267 485 q 250 358 250 401 q 258 274 250 315 q 287 201 267 233 q 340 149 307 168 q 424 129 374 129 z "},"п":{"ha":810,"x_min":75,"x_max":735,"o":"m 75 718 l 735 718 l 735 0 l 538 0 l 538 569 l 272 569 l 272 0 l 75 0 l 75 718 z "},"р":{"ha":849,"x_min":75,"x_max":806,"o":"m 75 718 l 263 718 l 263 626 l 265 626 q 357 711 301 685 q 479 738 413 738 q 625 706 564 738 q 726 621 686 674 q 786 498 767 568 q 806 351 806 428 q 786 213 806 279 q 727 94 767 146 q 628 13 688 43 q 490 -18 569 -18 q 367 9 424 -18 q 275 89 311 36 l 272 89 l 272 -251 l 75 -251 l 75 718 m 438 129 q 519 149 486 129 q 572 199 551 168 q 600 272 592 231 q 608 357 608 313 q 599 442 608 400 q 569 516 590 483 q 516 569 549 549 q 436 589 483 589 q 355 569 388 589 q 302 517 322 549 q 274 442 282 485 q 265 357 265 400 q 274 272 265 313 q 303 199 283 231 q 356 149 324 168 q 438 129 389 129 z "},"с":{"ha":797,"x_min":53,"x_max":761,"o":"m 415 -18 q 267 9 333 -18 q 153 85 200 36 q 79 201 106 133 q 53 349 53 268 q 77 503 53 432 q 149 627 101 575 q 264 708 196 679 q 419 738 332 738 q 542 721 483 738 q 648 670 601 704 q 724 585 694 636 q 757 465 753 533 l 564 465 q 418 589 544 589 q 339 567 371 589 q 287 512 307 546 q 258 436 267 478 q 250 356 250 394 q 258 276 250 317 q 285 203 267 236 q 336 150 304 171 q 414 129 368 129 q 523 169 485 129 q 571 275 561 208 l 761 275 q 650 57 742 132 q 415 -18 558 -18 z "},"т":{"ha":697,"x_min":14,"x_max":683,"o":"m 250 569 l 14 569 l 14 718 l 683 718 l 683 569 l 447 569 l 447 0 l 250 0 l 250 569 z "},"у":{"ha":721,"x_min":-7,"x_max":729,"o":"m 182 -251 q 122 -249 151 -251 q 61 -244 92 -247 l 61 -82 q 110 -87 85 -85 q 161 -89 136 -89 q 229 -64 206 -89 q 253 0 253 -39 q 244 44 253 24 l -7 718 l 203 718 l 365 226 l 368 226 l 525 718 l 729 718 l 429 -89 q 340 -214 397 -176 q 182 -251 283 -251 z "},"ф":{"ha":1189,"x_min":53,"x_max":1136,"o":"m 496 49 l 492 49 q 429 2 471 22 q 343 -18 388 -18 q 207 15 263 -18 q 117 101 151 47 q 68 224 83 154 q 53 369 53 294 q 73 522 53 454 q 129 638 93 590 q 217 712 165 686 q 333 738 269 738 q 436 715 396 738 q 492 664 476 693 l 496 664 l 496 992 l 693 992 l 693 664 l 697 664 q 753 715 713 693 q 856 738 793 738 q 972 712 919 738 q 1060 638 1024 686 q 1116 522 1096 590 q 1136 369 1136 454 q 1121 224 1136 294 q 1072 101 1106 154 q 982 15 1038 47 q 846 -18 926 -18 q 760 2 801 -18 q 697 49 718 22 l 693 49 l 693 -251 l 496 -251 l 496 49 m 389 129 q 462 150 433 129 q 496 199 490 171 l 496 513 q 449 572 482 556 q 383 589 415 589 q 281 529 313 589 q 250 365 250 469 q 256 278 250 321 q 278 203 263 236 q 321 149 294 169 q 389 129 347 129 m 800 129 q 868 149 842 129 q 910 203 894 169 q 933 278 926 236 q 939 365 939 321 q 908 529 939 469 q 806 589 876 589 q 740 572 774 589 q 693 513 707 556 l 693 199 q 727 150 699 171 q 800 129 756 129 z "},"х":{"ha":746,"x_min":0,"x_max":746,"o":"m 258 378 l 22 718 l 247 718 l 374 531 l 499 718 l 717 718 l 481 382 l 746 0 l 521 0 l 371 226 l 221 0 l 0 0 l 258 378 z "},"ц":{"ha":838,"x_min":75,"x_max":824,"o":"m 639 0 l 75 0 l 75 718 l 272 718 l 272 149 l 538 149 l 538 718 l 735 718 l 735 149 l 824 149 l 824 -197 l 639 -197 l 639 0 z "},"ч":{"ha":797,"x_min":56,"x_max":722,"o":"m 525 275 q 486 266 511 271 q 430 256 461 261 q 364 247 399 250 q 296 243 329 243 q 115 311 175 243 q 56 496 56 379 l 56 718 l 251 718 l 251 536 q 274 427 251 458 q 361 396 296 396 q 403 398 379 396 q 449 403 426 400 q 492 410 472 406 q 525 417 513 414 l 525 718 l 722 718 l 722 0 l 525 0 l 525 275 z "},"ш":{"ha":1165,"x_min":75,"x_max":1090,"o":"m 75 718 l 271 718 l 271 149 l 485 149 l 485 718 l 681 718 l 681 149 l 894 149 l 894 718 l 1090 718 l 1090 0 l 75 0 l 75 718 z "},"щ":{"ha":1186,"x_min":75,"x_max":1172,"o":"m 988 0 l 75 0 l 75 718 l 271 718 l 271 149 l 481 149 l 481 718 l 676 718 l 676 149 l 886 149 l 886 718 l 1082 718 l 1082 149 l 1172 149 l 1172 -197 l 988 -197 l 988 0 z "},"ъ":{"ha":897,"x_min":14,"x_max":861,"o":"m 211 569 l 14 569 l 14 718 l 408 718 l 408 471 l 599 471 q 701 456 653 471 q 784 412 749 442 q 840 338 819 382 q 861 236 861 294 q 841 132 861 176 q 784 58 821 88 q 698 15 747 29 q 590 0 649 0 l 211 0 l 211 569 m 543 136 q 630 160 597 136 q 663 236 663 183 q 628 313 663 289 q 542 338 593 338 l 408 338 l 408 136 l 543 136 z "},"ы":{"ha":1081,"x_min":75,"x_max":1006,"o":"m 75 718 l 272 718 l 272 471 l 463 471 q 565 456 517 471 q 648 412 613 442 q 704 338 683 382 q 725 236 725 294 q 705 132 725 176 q 648 58 685 88 q 562 15 611 29 q 454 0 513 0 l 75 0 l 75 718 m 407 136 q 494 160 461 136 q 526 236 526 183 q 492 313 526 289 q 406 338 457 338 l 272 338 l 272 136 l 407 136 m 810 718 l 1006 718 l 1006 0 l 810 0 l 810 718 z "},"ь":{"ha":761,"x_min":75,"x_max":725,"o":"m 75 718 l 272 718 l 272 471 l 463 471 q 565 456 517 471 q 648 412 613 442 q 704 338 683 382 q 725 236 725 294 q 705 132 725 176 q 648 58 685 88 q 562 15 611 29 q 454 0 513 0 l 75 0 l 75 718 m 407 136 q 494 160 461 136 q 526 236 526 183 q 492 313 526 289 q 406 338 457 338 l 272 338 l 272 136 l 407 136 z "},"э":{"ha":800,"x_min":44,"x_max":747,"o":"m 382 -18 q 155 49 246 -18 q 44 247 64 115 l 232 247 q 285 156 247 189 q 382 124 324 124 q 499 174 458 124 q 550 308 540 224 l 313 308 l 313 433 l 546 433 q 488 551 532 508 q 378 594 444 594 q 286 567 325 594 q 233 483 247 539 l 44 483 q 151 669 63 601 q 379 738 240 738 q 531 710 463 738 q 647 632 599 682 q 721 511 694 582 q 747 353 747 440 q 722 201 747 269 q 648 83 696 132 q 533 8 600 35 q 382 -18 465 -18 z "},"ю":{"ha":1160,"x_min":75,"x_max":1107,"o":"m 758 -18 q 515 68 604 -18 q 411 306 425 154 l 272 306 l 272 0 l 75 0 l 75 718 l 272 718 l 272 444 l 415 444 q 526 658 438 579 q 761 738 615 738 q 906 710 842 738 q 1014 633 969 683 q 1083 513 1058 583 q 1107 358 1107 443 q 1083 203 1107 272 q 1014 84 1058 133 q 904 8 969 35 q 758 -18 839 -18 m 758 129 q 872 188 833 129 q 910 360 910 247 q 870 528 910 468 q 756 589 831 589 q 644 528 683 589 q 606 358 606 467 q 644 188 606 246 q 758 129 683 129 z "},"я":{"ha":803,"x_min":0,"x_max":728,"o":"m 228 269 q 103 343 151 282 q 56 493 56 404 q 73 581 56 540 q 122 653 90 622 q 197 701 154 683 q 293 718 240 718 l 728 718 l 728 0 l 531 0 l 531 253 l 438 253 l 242 0 l 0 0 l 228 269 m 531 575 l 374 575 q 281 551 306 575 q 256 486 256 526 q 280 419 256 444 q 374 394 304 394 l 531 394 l 531 575 z "},"ѐ":{"ha":797,"x_min":40,"x_max":757,"o":"m 407 -18 q 254 9 322 -18 q 139 86 186 36 q 66 206 92 136 q 40 358 40 275 q 67 508 40 439 q 142 628 93 578 q 258 708 190 679 q 407 738 325 738 q 559 706 493 738 q 669 620 625 674 q 735 496 713 567 q 757 349 757 425 q 757 330 757 339 q 756 311 757 321 l 238 311 q 286 172 242 215 q 414 129 331 129 q 517 159 474 129 q 569 222 560 189 l 743 222 q 615 38 701 93 q 407 -18 529 -18 m 558 436 q 509 550 544 511 q 401 589 474 589 q 322 573 353 589 q 273 533 292 557 q 247 483 254 510 q 238 436 239 457 l 558 436 m 371 1004 l 504 807 l 367 807 l 154 1004 l 371 1004 z "},"ё":{"ha":797,"x_min":40,"x_max":757,"o":"m 407 -18 q 254 9 322 -18 q 139 86 186 36 q 66 206 92 136 q 40 358 40 275 q 67 508 40 439 q 142 628 93 578 q 258 708 190 679 q 407 738 325 738 q 559 706 493 738 q 669 620 625 674 q 735 496 713 567 q 757 349 757 425 q 757 330 757 339 q 756 311 757 321 l 238 311 q 286 172 242 215 q 414 129 331 129 q 517 159 474 129 q 569 222 560 189 l 743 222 q 615 38 701 93 q 407 -18 529 -18 m 558 436 q 509 550 544 511 q 401 589 474 589 q 322 573 353 589 q 273 533 292 557 q 247 483 254 510 q 238 436 239 457 l 558 436 m 356 992 l 356 829 l 169 829 l 169 992 l 356 992 m 642 992 l 642 829 l 454 829 l 454 992 l 642 992 z "},"ђ":{"ha":851,"x_min":-11,"x_max":776,"o":"m 450 -251 q 371 -247 413 -251 l 371 -89 q 399 -91 382 -90 q 429 -92 415 -92 q 494 -84 465 -92 q 541 -56 522 -76 q 569 1 560 -35 q 579 90 579 36 l 579 347 q 551 480 579 436 q 453 524 524 524 q 336 476 372 524 q 300 318 300 428 l 300 0 l 103 0 l 103 743 l -11 743 l -11 876 l 103 876 l 103 992 l 300 992 l 300 876 l 589 876 l 589 743 l 300 743 l 300 560 l 304 560 q 400 651 342 622 q 514 679 458 679 q 644 658 593 679 q 724 598 694 636 q 765 505 753 560 q 776 383 776 450 l 776 78 q 699 -165 776 -78 q 450 -251 621 -251 z "},"ѓ":{"ha":629,"x_min":82,"x_max":624,"o":"m 82 718 l 624 718 l 624 569 l 279 569 l 279 0 l 82 0 l 82 718 m 215 807 l 349 1004 l 567 1004 l 353 807 l 215 807 z "},"є":{"ha":800,"x_min":53,"x_max":756,"o":"m 418 -18 q 267 8 335 -18 q 152 83 200 35 q 78 201 104 132 q 53 353 53 269 q 79 511 53 440 q 153 632 106 582 q 269 710 201 682 q 421 738 338 738 q 649 669 560 738 q 756 483 738 601 l 567 483 q 514 567 553 539 q 422 594 475 594 q 312 551 356 594 q 254 433 268 508 l 488 433 l 488 308 l 250 308 q 301 174 260 224 q 418 124 342 124 q 515 156 476 124 q 568 247 553 189 l 756 247 q 645 49 736 115 q 418 -18 554 -18 z "},"ѕ":{"ha":746,"x_min":40,"x_max":706,"o":"m 378 -18 q 256 -6 315 -18 q 149 36 196 7 q 73 113 103 65 q 40 233 43 161 l 228 233 q 241 178 228 201 q 275 141 254 156 q 323 119 296 126 q 379 113 350 113 q 423 117 400 113 q 465 133 446 122 q 496 160 483 143 q 508 204 508 178 q 449 271 508 249 q 285 315 390 293 q 201 338 242 325 q 128 373 160 351 q 76 426 96 394 q 57 507 57 458 q 84 620 57 575 q 156 691 111 665 q 256 727 200 717 q 369 738 311 738 q 483 726 428 738 q 581 689 538 715 q 652 619 624 663 q 686 508 681 575 l 499 508 q 456 585 494 565 q 364 606 417 606 q 328 603 347 606 q 292 594 308 601 q 265 574 276 588 q 254 539 254 561 q 274 496 254 513 q 324 469 293 479 q 396 450 356 458 q 478 432 436 442 q 562 408 521 422 q 635 372 603 394 q 686 315 667 349 q 706 231 706 281 q 677 112 706 160 q 603 35 649 64 q 498 -6 557 6 q 378 -18 439 -18 z "},"і":{"ha":358,"x_min":81,"x_max":278,"o":"m 81 718 l 278 718 l 278 0 l 81 0 l 81 718 m 81 992 l 278 992 l 278 829 l 81 829 l 81 992 z "},"ї":{"ha":358,"x_min":-57,"x_max":415,"o":"m 129 992 l 129 829 l -57 829 l -57 992 l 129 992 m 415 992 l 415 829 l 228 829 l 228 992 l 415 992 m 278 718 l 278 0 l 81 0 l 81 718 l 278 718 z "},"ј":{"ha":386,"x_min":-25,"x_max":290,"o":"m 38 -251 q -25 -246 -1 -251 l -25 -83 q 17 -89 -12 -89 q 70 -77 47 -89 q 93 -25 93 -65 l 93 718 l 290 718 l 290 -35 q 278 -131 290 -90 q 238 -198 267 -171 q 161 -238 210 -225 q 38 -251 113 -251 m 93 992 l 290 992 l 290 829 l 93 829 l 93 992 z "},"љ":{"ha":1246,"x_min":4,"x_max":1210,"o":"m 118 -11 q 91 -10 107 -11 q 58 -6 75 -8 q 27 -2 42 -4 q 4 3 13 0 l 4 154 q 33 149 15 151 q 67 147 51 147 q 135 190 113 147 q 144 218 139 199 q 155 292 150 238 q 163 447 160 346 q 167 718 167 547 l 757 718 l 757 471 l 947 471 q 1049 456 1001 471 q 1133 412 1097 442 q 1189 338 1168 382 q 1210 236 1210 294 q 1190 132 1210 176 q 1133 58 1169 88 q 1047 15 1096 29 q 939 0 997 0 l 560 0 l 560 569 l 357 569 q 354 381 357 463 q 344 241 351 300 q 326 141 338 182 q 299 75 315 100 q 232 13 275 36 q 118 -11 189 -11 m 892 136 q 978 160 946 136 q 1011 236 1011 183 q 976 313 1011 289 q 890 338 942 338 l 757 338 l 757 136 l 892 136 z "},"њ":{"ha":1238,"x_min":75,"x_max":1201,"o":"m 75 718 l 272 718 l 272 457 l 551 457 l 551 718 l 749 718 l 749 457 l 939 457 q 1041 443 993 457 q 1124 401 1089 429 q 1181 331 1160 374 q 1201 229 1201 288 q 1181 126 1201 169 q 1124 55 1161 83 q 1038 13 1088 26 q 931 0 989 0 l 551 0 l 551 301 l 272 301 l 272 0 l 75 0 l 75 718 m 883 136 q 970 156 938 136 q 1003 229 1003 176 q 968 303 1003 282 q 882 324 933 324 l 749 324 l 749 136 l 883 136 z "},"ћ":{"ha":851,"x_min":-11,"x_max":776,"o":"m 103 743 l -11 743 l -11 876 l 103 876 l 103 992 l 300 992 l 300 876 l 589 876 l 589 743 l 300 743 l 300 560 l 304 560 q 400 651 342 622 q 514 679 458 679 q 644 658 593 679 q 724 598 694 636 q 765 505 753 560 q 776 383 776 450 l 776 0 l 579 0 l 579 347 q 551 480 579 436 q 453 524 524 524 q 336 476 372 524 q 300 318 300 428 l 300 0 l 103 0 l 103 743 z "},"ќ":{"ha":797,"x_min":75,"x_max":807,"o":"m 75 718 l 272 718 l 272 413 l 536 718 l 768 718 l 494 432 l 807 0 l 568 0 l 367 299 l 272 199 l 272 0 l 75 0 l 75 718 m 292 807 l 425 1004 l 643 1004 l 429 807 l 292 807 z "},"ѝ":{"ha":833,"x_min":75,"x_max":758,"o":"m 75 718 l 264 718 l 264 232 l 535 718 l 758 718 l 758 0 l 569 0 l 569 486 l 299 0 l 75 0 l 75 718 m 403 1004 l 536 807 l 399 807 l 186 1004 l 403 1004 z "},"ў":{"ha":721,"x_min":-7,"x_max":729,"o":"m 182 -251 q 122 -249 151 -251 q 61 -244 92 -247 l 61 -82 q 110 -87 85 -85 q 161 -89 136 -89 q 229 -64 206 -89 q 253 0 253 -39 q 244 44 253 24 l -7 718 l 203 718 l 365 226 l 368 226 l 525 718 l 729 718 l 429 -89 q 340 -214 397 -176 q 182 -251 283 -251 m 368 804 q 279 815 319 804 q 210 851 239 826 q 164 913 181 875 q 147 1004 147 950 l 225 1004 q 272 934 235 956 q 368 913 310 913 q 464 934 426 913 q 511 1004 501 956 l 589 1004 q 572 913 589 950 q 526 851 556 875 q 456 815 497 826 q 368 804 415 804 z "},"џ":{"ha":810,"x_min":75,"x_max":735,"o":"m 313 0 l 75 0 l 75 718 l 272 718 l 272 149 l 538 149 l 538 718 l 735 718 l 735 0 l 499 0 l 499 -197 l 313 -197 l 313 0 z "},"Ѣ":{"ha":1047,"x_min":0,"x_max":1006,"o":"m 203 731 l 0 731 l 0 876 l 203 876 l 203 992 l 421 992 l 421 876 l 714 876 l 714 731 l 421 731 l 421 604 l 654 604 q 793 586 729 604 q 904 531 857 568 q 978 436 951 493 q 1006 303 1006 379 q 979 165 1006 222 q 905 71 953 107 q 790 17 857 35 q 643 0 724 0 l 203 0 l 203 731 m 626 178 q 755 208 715 178 q 794 306 794 238 q 751 403 794 372 q 625 433 708 433 l 421 433 l 421 178 l 626 178 z "},"ѣ":{"ha":817,"x_min":-14,"x_max":781,"o":"m 131 586 l -14 586 l -14 718 l 131 718 l 131 992 l 328 992 l 328 718 l 557 718 l 557 586 l 328 586 l 328 471 l 518 471 q 620 456 572 471 q 703 412 668 442 q 760 338 739 382 q 781 236 781 294 q 760 132 781 176 q 703 58 740 88 q 617 15 667 29 q 510 0 568 0 l 131 0 l 131 586 m 463 136 q 549 160 517 136 q 582 236 582 183 q 547 313 582 289 q 461 338 513 338 l 328 338 l 328 136 l 463 136 z "},"Ѫ":{"ha":1385,"x_min":83,"x_max":1301,"o":"m 83 235 q 104 397 83 331 q 167 503 125 463 q 272 563 210 544 q 418 581 335 581 l 515 581 l 251 992 l 1139 992 l 876 581 l 967 581 q 1113 563 1050 581 q 1217 503 1175 544 q 1281 397 1260 463 q 1301 235 1301 331 l 1301 0 l 1085 0 l 1085 251 q 1049 378 1085 342 q 931 414 1014 414 l 801 414 l 801 0 l 583 0 l 583 414 l 454 414 q 335 378 371 414 q 300 251 300 342 l 300 0 l 83 0 l 83 235 m 824 836 l 576 836 l 699 619 l 824 836 z "},"ѫ":{"ha":1142,"x_min":64,"x_max":1078,"o":"m 64 153 q 124 338 64 269 q 304 406 183 406 l 403 406 l 196 718 l 918 718 l 708 406 l 838 406 q 1018 338 958 406 q 1078 153 1078 269 l 1078 0 l 882 0 l 882 140 q 860 249 882 218 q 772 281 838 281 l 657 281 l 657 0 l 460 0 l 460 281 l 369 281 q 282 249 304 281 q 260 140 260 218 l 260 0 l 64 0 l 64 153 m 643 593 l 478 593 l 561 447 l 643 593 z "},"Ѳ":{"ha":1081,"x_min":53,"x_max":1028,"o":"m 540 -22 q 335 17 425 -22 q 182 126 244 57 q 86 290 119 196 q 53 492 53 383 q 86 697 53 601 q 182 864 119 793 q 335 975 244 935 q 540 1015 425 1015 q 745 975 654 1015 q 899 864 836 935 q 994 697 961 793 q 1028 492 1028 601 q 994 290 1028 383 q 899 126 961 196 q 745 17 836 57 q 540 -22 654 -22 m 540 154 q 660 179 610 154 q 742 246 710 204 q 792 342 775 288 q 814 454 810 396 q 781 418 799 436 q 746 385 764 400 q 709 362 728 371 q 671 353 690 353 q 603 372 640 353 q 531 412 567 390 q 460 452 494 433 q 399 471 425 471 q 324 455 356 471 q 271 414 293 439 q 298 315 279 361 q 349 232 317 268 q 429 175 382 196 q 540 154 476 154 m 672 517 q 749 535 714 517 q 808 579 785 553 q 781 679 800 632 q 728 762 761 726 q 649 817 696 797 q 540 838 603 838 q 423 813 472 838 q 341 749 374 789 q 290 654 308 708 q 267 542 272 600 q 331 605 296 575 q 404 635 367 635 q 476 616 438 635 q 551 576 514 597 q 619 535 588 554 q 672 517 651 517 z "},"ѳ":{"ha":849,"x_min":53,"x_max":796,"o":"m 424 -18 q 271 8 339 -18 q 154 84 203 35 q 79 203 106 133 q 53 358 53 272 q 79 515 53 444 q 154 634 106 585 q 271 710 203 683 q 424 738 339 738 q 577 710 508 738 q 694 634 646 683 q 769 515 743 585 q 796 358 796 444 q 769 203 796 272 q 694 84 743 133 q 577 8 646 35 q 424 -18 508 -18 m 424 124 q 501 140 469 124 q 554 182 533 156 q 586 243 575 208 q 601 315 597 278 q 557 274 582 292 q 504 256 532 256 q 459 267 479 256 q 419 294 439 279 q 381 321 400 308 q 340 333 361 333 q 286 318 307 333 q 250 283 265 303 q 269 222 256 250 q 303 171 282 193 q 353 136 324 149 q 424 124 383 124 m 506 390 q 560 401 538 390 q 599 429 582 411 q 581 493 593 463 q 547 546 568 524 q 496 581 526 568 q 424 594 465 594 q 346 578 378 594 q 293 535 314 563 q 261 473 272 508 q 246 399 250 438 q 290 447 265 425 q 346 468 315 468 q 394 456 372 468 q 435 428 417 443 q 472 402 454 414 q 506 390 489 390 z "},"Ѵ":{"ha":931,"x_min":-10,"x_max":965,"o":"m -10 992 l 214 992 l 435 294 l 438 294 l 604 849 q 691 970 628 929 q 836 1011 754 1011 q 904 1006 865 1011 q 965 994 943 1001 l 965 828 q 931 834 954 832 q 896 836 907 836 q 874 835 888 836 q 845 827 860 833 q 817 808 831 821 q 797 772 804 794 l 557 0 l 311 0 l -10 992 z "},"ѵ":{"ha":750,"x_min":7,"x_max":763,"o":"m 7 718 l 214 718 l 365 228 l 368 228 l 463 585 q 485 644 471 617 q 520 691 499 671 q 573 722 542 711 q 649 733 604 733 q 676 733 660 733 q 708 730 692 732 q 740 726 725 728 q 763 721 754 724 l 763 569 q 733 574 751 572 q 700 575 715 575 q 658 559 676 575 q 633 519 640 543 l 472 0 l 253 0 l 7 718 z "},"Ҍ":{"ha":1047,"x_min":0,"x_max":1006,"o":"m 203 846 l 0 846 l 0 992 l 203 992 l 203 1139 l 421 1139 l 421 992 l 631 992 l 631 846 l 421 846 l 421 604 l 654 604 q 793 586 729 604 q 904 531 857 568 q 978 436 951 493 q 1006 303 1006 379 q 979 165 1006 222 q 905 71 953 107 q 790 17 857 35 q 643 0 724 0 l 203 0 l 203 846 m 626 178 q 755 208 715 178 q 794 306 794 238 q 751 403 794 372 q 625 433 708 433 l 421 433 l 421 178 l 626 178 z "},"ҍ":{"ha":817,"x_min":-14,"x_max":781,"o":"m 131 586 l -14 586 l -14 718 l 131 718 l 131 868 l 328 868 l 328 718 l 492 718 l 492 586 l 328 586 l 328 471 l 518 471 q 620 456 572 471 q 703 412 668 442 q 760 338 739 382 q 781 236 781 294 q 760 132 781 176 q 703 58 740 88 q 617 15 667 29 q 510 0 568 0 l 131 0 l 131 586 m 463 136 q 549 160 517 136 q 582 236 582 183 q 547 313 582 289 q 461 338 513 338 l 328 338 l 328 136 l 463 136 z "},"Ґ":{"ha":797,"x_min":96,"x_max":786,"o":"m 96 992 l 576 992 l 576 1210 l 786 1210 l 786 808 l 314 808 l 314 0 l 96 0 l 96 992 z "},"ґ":{"ha":629,"x_min":82,"x_max":624,"o":"m 82 718 l 444 718 l 444 914 l 624 914 l 624 569 l 279 569 l 279 0 l 82 0 l 82 718 z "},"Ғ":{"ha":871,"x_min":33,"x_max":865,"o":"m 176 426 l 33 426 l 33 596 l 176 596 l 176 992 l 865 992 l 865 808 l 394 808 l 394 596 l 654 596 l 654 426 l 394 426 l 394 0 l 176 0 l 176 426 z "},"ғ":{"ha":688,"x_min":25,"x_max":682,"o":"m 140 296 l 25 296 l 25 422 l 140 422 l 140 718 l 682 718 l 682 569 l 338 569 l 338 422 l 539 422 l 539 296 l 338 296 l 338 0 l 140 0 l 140 296 z "},"Җ":{"ha":1503,"x_min":-8,"x_max":1496,"o":"m 1286 0 l 1213 0 l 949 433 l 842 313 l 842 0 l 632 0 l 632 313 l 525 433 l 260 0 l -8 0 l 388 588 l 28 992 l 285 992 l 632 583 l 632 992 l 842 992 l 842 583 l 1189 992 l 1446 992 l 1086 588 l 1358 183 l 1496 183 l 1496 -226 l 1286 -226 l 1286 0 z "},"җ":{"ha":1156,"x_min":-7,"x_max":1151,"o":"m 967 0 l 907 0 l 731 299 l 657 215 l 657 0 l 471 0 l 471 215 l 397 299 l 221 0 l -7 0 l 268 442 l 21 718 l 239 718 l 471 432 l 471 718 l 657 718 l 657 432 l 889 718 l 1107 718 l 856 438 l 1040 149 l 1151 149 l 1151 -197 l 967 -197 l 967 0 z "},"Ҙ":{"ha":899,"x_min":29,"x_max":847,"o":"m 453 -301 q 396 -299 419 -301 q 353 -293 372 -297 q 317 -283 335 -289 q 281 -271 300 -278 l 310 -204 q 361 -222 332 -214 q 426 -229 390 -229 q 467 -218 451 -229 q 482 -182 482 -207 q 466 -147 482 -156 q 426 -137 450 -137 q 371 -147 396 -137 l 342 -114 l 407 -21 q 129 83 226 -8 q 29 333 32 175 l 244 333 q 263 247 246 283 q 309 188 281 211 q 376 155 338 165 q 458 144 414 144 q 582 191 535 144 q 629 306 629 238 q 614 374 629 347 q 572 417 599 401 q 513 439 546 433 q 443 444 479 444 l 368 444 l 368 592 q 399 590 381 590 q 426 590 417 590 q 606 725 606 590 q 565 815 606 783 q 457 847 524 847 q 328 808 376 847 q 274 697 281 769 l 68 697 q 101 840 69 781 q 187 939 133 900 q 310 997 240 978 q 458 1015 381 1015 q 598 995 533 1015 q 709 939 663 975 q 783 852 756 903 q 810 739 810 801 q 768 610 810 664 q 660 540 726 556 q 733 514 699 533 q 793 465 768 494 q 833 394 818 435 q 847 307 847 354 q 819 177 847 236 q 740 74 790 118 q 622 6 690 31 q 474 -22 553 -19 l 438 -72 l 440 -72 q 488 -65 457 -65 q 534 -71 511 -65 q 575 -88 557 -76 q 604 -119 593 -100 q 615 -162 615 -137 q 601 -230 615 -203 q 565 -273 588 -257 q 513 -295 542 -289 q 453 -301 483 -301 z "},"ҙ":{"ha":753,"x_min":31,"x_max":701,"o":"m 379 -301 q 322 -299 346 -301 q 280 -293 299 -297 q 244 -283 261 -289 q 207 -271 226 -278 l 236 -204 q 288 -222 258 -214 q 353 -229 317 -229 q 393 -218 378 -229 q 408 -182 408 -207 q 392 -147 408 -156 q 353 -137 376 -137 q 297 -147 322 -137 l 268 -114 l 336 -17 q 219 1 274 -14 q 122 46 164 15 q 56 122 81 76 q 31 233 32 168 l 218 233 q 263 144 224 175 q 371 114 303 114 q 468 142 438 114 q 499 210 499 169 q 470 282 499 254 q 375 310 442 310 l 299 310 l 299 433 l 350 433 q 449 453 413 433 q 486 526 486 472 q 459 583 486 558 q 374 607 432 607 q 280 587 314 607 q 238 508 246 567 l 54 508 q 88 615 60 571 q 160 685 117 658 q 260 725 204 713 q 378 738 317 738 q 599 691 521 738 q 678 544 678 644 q 666 485 678 513 q 636 438 654 458 q 594 403 618 417 q 549 386 571 390 l 549 383 q 601 372 574 381 q 650 342 628 363 q 687 291 672 322 q 701 213 701 260 q 680 117 701 158 q 619 47 658 75 q 525 3 581 18 q 403 -17 469 -12 l 364 -72 l 367 -72 q 414 -65 383 -65 q 460 -71 438 -65 q 501 -88 483 -76 q 531 -119 519 -100 q 542 -162 542 -137 q 528 -230 542 -203 q 491 -273 514 -257 q 439 -295 468 -289 q 379 -301 410 -301 z "},"Қ":{"ha":1032,"x_min":96,"x_max":1025,"o":"m 815 0 l 738 0 l 439 446 l 314 319 l 314 0 l 96 0 l 96 992 l 314 992 l 314 581 l 701 992 l 974 992 l 586 600 l 882 183 l 1025 183 l 1025 -226 l 815 -226 l 815 0 z "},"қ":{"ha":814,"x_min":75,"x_max":810,"o":"m 625 0 l 568 0 l 367 299 l 272 199 l 272 0 l 75 0 l 75 718 l 272 718 l 272 413 l 536 718 l 768 718 l 494 432 l 701 149 l 810 149 l 810 -197 l 625 -197 l 625 0 z "},"Ҝ":{"ha":1044,"x_min":96,"x_max":1053,"o":"m 96 992 l 314 992 l 314 611 l 379 611 l 379 796 l 490 796 l 490 611 l 507 611 l 785 992 l 1029 992 l 678 531 l 1053 0 l 779 0 l 497 428 l 490 428 l 490 240 l 379 240 l 379 428 l 314 428 l 314 0 l 96 0 l 96 992 z "},"ҝ":{"ha":854,"x_min":75,"x_max":863,"o":"m 75 718 l 272 718 l 272 449 l 325 449 l 325 576 l 415 576 l 415 449 l 422 449 l 624 718 l 840 718 l 579 393 l 863 0 l 624 0 l 422 299 l 415 299 l 415 167 l 325 167 l 325 299 l 272 299 l 272 0 l 75 0 l 75 718 z "},"Ҡ":{"ha":1193,"x_min":18,"x_max":1201,"o":"m 286 808 l 18 808 l 18 992 l 504 992 l 504 581 l 892 992 l 1164 992 l 776 600 l 1201 0 l 928 0 l 629 446 l 504 319 l 504 0 l 286 0 l 286 808 z "},"ҡ":{"ha":933,"x_min":14,"x_max":943,"o":"m 211 569 l 14 569 l 14 718 l 408 718 l 408 413 l 672 718 l 904 718 l 631 432 l 943 0 l 704 0 l 503 299 l 408 199 l 408 0 l 211 0 l 211 569 z "},"Ң":{"ha":1057,"x_min":96,"x_max":1043,"o":"m 833 0 l 715 0 l 715 428 l 314 428 l 314 0 l 96 0 l 96 992 l 314 992 l 314 611 l 715 611 l 715 992 l 933 992 l 933 183 l 1043 183 l 1043 -226 l 833 -226 l 833 0 z "},"ң":{"ha":847,"x_min":75,"x_max":838,"o":"m 653 0 l 551 0 l 551 301 l 272 301 l 272 0 l 75 0 l 75 718 l 272 718 l 272 457 l 551 457 l 551 718 l 749 718 l 749 149 l 838 149 l 838 -197 l 653 -197 l 653 0 z "},"Ҥ":{"ha":1410,"x_min":96,"x_max":1404,"o":"m 96 992 l 314 992 l 314 611 l 715 611 l 715 992 l 1404 992 l 1404 808 l 933 808 l 933 0 l 715 0 l 715 428 l 314 428 l 314 0 l 96 0 l 96 992 z "},"ҥ":{"ha":1099,"x_min":75,"x_max":1093,"o":"m 75 718 l 272 718 l 272 457 l 551 457 l 551 718 l 1093 718 l 1093 569 l 749 569 l 749 0 l 551 0 l 551 301 l 272 301 l 272 0 l 75 0 l 75 718 z "},"Ҫ":{"ha":1029,"x_min":53,"x_max":976,"o":"m 536 -301 q 479 -299 503 -301 q 437 -293 456 -297 q 401 -283 418 -289 q 364 -271 383 -278 l 393 -204 q 444 -222 415 -214 q 510 -229 474 -229 q 550 -218 535 -229 q 565 -182 565 -207 q 549 -147 565 -156 q 510 -137 533 -137 q 454 -147 479 -137 l 425 -114 l 490 -19 q 306 31 388 -11 q 169 142 225 74 q 83 299 113 210 q 53 492 53 389 q 86 697 53 601 q 182 864 119 793 q 335 975 244 935 q 540 1015 425 1015 q 694 992 621 1015 q 826 923 768 968 q 921 811 883 878 q 968 658 958 744 l 757 658 q 732 727 751 696 q 683 782 713 758 q 617 819 654 806 q 540 832 581 832 q 415 803 467 832 q 332 727 364 775 q 285 618 300 679 q 271 492 271 557 q 285 370 271 429 q 332 264 300 311 q 415 188 364 217 q 540 160 467 160 q 697 221 640 160 q 765 382 753 282 l 976 382 q 935 217 968 290 q 847 91 901 143 q 718 10 792 39 q 557 -22 644 -19 l 521 -72 l 524 -72 q 571 -65 540 -65 q 617 -71 594 -65 q 658 -88 640 -76 q 688 -119 676 -100 q 699 -162 699 -137 q 685 -230 699 -203 q 648 -273 671 -257 q 596 -295 625 -289 q 536 -301 567 -301 z "},"ҫ":{"ha":797,"x_min":53,"x_max":761,"o":"m 425 -301 q 368 -299 392 -301 q 326 -293 344 -297 q 290 -283 307 -289 q 253 -271 272 -278 l 282 -204 q 333 -222 304 -214 q 399 -229 363 -229 q 439 -218 424 -229 q 454 -182 454 -207 q 438 -147 454 -156 q 399 -137 422 -137 q 343 -147 368 -137 l 314 -114 l 382 -17 q 247 18 307 -11 q 143 95 186 47 q 76 208 100 143 q 53 349 53 272 q 77 503 53 432 q 149 627 101 575 q 264 708 196 679 q 419 738 332 738 q 542 721 483 738 q 648 670 601 704 q 724 585 694 636 q 757 465 753 533 l 564 465 q 418 589 544 589 q 339 567 371 589 q 287 512 307 546 q 258 436 267 478 q 250 356 250 394 q 258 276 250 317 q 285 203 267 236 q 336 150 304 171 q 414 129 368 129 q 523 169 485 129 q 571 275 561 208 l 761 275 q 660 66 742 140 q 449 -17 579 -8 l 410 -72 l 413 -72 q 460 -65 429 -65 q 506 -71 483 -65 q 547 -88 529 -76 q 576 -119 565 -100 q 588 -162 588 -137 q 574 -230 588 -203 q 537 -273 560 -257 q 485 -295 514 -289 q 425 -301 456 -301 z "},"Ү":{"ha":926,"x_min":-11,"x_max":939,"o":"m 353 386 l -11 992 l 233 992 l 465 600 l 696 992 l 939 992 l 571 381 l 571 0 l 353 0 l 353 386 z "},"ү":{"ha":721,"x_min":-7,"x_max":729,"o":"m 261 24 l -7 718 l 203 718 l 365 240 l 368 240 l 525 718 l 729 718 l 458 14 l 458 -251 l 261 -251 l 261 24 z "},"Ұ":{"ha":926,"x_min":-11,"x_max":939,"o":"m 353 186 l 139 186 l 139 332 l 353 332 l 353 386 l -11 992 l 233 992 l 465 600 l 696 992 l 939 992 l 571 381 l 571 332 l 785 332 l 785 186 l 571 186 l 571 0 l 353 0 l 353 186 z "},"ұ":{"ha":721,"x_min":-7,"x_max":729,"o":"m 261 -143 l 92 -143 l 92 -11 l 261 -11 l 261 24 l -7 718 l 203 718 l 365 240 l 368 240 l 525 718 l 729 718 l 458 14 l 458 -11 l 628 -11 l 628 -143 l 458 -143 l 458 -251 l 261 -251 l 261 -143 z "},"Ҳ":{"ha":956,"x_min":-7,"x_max":949,"o":"m 739 0 l 675 0 l 458 343 l 238 0 l -7 0 l 339 519 l 19 992 l 272 992 l 467 675 l 668 992 l 907 992 l 589 518 l 813 183 l 949 183 l 949 -226 l 739 -226 l 739 0 z "},"ҳ":{"ha":768,"x_min":0,"x_max":764,"o":"m 521 0 l 371 226 l 221 0 l 0 0 l 258 378 l 22 718 l 247 718 l 374 531 l 499 718 l 717 718 l 481 382 l 643 149 l 764 149 l 764 -197 l 579 -197 l 579 0 l 521 0 z "},"Ҷ":{"ha":971,"x_min":63,"x_max":957,"o":"m 747 0 l 629 0 l 629 376 q 584 367 611 372 q 527 358 557 363 q 468 351 497 354 q 417 349 439 349 q 267 367 333 349 q 156 426 201 385 q 87 533 111 467 q 63 694 63 599 l 63 992 l 279 992 l 279 692 q 315 565 279 601 q 433 529 350 529 q 485 532 456 529 q 542 538 514 535 q 593 545 569 542 q 629 551 617 549 l 629 992 l 847 992 l 847 183 l 957 183 l 957 -226 l 747 -226 l 747 0 z "},"ҷ":{"ha":821,"x_min":56,"x_max":811,"o":"m 626 0 l 525 0 l 525 275 q 486 266 511 271 q 430 256 461 261 q 364 247 399 250 q 296 243 329 243 q 115 311 175 243 q 56 496 56 379 l 56 718 l 251 718 l 251 536 q 274 427 251 458 q 361 396 296 396 q 403 398 379 396 q 449 403 426 400 q 492 410 472 406 q 525 417 513 414 l 525 718 l 722 718 l 722 149 l 811 149 l 811 -197 l 626 -197 l 626 0 z "},"Ҹ":{"ha":944,"x_min":63,"x_max":847,"o":"m 629 376 q 574 365 607 371 q 506 354 542 358 l 506 171 l 394 171 l 394 349 q 254 370 315 350 q 150 431 193 390 q 85 537 107 472 q 63 694 63 601 l 63 992 l 279 992 l 279 692 q 306 575 279 613 q 394 531 332 538 l 394 726 l 506 726 l 506 533 q 578 542 543 536 q 629 551 614 547 l 629 992 l 847 992 l 847 0 l 629 0 l 629 376 z "},"ҹ":{"ha":797,"x_min":56,"x_max":722,"o":"m 525 275 q 485 265 510 271 q 429 254 461 260 l 429 111 l 339 111 l 339 244 q 317 243 328 243 q 296 243 307 243 q 115 311 175 243 q 56 496 56 379 l 56 718 l 251 718 l 251 536 q 269 433 251 465 q 339 397 286 401 l 339 535 l 429 535 l 429 400 q 483 408 457 403 q 525 417 510 413 l 525 718 l 722 718 l 722 0 l 525 0 l 525 275 z "},"Һ":{"ha":938,"x_min":96,"x_max":881,"o":"m 96 992 l 314 992 l 314 615 q 359 624 332 619 q 416 633 386 629 q 475 640 446 638 q 526 643 504 643 q 676 625 610 643 q 787 566 742 607 q 856 459 832 525 q 881 297 881 393 l 881 0 l 664 0 l 664 300 q 628 426 664 390 q 510 463 593 463 q 458 460 488 463 q 401 453 429 457 q 350 447 374 450 q 314 440 326 443 l 314 0 l 96 0 l 96 992 z "},"һ":{"ha":824,"x_min":75,"x_max":749,"o":"m 75 992 l 272 992 l 272 618 l 276 618 q 372 709 314 681 q 486 738 431 738 q 616 716 565 738 q 696 656 667 694 q 737 563 725 618 q 749 442 749 508 l 749 0 l 551 0 l 551 406 q 524 538 551 494 q 425 582 496 582 q 308 534 344 582 q 272 376 272 486 l 272 0 l 75 0 l 75 992 z "},"Ӏ":{"ha":410,"x_min":96,"x_max":314,"o":"m 96 992 l 314 992 l 314 0 l 96 0 l 96 992 z "},"Ӂ":{"ha":1474,"x_min":-8,"x_max":1482,"o":"m 388 588 l 28 992 l 285 992 l 632 583 l 632 992 l 842 992 l 842 583 l 1189 992 l 1446 992 l 1086 588 l 1482 0 l 1213 0 l 949 433 l 842 313 l 842 0 l 632 0 l 632 313 l 525 433 l 260 0 l -8 0 l 388 588 m 735 1076 q 571 1129 633 1076 q 508 1290 508 1182 l 586 1290 q 636 1217 596 1242 q 735 1192 676 1192 q 833 1217 793 1192 q 883 1290 874 1242 l 961 1290 q 899 1129 961 1182 q 735 1076 836 1076 z "},"ӂ":{"ha":1128,"x_min":-7,"x_max":1135,"o":"m 268 442 l 21 718 l 239 718 l 471 432 l 471 718 l 657 718 l 657 432 l 889 718 l 1107 718 l 856 438 l 1135 0 l 907 0 l 731 299 l 657 215 l 657 0 l 471 0 l 471 215 l 397 299 l 221 0 l -7 0 l 268 442 m 563 804 q 474 815 514 804 q 404 851 433 826 q 358 913 375 875 q 342 1004 342 950 l 419 1004 q 467 934 429 956 q 563 913 504 913 q 658 934 621 913 q 706 1004 696 956 l 783 1004 q 767 913 783 950 q 721 851 750 875 q 651 815 692 826 q 563 804 610 804 z "},"Ӑ":{"ha":951,"x_min":-8,"x_max":961,"o":"m 367 992 l 590 992 l 961 0 l 735 0 l 660 221 l 289 221 l 211 0 l -8 0 l 367 992 m 603 383 l 478 747 l 475 747 l 346 383 l 603 383 m 474 1076 q 310 1129 372 1076 q 247 1290 247 1182 l 325 1290 q 375 1217 335 1242 q 474 1192 415 1192 q 572 1217 532 1192 q 622 1290 613 1242 l 700 1290 q 638 1129 700 1182 q 474 1076 575 1076 z "},"ӑ":{"ha":797,"x_min":44,"x_max":744,"o":"m 289 -18 q 193 -6 238 -18 q 115 33 149 7 q 63 100 82 60 q 44 196 44 140 q 66 297 44 257 q 122 360 88 336 q 199 395 156 383 q 288 414 243 407 q 375 425 332 421 q 451 438 418 429 q 504 462 485 446 q 522 508 524 478 q 512 558 522 539 q 484 588 501 578 q 444 602 467 599 q 394 606 421 606 q 303 581 336 606 q 264 497 269 556 l 67 497 q 101 612 71 565 q 179 686 132 658 q 285 726 226 714 q 404 738 343 738 q 514 730 458 738 q 615 700 569 722 q 690 638 661 678 q 719 533 719 597 l 719 160 q 725 67 719 111 q 744 0 731 22 l 544 0 q 535 34 539 17 q 531 69 532 51 q 419 1 483 21 q 289 -18 356 -18 m 363 113 q 453 132 421 113 q 500 178 485 151 q 519 233 515 206 q 522 278 522 261 l 522 351 q 492 334 510 340 q 451 324 474 328 q 406 317 429 319 q 358 310 382 314 q 314 299 335 306 q 277 280 293 292 q 251 250 261 268 q 242 204 242 232 q 251 159 242 176 q 278 131 261 142 q 317 117 294 121 q 363 113 339 113 m 397 804 q 308 815 349 804 q 239 851 268 826 q 193 913 210 875 q 176 1004 176 950 l 254 1004 q 301 934 264 956 q 397 913 339 913 q 493 934 456 913 q 540 1004 531 956 l 618 1004 q 601 913 618 950 q 556 851 585 875 q 485 815 526 826 q 397 804 444 804 z "},"Ӓ":{"ha":951,"x_min":-8,"x_max":961,"o":"m 367 992 l 590 992 l 961 0 l 735 0 l 660 221 l 289 221 l 211 0 l -8 0 l 367 992 m 603 383 l 478 747 l 475 747 l 346 383 l 603 383 m 425 1265 l 425 1103 l 239 1103 l 239 1265 l 425 1265 m 711 1265 l 711 1103 l 524 1103 l 524 1265 l 711 1265 z "},"ӓ":{"ha":797,"x_min":44,"x_max":744,"o":"m 289 -18 q 193 -6 238 -18 q 115 33 149 7 q 63 100 82 60 q 44 196 44 140 q 66 297 44 257 q 122 360 88 336 q 199 395 156 383 q 288 414 243 407 q 375 425 332 421 q 451 438 418 429 q 504 462 485 446 q 522 508 524 478 q 512 558 522 539 q 484 588 501 578 q 444 602 467 599 q 394 606 421 606 q 303 581 336 606 q 264 497 269 556 l 67 497 q 101 612 71 565 q 179 686 132 658 q 285 726 226 714 q 404 738 343 738 q 514 730 458 738 q 615 700 569 722 q 690 638 661 678 q 719 533 719 597 l 719 160 q 725 67 719 111 q 744 0 731 22 l 544 0 q 535 34 539 17 q 531 69 532 51 q 419 1 483 21 q 289 -18 356 -18 m 363 113 q 453 132 421 113 q 500 178 485 151 q 519 233 515 206 q 522 278 522 261 l 522 351 q 492 334 510 340 q 451 324 474 328 q 406 317 429 319 q 358 310 382 314 q 314 299 335 306 q 277 280 293 292 q 251 250 261 268 q 242 204 242 232 q 251 159 242 176 q 278 131 261 142 q 317 117 294 121 q 363 113 339 113 m 349 992 l 349 829 l 163 829 l 163 992 l 349 992 m 635 992 l 635 829 l 447 829 l 447 992 l 635 992 z "},"Ӕ":{"ha":1363,"x_min":-14,"x_max":1311,"o":"m 458 992 l 1300 992 l 1300 808 l 839 808 l 839 596 l 1272 596 l 1272 426 l 839 426 l 839 183 l 1311 183 l 1311 0 l 628 0 l 628 221 l 317 221 l 217 0 l -14 0 l 458 992 m 628 383 l 628 808 l 581 808 l 389 383 l 628 383 z "},"ӕ":{"ha":1260,"x_min":53,"x_max":1219,"o":"m 321 -18 q 222 -8 269 -18 q 136 28 174 3 q 76 93 99 53 q 53 194 53 133 q 74 295 53 256 q 128 359 94 335 q 206 395 163 383 q 293 414 249 407 q 401 430 356 424 q 477 446 447 436 q 521 471 507 456 q 535 514 535 486 q 524 560 535 542 q 494 588 513 578 q 453 602 476 599 q 407 606 431 606 q 310 581 349 606 q 269 494 272 557 l 72 494 q 105 609 75 563 q 181 684 135 656 q 288 725 228 713 q 411 738 349 738 q 476 733 442 738 q 542 717 510 728 q 601 687 574 706 q 649 640 629 668 q 746 713 690 689 q 889 738 801 738 q 1041 702 978 738 q 1144 608 1104 667 q 1201 472 1183 549 q 1219 311 1219 394 l 707 311 q 717 240 706 275 q 750 176 728 204 q 804 131 772 149 q 878 113 836 113 q 978 142 944 113 q 1021 225 1011 172 l 1213 225 q 1166 122 1197 167 q 1091 45 1135 76 q 994 -2 1047 14 q 882 -18 940 -18 q 732 10 804 -18 q 614 103 660 38 q 555 47 589 69 q 483 9 521 24 q 403 -12 444 -6 q 321 -18 361 -18 m 372 113 q 428 121 399 113 q 481 147 457 129 q 519 193 504 165 q 535 261 535 221 l 535 350 q 460 321 507 326 q 365 307 413 315 q 284 278 318 299 q 250 206 250 257 q 260 160 250 178 q 288 132 271 143 q 327 117 306 121 q 372 113 349 113 m 1022 436 q 1013 500 1022 469 q 983 554 1003 531 q 934 592 963 578 q 868 606 906 606 q 801 592 831 606 q 750 554 771 578 q 718 500 729 531 q 707 436 707 469 l 1022 436 z "},"Ӗ":{"ha":900,"x_min":96,"x_max":849,"o":"m 96 992 l 838 992 l 838 808 l 314 808 l 314 596 l 794 596 l 794 426 l 314 426 l 314 183 l 849 183 l 849 0 l 96 0 l 96 992 m 476 1076 q 313 1129 375 1076 q 250 1290 250 1182 l 328 1290 q 378 1217 338 1242 q 476 1192 418 1192 q 575 1217 535 1192 q 625 1290 615 1242 l 703 1290 q 640 1129 703 1182 q 476 1076 578 1076 z "},"ӗ":{"ha":797,"x_min":40,"x_max":757,"o":"m 407 -18 q 254 9 322 -18 q 139 86 186 36 q 66 206 92 136 q 40 358 40 275 q 67 508 40 439 q 142 628 93 578 q 258 708 190 679 q 407 738 325 738 q 559 706 493 738 q 669 620 625 674 q 735 496 713 567 q 757 349 757 425 q 757 330 757 339 q 756 311 757 321 l 238 311 q 286 172 242 215 q 414 129 331 129 q 517 159 474 129 q 569 222 560 189 l 743 222 q 615 38 701 93 q 407 -18 529 -18 m 558 436 q 509 550 544 511 q 401 589 474 589 q 322 573 353 589 q 273 533 292 557 q 247 483 254 510 q 238 436 239 457 l 558 436 m 397 804 q 308 815 349 804 q 239 851 268 826 q 193 913 210 875 q 176 1004 176 950 l 254 1004 q 301 934 264 956 q 397 913 339 913 q 493 934 456 913 q 540 1004 531 956 l 618 1004 q 601 913 618 950 q 556 851 585 875 q 485 815 526 826 q 397 804 444 804 z "},"Ә":{"ha":1039,"x_min":53,"x_max":986,"o":"m 522 -22 q 315 17 403 -22 q 168 126 226 57 q 81 290 110 196 q 53 492 53 383 q 53 524 53 501 q 56 556 54 546 l 768 556 q 681 760 753 686 q 504 835 610 835 q 359 795 421 835 q 278 681 297 756 l 71 681 q 117 814 81 753 q 209 920 153 875 q 340 990 265 965 q 500 1015 414 1015 q 704 975 614 1015 q 857 865 794 935 q 953 700 919 794 q 986 497 986 606 q 952 285 986 381 q 857 121 918 189 q 710 15 796 53 q 522 -22 625 -22 m 521 158 q 675 215 613 158 q 761 386 738 272 l 281 386 q 306 296 288 338 q 353 224 324 254 q 425 176 383 193 q 521 158 467 158 z "},"ә":{"ha":797,"x_min":42,"x_max":757,"o":"m 390 -18 q 231 17 299 -18 q 119 113 163 53 q 56 249 75 172 q 42 408 36 325 l 560 408 q 511 547 556 504 q 383 590 467 590 q 281 560 324 590 q 228 497 238 531 l 54 497 q 182 682 96 626 q 390 738 268 738 q 543 710 475 738 q 658 633 611 683 q 731 514 706 583 q 757 361 757 444 q 731 211 757 281 q 656 91 704 142 q 540 11 607 40 q 390 -18 472 -18 m 396 131 q 474 147 443 131 q 524 186 506 163 q 551 236 543 210 q 560 283 558 263 l 239 283 q 288 169 253 208 q 396 131 324 131 z "},"Ӝ":{"ha":1474,"x_min":-8,"x_max":1482,"o":"m 388 588 l 28 992 l 285 992 l 632 583 l 632 992 l 842 992 l 842 583 l 1189 992 l 1446 992 l 1086 588 l 1482 0 l 1213 0 l 949 433 l 842 313 l 842 0 l 632 0 l 632 313 l 525 433 l 260 0 l -8 0 l 388 588 m 686 1265 l 686 1103 l 500 1103 l 500 1265 l 686 1265 m 972 1265 l 972 1103 l 785 1103 l 785 1265 l 972 1265 z "},"ӝ":{"ha":1128,"x_min":-7,"x_max":1135,"o":"m 268 442 l 21 718 l 239 718 l 471 432 l 471 718 l 657 718 l 657 432 l 889 718 l 1107 718 l 856 438 l 1135 0 l 907 0 l 731 299 l 657 215 l 657 0 l 471 0 l 471 215 l 397 299 l 221 0 l -7 0 l 268 442 m 514 992 l 514 829 l 328 829 l 328 992 l 514 992 m 800 992 l 800 829 l 613 829 l 613 992 l 800 992 z "},"Ӟ":{"ha":899,"x_min":29,"x_max":847,"o":"m 458 -22 q 143 72 254 -22 q 29 333 32 165 l 244 333 q 263 247 246 283 q 309 188 281 211 q 376 155 338 165 q 458 144 414 144 q 582 191 535 144 q 629 306 629 238 q 614 374 629 347 q 572 417 599 401 q 513 439 546 433 q 443 444 479 444 l 368 444 l 368 592 q 399 590 381 590 q 426 590 417 590 q 606 725 606 590 q 565 815 606 783 q 457 847 524 847 q 328 808 376 847 q 274 697 281 769 l 68 697 q 101 840 69 781 q 187 939 133 900 q 310 997 240 978 q 458 1015 381 1015 q 598 995 533 1015 q 709 939 663 975 q 783 852 756 903 q 810 739 810 801 q 768 610 810 664 q 660 540 726 556 q 733 514 699 533 q 793 465 768 494 q 833 394 818 435 q 847 307 847 354 q 817 174 847 235 q 735 70 788 114 q 613 2 683 26 q 458 -22 542 -22 m 399 1265 l 399 1103 l 213 1103 l 213 1265 l 399 1265 m 685 1265 l 685 1103 l 497 1103 l 497 1265 l 685 1265 z "},"ӟ":{"ha":753,"x_min":31,"x_max":701,"o":"m 367 -18 q 238 -5 299 -18 q 132 39 178 8 q 59 117 86 69 q 31 233 32 164 l 218 233 q 263 144 224 175 q 371 114 303 114 q 468 142 438 114 q 499 210 499 169 q 470 282 499 254 q 375 310 442 310 l 299 310 l 299 433 l 350 433 q 449 453 413 433 q 486 526 486 472 q 459 583 486 558 q 374 607 432 607 q 280 587 314 607 q 238 508 246 567 l 54 508 q 88 615 60 571 q 160 685 117 658 q 260 725 204 713 q 378 738 317 738 q 599 691 521 738 q 678 544 678 644 q 666 485 678 513 q 636 438 654 458 q 594 403 618 417 q 549 386 571 390 l 549 383 q 601 372 574 381 q 650 342 628 363 q 687 291 672 322 q 701 213 701 260 q 677 111 701 154 q 609 39 653 68 q 503 -4 565 10 q 367 -18 442 -18 m 326 992 l 326 829 l 140 829 l 140 992 l 326 992 m 613 992 l 613 829 l 425 829 l 425 992 l 613 992 z "},"Ӣ":{"ha":1035,"x_min":96,"x_max":939,"o":"m 96 992 l 313 992 l 313 304 l 317 304 l 694 992 l 939 992 l 939 0 l 722 0 l 722 689 l 718 689 l 340 0 l 96 0 l 96 992 m 776 1233 l 776 1129 l 260 1129 l 260 1233 l 776 1233 z "},"ӣ":{"ha":833,"x_min":75,"x_max":758,"o":"m 75 718 l 264 718 l 264 232 l 535 718 l 758 718 l 758 0 l 569 0 l 569 486 l 299 0 l 75 0 l 75 718 m 675 960 l 675 856 l 158 856 l 158 960 l 675 960 z "},"Ӥ":{"ha":1035,"x_min":96,"x_max":939,"o":"m 96 992 l 313 992 l 313 304 l 317 304 l 694 992 l 939 992 l 939 0 l 722 0 l 722 689 l 718 689 l 340 0 l 96 0 l 96 992 m 467 1265 l 467 1103 l 281 1103 l 281 1265 l 467 1265 m 753 1265 l 753 1103 l 565 1103 l 565 1265 l 753 1265 z "},"ӥ":{"ha":833,"x_min":75,"x_max":758,"o":"m 75 718 l 264 718 l 264 232 l 535 718 l 758 718 l 758 0 l 569 0 l 569 486 l 299 0 l 75 0 l 75 718 m 367 992 l 367 829 l 181 829 l 181 992 l 367 992 m 653 992 l 653 829 l 465 829 l 465 992 l 653 992 z "},"Ӧ":{"ha":1081,"x_min":53,"x_max":1028,"o":"m 540 -22 q 335 17 425 -22 q 182 126 244 57 q 86 290 119 196 q 53 492 53 383 q 86 697 53 601 q 182 864 119 793 q 335 975 244 935 q 540 1015 425 1015 q 745 975 654 1015 q 899 864 836 935 q 994 697 961 793 q 1028 492 1028 601 q 994 290 1028 383 q 899 126 961 196 q 745 17 836 57 q 540 -22 654 -22 m 540 160 q 665 188 614 160 q 749 264 717 217 q 795 370 781 311 q 810 492 810 429 q 795 618 810 557 q 749 727 781 679 q 665 803 717 775 q 540 832 614 832 q 415 803 467 832 q 332 727 364 775 q 285 618 300 679 q 271 492 271 557 q 285 370 271 429 q 332 264 300 311 q 415 188 364 217 q 540 160 467 160 m 490 1265 l 490 1103 l 304 1103 l 304 1265 l 490 1265 m 776 1265 l 776 1103 l 589 1103 l 589 1265 l 776 1265 z "},"ӧ":{"ha":849,"x_min":53,"x_max":796,"o":"m 424 -18 q 271 8 339 -18 q 154 84 203 35 q 79 203 106 133 q 53 358 53 272 q 79 515 53 444 q 154 634 106 585 q 271 710 203 683 q 424 738 339 738 q 577 710 508 738 q 694 634 646 683 q 769 515 743 585 q 796 358 796 444 q 769 203 796 272 q 694 84 743 133 q 577 8 646 35 q 424 -18 508 -18 m 424 129 q 508 149 474 129 q 562 201 542 168 q 590 274 582 233 q 599 358 599 315 q 590 443 599 401 q 562 517 582 485 q 508 569 542 549 q 424 589 474 589 q 340 569 374 589 q 287 517 307 549 q 258 443 267 485 q 250 358 250 401 q 258 274 250 315 q 287 201 267 233 q 340 149 307 168 q 424 129 374 129 m 374 992 l 374 829 l 188 829 l 188 992 l 374 992 m 660 992 l 660 829 l 472 829 l 472 992 l 660 992 z "},"Ө":{"ha":1081,"x_min":53,"x_max":1028,"o":"m 540 -22 q 335 17 425 -22 q 182 126 244 57 q 86 290 119 196 q 53 492 53 383 q 86 697 53 601 q 182 864 119 793 q 335 975 244 935 q 540 1015 425 1015 q 745 975 654 1015 q 899 864 836 935 q 994 697 961 793 q 1028 492 1028 601 q 994 290 1028 383 q 899 126 961 196 q 745 17 836 57 q 540 -22 654 -22 m 540 154 q 655 177 607 154 q 735 238 703 200 q 786 327 768 276 q 811 432 804 378 l 268 432 q 292 327 274 378 q 344 238 311 276 q 426 177 378 200 q 540 154 474 154 m 807 590 q 777 687 797 642 q 724 765 757 732 q 646 818 692 799 q 540 838 600 838 q 433 818 479 838 q 355 765 388 799 q 302 687 322 732 q 274 590 282 642 l 807 590 z "},"ө":{"ha":849,"x_min":53,"x_max":796,"o":"m 424 -18 q 271 8 339 -18 q 154 84 203 35 q 79 203 106 133 q 53 358 53 272 q 79 515 53 444 q 154 634 106 585 q 271 710 203 683 q 424 738 339 738 q 577 710 508 738 q 694 634 646 683 q 769 515 743 585 q 796 358 796 444 q 769 203 796 272 q 694 84 743 133 q 577 8 646 35 q 424 -18 508 -18 m 424 124 q 500 138 468 124 q 553 178 532 153 q 585 236 574 203 q 601 307 597 269 l 247 307 q 263 236 251 269 q 296 178 275 203 q 348 138 317 153 q 424 124 379 124 m 597 439 q 577 499 590 471 q 543 549 564 528 q 493 582 522 569 q 424 594 464 594 q 354 582 383 594 q 304 549 325 569 q 271 499 283 528 q 251 439 258 471 l 597 439 z "},"Ӯ":{"ha":899,"x_min":-7,"x_max":908,"o":"m 246 -18 q 177 -12 210 -18 q 125 0 144 -6 l 125 176 q 229 165 165 165 q 304 191 279 165 q 329 250 329 217 q 314 316 329 282 q 283 381 299 350 l -7 992 l 233 992 l 461 475 l 676 992 l 908 992 l 575 261 q 507 133 540 186 q 435 46 474 79 q 351 -3 397 13 q 246 -18 306 -18 m 707 1233 l 707 1129 l 190 1129 l 190 1233 l 707 1233 z "},"ӯ":{"ha":721,"x_min":-7,"x_max":729,"o":"m 182 -251 q 122 -249 151 -251 q 61 -244 92 -247 l 61 -82 q 110 -87 85 -85 q 161 -89 136 -89 q 229 -64 206 -89 q 253 0 253 -39 q 244 44 253 24 l -7 718 l 203 718 l 365 226 l 368 226 l 525 718 l 729 718 l 429 -89 q 340 -214 397 -176 q 182 -251 283 -251 m 618 960 l 618 856 l 101 856 l 101 960 l 618 960 z "},"Ӱ":{"ha":899,"x_min":-7,"x_max":908,"o":"m 246 -18 q 177 -12 210 -18 q 125 0 144 -6 l 125 176 q 229 165 165 165 q 304 191 279 165 q 329 250 329 217 q 314 316 329 282 q 283 381 299 350 l -7 992 l 233 992 l 461 475 l 676 992 l 908 992 l 575 261 q 507 133 540 186 q 435 46 474 79 q 351 -3 397 13 q 246 -18 306 -18 m 399 1265 l 399 1103 l 213 1103 l 213 1265 l 399 1265 m 685 1265 l 685 1103 l 497 1103 l 497 1265 l 685 1265 z "},"ӱ":{"ha":721,"x_min":-7,"x_max":729,"o":"m 182 -251 q 122 -249 151 -251 q 61 -244 92 -247 l 61 -82 q 110 -87 85 -85 q 161 -89 136 -89 q 229 -64 206 -89 q 253 0 253 -39 q 244 44 253 24 l -7 718 l 203 718 l 365 226 l 368 226 l 525 718 l 729 718 l 429 -89 q 340 -214 397 -176 q 182 -251 283 -251 m 310 992 l 310 829 l 124 829 l 124 992 l 310 992 m 596 992 l 596 829 l 408 829 l 408 992 l 596 992 z "},"Ӳ":{"ha":899,"x_min":-7,"x_max":908,"o":"m 246 -18 q 177 -12 210 -18 q 125 0 144 -6 l 125 176 q 229 165 165 165 q 304 191 279 165 q 329 250 329 217 q 314 316 329 282 q 283 381 299 350 l -7 992 l 233 992 l 461 475 l 676 992 l 908 992 l 575 261 q 507 133 540 186 q 435 46 474 79 q 351 -3 397 13 q 246 -18 306 -18 m 501 1081 l 628 1278 l 846 1278 l 639 1081 l 501 1081 m 215 1081 l 340 1278 l 558 1278 l 351 1081 l 215 1081 z "},"ӳ":{"ha":721,"x_min":-7,"x_max":763,"o":"m 182 -251 q 122 -249 151 -251 q 61 -244 92 -247 l 61 -82 q 110 -87 85 -85 q 161 -89 136 -89 q 229 -64 206 -89 q 253 0 253 -39 q 244 44 253 24 l -7 718 l 203 718 l 365 226 l 368 226 l 525 718 l 729 718 l 429 -89 q 340 -214 397 -176 q 182 -251 283 -251 m 418 807 l 544 1004 l 763 1004 l 556 807 l 418 807 m 132 807 l 257 1004 l 475 1004 l 268 807 l 132 807 z "},"Ӵ":{"ha":938,"x_min":56,"x_max":840,"o":"m 622 376 q 577 367 604 372 q 520 358 550 363 q 461 351 490 354 q 410 349 432 349 q 260 367 326 349 q 149 426 194 385 q 80 533 104 467 q 56 694 56 599 l 56 992 l 272 992 l 272 692 q 308 565 272 601 q 426 529 343 529 q 478 532 449 529 q 535 538 507 535 q 586 545 563 542 q 622 551 610 549 l 622 992 l 840 992 l 840 0 l 622 0 l 622 376 m 418 1265 l 418 1103 l 232 1103 l 232 1265 l 418 1265 m 704 1265 l 704 1103 l 517 1103 l 517 1265 l 704 1265 z "},"ӵ":{"ha":797,"x_min":56,"x_max":722,"o":"m 525 275 q 486 266 511 271 q 430 256 461 261 q 364 247 399 250 q 296 243 329 243 q 115 311 175 243 q 56 496 56 379 l 56 718 l 251 718 l 251 536 q 274 427 251 458 q 361 396 296 396 q 403 398 379 396 q 449 403 426 400 q 492 410 472 406 q 525 417 513 414 l 525 718 l 722 718 l 722 0 l 525 0 l 525 275 m 349 992 l 349 829 l 163 829 l 163 992 l 349 992 m 635 992 l 635 829 l 447 829 l 447 992 l 635 992 z "},"Ӹ":{"ha":1290,"x_min":96,"x_max":1194,"o":"m 96 992 l 314 992 l 314 633 l 519 633 q 658 615 594 633 q 769 557 722 596 q 844 458 817 518 q 871 318 871 399 q 844 176 871 236 q 770 77 818 117 q 656 19 722 38 q 508 0 589 0 l 96 0 l 96 992 m 492 178 q 615 210 571 178 q 660 321 660 242 q 647 387 660 360 q 612 431 635 414 q 558 455 589 447 q 490 463 526 463 l 314 463 l 314 178 l 492 178 m 976 992 l 1194 992 l 1194 0 l 976 0 l 976 992 m 594 1265 l 594 1103 l 408 1103 l 408 1265 l 594 1265 m 881 1265 l 881 1103 l 693 1103 l 693 1265 l 881 1265 z "},"ӹ":{"ha":1081,"x_min":75,"x_max":1006,"o":"m 75 718 l 272 718 l 272 471 l 463 471 q 565 456 517 471 q 648 412 613 442 q 704 338 683 382 q 725 236 725 294 q 705 132 725 176 q 648 58 685 88 q 562 15 611 29 q 454 0 513 0 l 75 0 l 75 718 m 407 136 q 494 160 461 136 q 526 236 526 183 q 492 313 526 289 q 406 338 457 338 l 272 338 l 272 136 l 407 136 m 810 718 l 1006 718 l 1006 0 l 810 0 l 810 718 m 490 992 l 490 829 l 304 829 l 304 992 l 490 992 m 776 992 l 776 829 l 589 829 l 589 992 l 776 992 z "},"–":{"ha":694,"x_min":0,"x_max":694,"o":"m 0 464 l 0 294 l 694 294 l 694 464 l 0 464 z "},"—":{"ha":1389,"x_min":181,"x_max":1208,"o":"m 181 464 l 181 294 l 1208 294 l 1208 464 l 181 464 z "},"‘":{"ha":386,"x_min":94,"x_max":292,"o":"m 292 546 l 292 760 l 200 760 q 219 847 200 811 q 292 900 239 882 l 292 992 q 212 966 249 986 q 149 915 175 946 q 108 844 122 885 q 94 758 93 804 l 94 546 l 292 546 z "},"’":{"ha":386,"x_min":94,"x_max":292,"o":"m 94 992 l 94 778 l 186 778 q 167 691 186 726 q 94 638 147 656 l 94 546 q 174 572 138 551 q 238 622 211 592 q 278 693 264 653 q 292 779 293 733 l 292 992 l 94 992 z "},"‚":{"ha":386,"x_min":94,"x_max":292,"o":"m 94 214 l 94 0 l 186 0 q 167 -85 186 -50 q 94 -139 147 -121 l 94 -231 q 174 -205 138 -225 q 238 -153 211 -185 q 278 -83 264 -122 q 292 1 293 -43 l 292 214 l 94 214 z "},"“":{"ha":643,"x_min":75,"x_max":568,"o":"m 272 546 l 272 760 l 181 760 q 200 847 181 811 q 272 900 219 882 l 272 992 q 192 966 229 986 q 129 915 156 946 q 88 844 103 885 q 75 758 74 804 l 75 546 l 272 546 m 568 546 l 568 760 l 476 760 q 496 847 476 811 q 568 900 515 882 l 568 992 q 488 966 525 986 q 425 915 451 946 q 384 844 399 885 q 371 758 369 804 l 371 546 l 568 546 z "},"”":{"ha":643,"x_min":75,"x_max":568,"o":"m 75 992 l 75 778 l 167 778 q 147 691 167 726 q 75 638 128 656 l 75 546 q 155 572 118 551 q 218 622 192 592 q 259 693 244 653 q 272 779 274 733 l 272 992 l 75 992 m 371 992 l 371 778 l 463 778 q 443 691 463 726 q 371 638 424 656 l 371 546 q 451 572 414 551 q 514 622 488 592 q 555 693 540 653 q 568 779 569 733 l 568 992 l 371 992 z "},"„":{"ha":643,"x_min":75,"x_max":568,"o":"m 75 214 l 75 0 l 167 0 q 147 -85 167 -50 q 75 -139 128 -121 l 75 -231 q 155 -205 118 -225 q 218 -153 192 -185 q 259 -83 244 -122 q 272 1 274 -43 l 272 214 l 75 214 m 371 214 l 371 0 l 463 0 q 443 -85 463 -50 q 371 -139 424 -121 l 371 -231 q 451 -205 414 -225 q 514 -153 488 -185 q 555 -83 540 -122 q 568 1 569 -43 l 568 214 l 371 214 z "},"†":{"ha":772,"x_min":33,"x_max":739,"o":"m 292 556 l 292 -229 l 479 -229 l 479 556 l 739 556 l 739 718 l 479 718 l 479 992 l 292 992 l 292 718 l 33 718 l 33 556 l 292 556 z "},"‡":{"ha":772,"x_min":33,"x_max":739,"o":"m 292 38 l 292 -229 l 479 -229 l 479 38 l 739 38 l 739 200 l 479 200 l 479 556 l 739 556 l 739 718 l 479 718 l 479 992 l 292 992 l 292 718 l 33 718 l 33 556 l 292 556 l 292 200 l 33 200 l 33 38 l 292 38 z "},"•":{"ha":696,"x_min":100,"x_max":596,"o":"m 100 496 q 119 399 100 444 q 172 320 139 354 q 251 267 206 286 q 347 247 296 247 q 444 267 399 247 q 523 320 489 286 q 576 399 557 354 q 596 496 596 444 q 576 592 596 547 q 523 671 557 638 q 444 724 489 704 q 347 743 399 743 q 251 724 296 743 q 172 671 206 704 q 119 592 139 638 q 100 496 100 547 z "},"…":{"ha":1389,"x_min":122,"x_max":1265,"o":"m 1047 214 l 1047 0 l 1265 0 l 1265 214 l 1047 214 m 585 214 l 585 0 l 803 0 l 803 214 l 585 214 m 122 214 l 122 0 l 340 0 l 340 214 l 122 214 z "},"‰":{"ha":1593,"x_min":96,"x_max":1497,"o":"m 611 215 q 664 47 611 111 q 814 -18 717 -18 q 906 -1 868 -18 q 969 48 944 17 q 1005 122 993 79 q 1017 217 1017 165 q 1006 311 1017 267 q 972 388 996 356 q 910 440 949 421 q 815 458 872 458 q 722 439 761 458 q 659 386 683 419 q 623 308 635 353 q 611 215 611 264 m 783 1003 l 208 -29 l 329 -29 l 901 1003 l 783 1003 m 221 772 q 222 815 221 792 q 232 857 224 838 q 256 889 240 876 q 301 901 272 901 q 344 888 329 901 q 367 854 360 875 q 375 807 374 833 q 376 753 376 781 q 376 701 376 728 q 367 653 375 675 q 344 618 360 632 q 299 604 328 604 q 256 619 272 604 q 233 658 240 635 q 223 713 225 682 q 221 772 221 743 m 96 749 q 149 579 96 644 q 299 514 201 514 q 391 532 353 514 q 453 581 429 550 q 490 656 478 613 q 501 750 501 700 q 491 844 501 800 q 457 922 481 889 q 395 973 433 954 q 300 992 357 992 q 207 972 246 992 q 144 919 168 953 q 108 842 119 886 q 96 749 96 797 m 1217 239 q 1218 281 1217 258 q 1228 324 1219 304 q 1252 356 1236 343 q 1297 368 1268 368 q 1340 355 1325 368 q 1363 321 1356 342 q 1371 274 1369 300 q 1372 219 1372 247 q 1372 168 1372 194 q 1363 120 1371 142 q 1340 85 1356 99 q 1294 71 1324 71 q 1252 86 1268 71 q 1228 125 1236 101 q 1219 179 1221 149 q 1217 239 1217 210 m 1092 215 q 1144 47 1092 111 q 1294 -18 1197 -18 q 1387 -1 1349 -18 q 1449 48 1425 17 q 1485 122 1474 79 q 1497 217 1497 165 q 1487 311 1497 267 q 1453 388 1476 356 q 1391 440 1429 421 q 1296 458 1353 458 q 1203 439 1242 458 q 1140 386 1164 419 q 1103 308 1115 353 q 1092 215 1092 264 m 736 239 q 738 281 736 258 q 747 324 739 304 q 772 356 756 343 q 817 368 788 368 q 860 355 844 368 q 882 321 875 342 q 890 274 889 300 q 892 219 892 247 q 891 168 892 194 q 883 120 890 142 q 859 85 875 99 q 814 71 843 71 q 772 86 788 71 q 748 125 756 101 q 738 179 740 149 q 736 239 736 210 z "},"‹":{"ha":335,"x_min":58,"x_max":276,"o":"m 58 285 l 276 111 l 276 278 l 151 378 l 276 476 l 276 643 l 58 472 l 58 285 z "},"›":{"ha":335,"x_min":58,"x_max":276,"o":"m 276 472 l 58 643 l 58 476 l 183 378 l 58 278 l 58 111 l 276 285 l 276 472 z "},"⁄":{"ha":232,"x_min":-229,"x_max":463,"o":"m 344 1003 l -229 -29 l -108 -29 l 463 1003 l 344 1003 z "},"€":{"ha":772,"x_min":21,"x_max":800,"o":"m 715 760 l 800 933 q 547 1003 664 1003 q 272 897 382 1003 q 135 632 168 800 l 64 632 l 21 532 l 122 532 q 121 510 121 529 l 121 474 l 65 474 l 22 374 l 129 374 q 256 90 158 192 q 538 -22 363 -22 q 751 32 658 -22 l 753 242 q 539 154 643 154 q 333 374 378 154 l 575 374 l 618 474 l 322 474 l 324 532 l 635 532 l 678 632 l 339 632 q 533 822 388 822 q 715 760 618 822 z "},"№":{"ha":1481,"x_min":96,"x_max":1397,"o":"m 96 972 l 304 972 l 642 354 l 642 972 l 838 972 l 838 0 l 633 0 l 293 619 l 293 0 l 96 0 l 96 972 m 969 346 l 1388 346 l 1388 210 l 969 210 l 969 346 m 1171 389 q 1005 449 1067 389 q 943 614 943 510 q 960 706 943 664 q 1006 776 976 747 q 1078 822 1036 806 q 1172 838 1121 838 q 1337 776 1276 838 q 1397 614 1397 715 q 1336 449 1397 510 q 1171 389 1275 389 m 1171 492 q 1236 522 1211 492 q 1261 614 1261 551 q 1235 706 1261 676 q 1169 735 1210 735 q 1105 704 1129 735 q 1081 614 1081 674 q 1105 522 1081 551 q 1171 492 1129 492 z "},"™":{"ha":1389,"x_min":86,"x_max":1289,"o":"m 553 881 l 553 992 l 86 992 l 86 881 l 249 881 l 249 419 l 390 419 l 390 881 l 553 881 m 1289 419 l 1289 992 l 1101 992 l 958 615 l 815 992 l 626 992 l 626 419 l 760 419 l 760 825 l 763 825 l 910 419 l 1006 419 l 1153 825 l 1156 825 l 1156 419 l 1289 419 z "},"Ω":{"ha":1074,"x_min":75,"x_max":999,"o":"m 79 149 l 329 149 l 329 200 q 219 253 267 218 q 140 338 172 289 q 91 444 107 386 q 75 565 75 503 q 112 743 75 663 q 212 881 149 824 q 359 970 275 939 q 538 1001 443 1001 q 716 970 632 1001 q 863 883 800 939 q 962 746 925 826 q 999 568 999 665 q 983 447 999 506 q 935 338 967 388 q 855 253 903 289 q 743 200 807 217 l 743 149 l 994 149 l 994 0 l 604 0 l 604 278 q 760 375 708 301 q 811 553 811 449 q 792 665 811 613 q 737 758 772 718 q 651 820 701 797 q 539 843 601 843 q 426 819 476 843 q 338 756 375 796 q 282 662 301 715 q 263 549 263 608 q 313 373 263 444 q 468 278 364 301 l 468 0 l 79 0 l 79 149 z "},"∂":{"ha":778,"x_min":49,"x_max":715,"o":"m 360 -18 q 232 6 289 -18 q 134 72 175 29 q 71 174 93 115 q 49 301 49 232 q 71 424 49 368 q 133 522 93 481 q 228 587 172 564 q 351 610 285 610 q 453 592 407 610 q 543 539 500 574 l 543 564 q 534 665 543 611 q 503 765 525 719 q 442 841 481 811 q 343 871 403 871 q 253 852 290 871 q 175 801 215 833 l 85 904 q 201 976 143 950 q 335 1001 258 1001 q 516 957 443 1001 q 633 842 589 913 q 697 681 678 771 q 715 499 715 590 q 701 318 715 410 q 647 151 686 226 q 539 29 608 76 q 360 -18 469 -18 m 364 108 q 447 135 413 108 q 501 203 481 161 q 532 297 522 244 q 542 403 542 350 q 469 463 510 442 q 376 485 428 485 q 304 469 335 485 q 253 426 274 453 q 222 365 232 400 q 213 293 213 331 q 222 224 213 257 q 249 165 231 192 q 295 124 267 139 q 364 108 324 108 z "},"∆":{"ha":953,"x_min":-8,"x_max":961,"o":"m 367 992 l 590 992 l 961 0 l -8 0 l 367 992 m 693 163 l 478 768 l 475 768 l 253 163 l 693 163 z "},"∏":{"ha":1040,"x_min":96,"x_max":944,"o":"m 96 1092 l 944 1092 l 944 -297 l 757 -297 l 757 929 l 283 929 l 283 -297 l 96 -297 l 96 1092 z "},"∑":{"ha":858,"x_min":7,"x_max":851,"o":"m 7 -158 l 422 406 l 25 954 l 25 1092 l 836 1092 l 836 932 l 253 932 l 626 407 l 228 -139 l 851 -139 l 851 -297 l 7 -297 l 7 -158 z "},"−":{"ha":833,"x_min":67,"x_max":768,"o":"m 67 425 l 67 276 l 768 276 l 768 425 l 67 425 z "},"√":{"ha":785,"x_min":-7,"x_max":792,"o":"m 128 133 l 56 99 l -7 233 l 215 335 l 386 -32 l 615 1092 l 792 1092 l 494 -297 l 336 -297 l 128 133 z "},"∞":{"ha":1143,"x_min":63,"x_max":1081,"o":"m 306 96 q 204 116 249 96 q 128 170 160 136 q 79 251 96 204 q 63 353 63 299 q 78 453 63 407 q 125 534 94 500 q 200 588 156 568 q 300 608 244 608 q 384 594 346 608 q 455 558 422 581 q 516 505 488 535 q 572 442 544 475 q 627 504 599 474 q 688 558 656 535 q 759 594 721 581 q 842 608 797 608 q 942 589 897 608 q 1017 535 986 569 q 1064 456 1047 501 q 1081 356 1081 410 q 1064 254 1081 301 q 1017 172 1047 207 q 941 116 986 136 q 840 96 896 96 q 760 109 797 96 q 690 144 722 122 q 628 194 657 165 q 572 253 599 222 q 515 194 543 222 q 456 144 488 165 q 388 109 425 122 q 306 96 351 96 m 304 236 q 357 247 331 236 q 407 273 383 257 q 451 309 431 289 q 489 349 472 329 q 450 388 472 367 q 403 428 428 410 q 353 458 379 446 q 300 469 326 469 q 223 433 251 469 q 194 350 194 396 q 224 268 194 300 q 304 236 253 236 m 843 236 q 922 269 894 236 q 950 351 950 303 q 920 435 950 400 q 839 469 890 469 q 785 458 811 469 q 737 428 760 446 q 693 388 714 410 q 656 349 672 367 q 694 308 674 328 q 739 272 715 288 q 788 246 763 256 q 843 236 814 236 z "},"∫":{"ha":579,"x_min":0,"x_max":579,"o":"m 163 -296 q 109 -289 138 -296 q 56 -268 81 -282 q 16 -233 32 -254 q 0 -182 0 -211 q 23 -128 0 -149 q 79 -107 46 -107 q 127 -124 113 -107 q 149 -162 142 -142 q 162 -201 157 -183 q 182 -218 167 -218 q 204 -202 200 -218 q 208 -172 208 -186 q 205 -84 208 -128 q 201 4 201 -40 l 201 728 q 206 853 201 789 q 231 969 210 917 q 297 1056 251 1022 q 424 1090 342 1090 q 474 1084 447 1090 q 525 1065 501 1078 q 564 1031 549 1051 q 579 982 579 1011 q 558 924 579 949 q 501 900 536 900 q 453 917 468 900 q 430 955 438 935 q 416 992 422 975 q 396 1010 410 1010 q 375 995 379 1010 q 371 968 371 981 q 374 863 371 915 q 376 758 376 811 l 376 93 q 374 -37 376 32 q 351 -163 371 -106 q 288 -258 332 -221 q 163 -296 244 -296 z "},"≈":{"ha":833,"x_min":44,"x_max":789,"o":"m 44 90 q 62 176 49 133 q 99 254 75 219 q 160 310 124 289 q 247 331 197 331 q 335 316 290 331 q 426 285 381 301 q 517 253 472 268 q 604 239 563 239 q 663 267 643 239 q 690 331 683 296 l 789 331 q 772 242 785 285 q 734 165 758 199 q 673 111 710 132 q 583 90 636 90 q 493 106 542 90 q 396 138 444 121 q 304 171 347 156 q 232 186 261 186 q 172 155 193 186 q 143 90 150 124 l 44 90 l 44 90 m 44 378 q 62 464 49 421 q 99 542 75 507 q 160 597 124 576 q 247 618 197 618 q 335 603 290 618 q 426 572 381 589 q 517 541 472 556 q 604 526 563 526 q 663 555 643 526 q 690 618 683 583 l 789 618 q 772 529 785 572 q 734 453 758 486 q 673 399 710 419 q 583 378 636 378 q 493 393 542 378 q 396 426 444 408 q 304 458 347 443 q 232 474 261 474 q 172 442 193 474 q 143 378 150 411 l 44 378 l 44 378 z "},"≠":{"ha":833,"x_min":67,"x_max":768,"o":"m 147 -10 l 217 128 l 67 128 l 67 276 l 293 276 l 368 425 l 67 425 l 67 574 l 444 574 l 557 793 l 681 731 l 600 574 l 768 574 l 768 425 l 525 425 l 449 276 l 768 276 l 768 128 l 374 128 l 271 -74 l 147 -10 z "},"≤":{"ha":833,"x_min":67,"x_max":768,"o":"m 67 92 l 768 92 l 768 -49 l 67 -49 l 67 92 m 67 378 l 67 521 l 768 769 l 768 621 l 258 450 l 768 288 l 768 139 l 67 378 z "},"≥":{"ha":833,"x_min":68,"x_max":769,"o":"m 68 -49 l 68 92 l 769 92 l 769 -49 l 68 -49 m 68 139 l 68 288 l 578 450 l 68 621 l 68 769 l 769 521 l 769 378 l 68 139 z "},"◊":{"ha":833,"x_min":90,"x_max":744,"o":"m 90 485 l 340 1018 l 493 1018 l 744 485 l 493 -49 l 340 -49 l 90 485 m 576 485 l 417 854 l 257 485 l 417 114 l 576 485 z "},"":{"ha":1097,"x_min":71,"x_max":1040,"o":"m 567 817 q 471 838 544 817 q 347 858 399 858 q 149 758 228 858 q 71 499 71 657 q 174 149 71 326 q 382 -31 276 -31 q 474 -7 415 -31 q 574 15 528 15 q 678 -6 618 15 q 776 -28 739 -28 q 956 107 867 -28 q 1006 195 985 151 q 1040 281 1026 239 q 931 368 978 300 q 882 524 882 438 q 928 667 882 603 q 1007 750 953 703 q 971 789 989 772 q 935 819 953 806 q 786 864 869 864 q 665 840 736 864 q 567 817 594 817 m 779 1097 q 778 1110 779 1103 q 775 1126 778 1117 q 601 1023 653 1099 q 547 844 549 947 q 618 856 592 849 q 694 906 654 868 q 758 1001 738 950 q 779 1097 779 1053 z "},"ﬁ":{"ha":849,"x_min":0,"x_max":768,"o":"m 118 586 l 118 0 l 315 0 l 315 586 l 451 586 l 451 718 l 315 718 l 315 761 q 333 824 315 806 q 390 843 350 843 q 463 839 428 843 l 463 986 q 411 990 438 988 q 358 992 385 992 q 178 931 238 992 q 118 774 118 869 l 118 718 l 0 718 l 0 586 l 118 586 m 571 718 l 571 0 l 768 0 l 768 718 l 571 718 m 768 829 l 768 992 l 571 992 l 571 829 l 768 829 z "},"ﬂ":{"ha":849,"x_min":0,"x_max":768,"o":"m 118 586 l 118 0 l 315 0 l 315 586 l 451 586 l 451 718 l 315 718 l 315 761 q 333 824 315 806 q 390 843 350 843 q 463 839 428 843 l 463 986 q 411 990 438 988 q 358 992 385 992 q 178 931 238 992 q 118 774 118 869 l 118 718 l 0 718 l 0 586 l 118 586 m 571 992 l 571 0 l 768 0 l 768 992 l 571 992 z "}}}
